<?xml version="1.0" encoding="utf-8"?>
<!-- Generator: Adobe Illustrator 21.0.0, SVG Export Plug-In . SVG Version: 6.00 Build 0)  -->
<svg version="1.1" id="图层_1" xmlns="http://www.w3.org/2000/svg" xmlns:xlink="http://www.w3.org/1999/xlink" x="0px" y="0px"
	 viewBox="0 0 128 128" style="enable-background:new 0 0 128 128;" xml:space="preserve">
<path d="M64,89.2c2.7,0,4.9,2.2,4.9,4.8s-2.2,4.8-4.9,4.8c-2.7,0-4.9-2.2-4.9-4.8S61.3,89.2,64,89.2z M59.1,50.4
	c0-2.7,2.2-4.8,4.9-4.8c2.7,0,4.9,2.2,4.9,4.8v24.2c0,2.7-2.2,4.8-4.9,4.8c-2.7,0-4.9-2.2-4.9-4.8V50.4z M122.8,105.5L70.7,15.2
	c-1.5-2.7-4-4.2-6.7-4.2s-5.1,1.5-6.7,4.2L5.2,105.5c-1.5,2.7-1.6,5.5-0.3,7.9c1.3,2.3,3.9,3.7,7,3.7h104.2c3.1,0,5.6-1.3,7-3.7
	C124.4,111,124.3,108.2,122.8,105.5z"/>
</svg>
