<?xml version="1.0" encoding="utf-8"?>
<!-- Generator: Adobe Illustrator 21.0.0, SVG Export Plug-In . SVG Version: 6.00 Build 0)  -->
<svg version="1.1" id="图层_1" xmlns="http://www.w3.org/2000/svg" xmlns:xlink="http://www.w3.org/1999/xlink" x="0px" y="0px"
	 viewBox="0 0 128 128" style="enable-background:new 0 0 128 128;" xml:space="preserve">
<path d="M58.8,83.5v-17l11.8,8.3L58.8,83.5z M82.5,70.4L56.6,52.4c-2.4-1.6-5.6-1.1-7.2,1.3c0,0,0,0,0,0c-0.9,1.3-1.1,2.8-0.7,4.3
	c-0.1,0.4-0.2,0.8-0.2,1.2v31.1c0,0.6,0.2,1.2,0.4,1.8c-0.6,1.6-0.3,3.3,0.6,4.7c1.7,2.3,4.9,2.8,7.2,1.1c0,0,0,0,0,0l25.9-19.1
	c2.3-1.7,2.8-5,1.1-7.3C83.4,71.2,83,70.8,82.5,70.4z M17.3,113.6V35.9h93.3l0,77.8H17.3z M110.7,25.5H80.1l6.5-14.2
	c1.2-2.6,0.1-5.7-2.6-6.9c-2.6-1.2-5.7-0.1-6.9,2.6l0,0l-8.5,18.5H55.5L47,7c-1.2-2.6-4.3-3.7-6.9-2.6c-2.6,1.2-3.7,4.3-2.6,6.9
	l6.5,14.2H17.3C11.6,25.5,7,30.2,7,35.9v77.8c0,5.7,4.6,10.4,10.3,10.4h93.4c5.7,0,10.3-4.7,10.3-10.4V35.9
	C121,30.2,116.4,25.5,110.7,25.5z"/>
</svg>
