<?xml version="1.0" encoding="utf-8"?>
<!-- Generator: Adobe Illustrator 21.0.0, SVG Export Plug-In . SVG Version: 6.00 Build 0)  -->
<svg version="1.1" id="图层_1" xmlns="http://www.w3.org/2000/svg" xmlns:xlink="http://www.w3.org/1999/xlink" x="0px" y="0px"
	 viewBox="0 0 128 127.5" style="enable-background:new 0 0 128 127.5;" xml:space="preserve">
<path d="M44.3,96c1.5,0,3,0.3,4.4,0.9c1.4,0.6,2.6,1.4,3.6,2.4s1.9,2.3,2.4,3.6c0.6,1.4,0.9,2.9,0.9,4.4c0,1.5-0.3,3-0.9,4.4
	s-1.4,2.6-2.4,3.6c-1,1-2.3,1.9-3.6,2.4c-1.4,0.6-2.9,0.9-4.4,0.9c-1.6,0-3.1-0.3-4.5-0.9c-1.4-0.6-2.6-1.4-3.6-2.4
	c-1-1-1.9-2.3-2.4-3.6s-0.9-2.9-0.9-4.4c0-1.5,0.3-3,0.9-4.4s1.4-2.6,2.4-3.6c1-1,2.3-1.8,3.6-2.4C41.2,96.3,42.7,96,44.3,96z
	 M95,96.2c1.5,0,3,0.3,4.5,0.9c1.4,0.6,2.6,1.4,3.6,2.4s1.9,2.3,2.4,3.6c0.5,1.4,0.9,2.9,0.9,4.4c0,1.5-0.3,3-0.9,4.4
	c-0.6,1.4-1.4,2.6-2.4,3.6s-2.3,1.9-3.6,2.4c-1.4,0.6-2.9,0.9-4.5,0.9c-1.6,0-3-0.3-4.4-0.9c-1.4-0.6-2.6-1.4-3.6-2.4
	s-1.9-2.3-2.4-3.6c-0.5-1.4-0.9-2.9-0.9-4.4c0-1.5,0.3-3,0.9-4.4c0.6-1.4,1.4-2.6,2.4-3.6s2.3-1.8,3.6-2.4
	C92,96.5,93.5,96.2,95,96.2z M115.4,27.1c2.3,0,4,0.3,5.3,0.9c1.3,0.6,2.1,1.4,2.6,2.3c0.5,0.9,0.8,1.9,0.8,2.9s-0.1,1.9-0.4,2.6
	c-0.3,0.8-0.8,2.3-1.6,4.5c-0.8,2.3-1.6,4.8-2.6,7.5s-1.9,5.4-2.8,8.1s-1.6,4.8-2.3,6.4c-1,3.3-2.4,5.5-4,6.8
	c-1.6,1.3-3.5,1.9-5.9,1.9H40.7l1.8,11h61.4c3.9,0,5.9,1.6,5.9,5c0,1.6-0.4,3-1.1,4.3s-2.3,1.8-4.5,1.8H40.2c-1.6,0-3-0.4-4.1-1.1
	c-1.1-0.8-2-1.6-2.8-2.9c-0.8-1.1-1.4-2.5-1.8-3.9c-0.5-1.4-0.8-2.6-1-3.9c-0.1-0.5-0.3-1.6-0.6-3.5c-0.4-1.9-0.8-4.3-1.4-7
	c-0.5-2.8-1.1-5.9-1.8-9.4c-0.6-3.5-1.3-6.9-2-10.4c-1.5-8.3-3.3-17.4-5.3-27.4h-9.1c-1.3,0-2.3-0.3-3-0.9c-0.8-0.6-1.5-1.4-2-2.3
	c-0.5-0.9-0.9-1.8-1.1-2.8c-0.1-1.1-0.3-2-0.3-2.9c0-1.6,0.5-3,1.6-4c1.1-1,2.6-1.5,4.5-1.5h12.3c1.6,0,2.9,0.3,3.9,0.8
	c1,0.5,1.8,1.1,2.3,1.9c0.6,0.8,1,1.5,1.3,2.3c0.3,0.8,0.5,1.5,0.6,2c0.1,0.6,0.4,1.5,0.5,2.8c0.1,1.1,0.4,2.4,0.5,3.6
	c0.3,1.5,0.5,3,0.8,4.6C32.2,27.1,115.4,27.1,115.4,27.1z M110.9,37.9l-76.2-0.3l4.3,22l63.7,0.1L110.9,37.9z"/>
</svg>
