<?xml version="1.0" encoding="utf-8"?>
<!-- Generator: Adobe Illustrator 21.0.0, SVG Export Plug-In . SVG Version: 6.00 Build 0)  -->
<svg version="1.1" id="图层_1" xmlns="http://www.w3.org/2000/svg" xmlns:xlink="http://www.w3.org/1999/xlink" x="0px" y="0px"
	 viewBox="0 0 128 128" style="enable-background:new 0 0 128 128;" xml:space="preserve">
<path d="M91.8,118.1l-24.2-8c-1.1-0.3-2.3-0.5-3.7-0.5c-1.4,0-2.5,0.3-3.7,0.5l-24.2,8v-16.3c-1.9-1.1-3.9-2.3-5.5-3.6v20.3
	c0,3,2.5,5.5,5.5,5.5c0.5,0,1.1,0,1.6-0.2l24.2-8c0.5-0.3,1.1-0.3,1.6-0.3s1.1,0,1.6,0.3l24.2,8c0.5,0.2,1.1,0.2,1.6,0.2
	c3,0,5.5-2.5,5.5-5.5V98.3c-1.6,1.4-3.7,2.5-5.5,3.6v16.4C91.2,118.1,91.8,118.1,91.8,118.1z M64,4C36.5,4,14,26.5,14,53.9
	s22.5,49.9,50,49.9s50-22.5,50-49.9S91.5,4,64,4z M64,98.3c-24.4,0-44.5-20-44.5-44.4S39.6,9.5,64,9.5s44.5,20,44.5,44.4
	S88.4,98.3,64,98.3z M64,15.1c-21.4,0-38.9,17.5-38.9,38.7c0,21.4,17.5,38.9,38.9,38.9s38.9-17.5,38.9-38.8
	C102.9,32.5,85.4,15.1,64,15.1z M64,87.1c-18.4,0-33.4-15-33.4-33.3s15-33.3,33.4-33.3s33.4,15,33.4,33.3S82.4,87.1,64,87.1z"/>
<path d="M68,50.3c1.4-0.4,2.4-1,3-2c0.6-1,1-2,1-3.5c0-1.3-0.4-2.5-1-3.5s-1.5-1.6-2.6-2c-1.1-0.4-3.1-0.5-6-0.5h-7.9v12H63
	C65.3,50.8,66.9,50.6,68,50.3z M69.3,55.8c-1.4-0.5-3.3-0.6-5.8-0.6h-9.2v13.8h9.9c1.6,0,2.9,0,3.5-0.2c1.3-0.3,2.3-0.6,3-1.1
	c0.8-0.5,1.5-1.3,2-2.3c0.5-1,0.8-2.1,0.8-3.4c0-1.5-0.4-2.8-1.1-3.9C71.6,56.9,70.7,56.1,69.3,55.8z"/>
<path d="M64,15.3c-21.5,0-39,17.4-39,38.7s17.5,38.8,39,38.8s39-17.4,39-38.8S85.5,15.3,64,15.3z M77.9,67.5
	c-0.8,1.6-1.8,2.8-2.9,3.6c-1.1,0.9-2.6,1.5-4.3,2c-1.8,0.5-3.9,0.6-6.4,0.6H49.1V34.3H64c3,0,5.4,0.4,7.3,1.3
	c1.9,0.7,3.3,2,4.3,3.6c1,1.6,1.5,3.4,1.5,5.3c0,1.6-0.5,3.3-1.4,4.8s-2.3,2.6-4.2,3.6c2.4,0.8,4.3,1.9,5.5,3.6
	c1.3,1.6,1.9,3.6,1.9,6C78.9,64.3,78.5,65.9,77.9,67.5z"/>
</svg>
