<?xml version="1.0" encoding="utf-8"?>
<!-- Generator: Adobe Illustrator 21.0.0, SVG Export Plug-In . SVG Version: 6.00 Build 0)  -->
<svg version="1.1" id="图层_1" xmlns="http://www.w3.org/2000/svg" xmlns:xlink="http://www.w3.org/1999/xlink" x="0px" y="0px"
	 viewBox="0 0 128 128" style="enable-background:new 0 0 128 128;" xml:space="preserve">
<path d="M124,15.4v2.7c-3.4,0-9.2,0.9-10.9,2.5c-1.6,1.6-3.6,5.2-5.7,11l-32.1,80.9H54.8L19.4,33.3C16.6,27,14.1,22.9,12.1,21
	c-2-1.9-4.7-2.9-8.1-2.9v-2.7h55.3v2.7c-4.2,0-10.9,0.4-12.4,1c-1.5,0.6-2.2,2.1-2.2,4.4c0,1.4,0.7,3.7,2.4,7.4
	c1.6,3.6,2.7,6.2,3.5,8.1l21.7,48.6l21.2-52.8l1.9-5.6c0.6-2.1,0.9-3.5,0.9-4.4c0-2.7-0.9-4.5-2.9-5.4c-1.9-0.9-10-1.2-13.2-1.2
	v-2.7C80.2,15.4,124,15.4,124,15.4z"/>
</svg>
