<?xml version="1.0" encoding="utf-8"?>
<!-- Generator: Adobe Illustrator 21.0.0, SVG Export Plug-In . SVG Version: 6.00 Build 0)  -->
<svg version="1.1" id="图层_1" xmlns="http://www.w3.org/2000/svg" xmlns:xlink="http://www.w3.org/1999/xlink" x="0px" y="0px"
	 viewBox="0 0 128 128" style="enable-background:new 0 0 128 128;" xml:space="preserve">
<path d="M112.5,19.7l-19.6,2.8L91,9.4c-0.2-1.5-1-2.9-2.2-3.7c-2.5-1.9-6.4-1.7-8.5-1.4L40.9,9.7c-7.2,1-9.3,4.8-8.9,7.9l1.7,12.1
	l0.1,1l-11.8,1.7l-7.9,1.1c-2.7,0.3-4.7,2.8-4.3,5.5c0.3,2.7,2.8,4.7,5.5,4.3c0.1,0,0.1,0,0.2,0l3.7-0.5l2.8-0.4l0.7-0.1l7.9-1.1
	l9.9-1.4l11.3-1.6l29.8-4.2l29.8-4.2l2.5-0.3c2.7-0.4,4.6-2.9,4.2-5.6S115.2,19.3,112.5,19.7z M46.9,59.5c0-2.7,2.2-5,5-5
	c2.7,0,5,2.2,5,5v32.6c0,2.7-2.2,5-5,5c-2.7,0-5-2.2-5-5C46.9,92.2,46.9,59.5,46.9,59.5z M76.7,59.5c0-2.7,2.2-5,5-5
	c2.7,0,5,2.2,5,5v32.6c0,2.7-2.2,5-5,5c-2.7,0-5-2.2-5-5C76.7,92.2,76.7,59.5,76.7,59.5z M22.1,53.2v60.9c0,3.2,1.5,6,3.9,7.8
	c1.7,1.3,3.7,2.1,6,2.1h69.4c2.2,0,4.3-0.7,6-2.1c2.4-1.8,3.9-4.6,3.9-7.8V50.2H22L22.1,53.2L22.1,53.2z"/>
</svg>
