<?xml version="1.0" encoding="utf-8"?>
<!-- Generator: Adobe Illustrator 21.0.0, SVG Export Plug-In . SVG Version: 6.00 Build 0)  -->
<svg version="1.1" id="图层_1" xmlns="http://www.w3.org/2000/svg" xmlns:xlink="http://www.w3.org/1999/xlink" x="0px" y="0px"
	 viewBox="0 0 128 128" style="enable-background:new 0 0 128 128;" xml:space="preserve">
<path d="M14.4,91.6V78.7h99.1v13L14.4,91.6z M113.6,16.7v51.1H14.4V16.6L113.6,16.7L113.6,16.7z M113.6,5.7H14.4
	C8.7,5.7,4,10.6,4,16.7v74.9c0,6,4.7,11,10.4,11h44.4v8.9H43.1c-2.9,0-5.2,2.4-5.2,5.5c0,3,2.3,5.5,5.2,5.5h41.7
	c2.9,0,5.2-2.4,5.2-5.5c0-3-2.3-5.5-5.2-5.5H69.2v-8.9h44.4c5.8,0,10.4-4.9,10.4-11V16.7C124,10.6,119.3,5.7,113.6,5.7L113.6,5.7z"
	/>
</svg>
