<?xml version="1.0" encoding="utf-8"?>
<!-- Generator: Adobe Illustrator 21.0.0, SVG Export Plug-In . SVG Version: 6.00 Build 0)  -->
<svg version="1.1" id="图层_1" xmlns="http://www.w3.org/2000/svg" xmlns:xlink="http://www.w3.org/1999/xlink" x="0px" y="0px"
	 viewBox="0 0 128 128" style="enable-background:new 0 0 128 128;" xml:space="preserve">
<path d="M80,98.4H21.5c3.3-7.1,7.8-18,7.8-25.3V47.5c0-18.3,15.6-33.2,34.7-33.2s34.7,14.9,34.7,33.2v25.3c0,7.3,4.5,18.4,7.9,25.6
	H80z M64,113.8c-3.9,0-7.3-2.1-9.2-5.1h18.4C71.3,111.7,67.9,113.8,64,113.8z M119.1,100.8l0.4-0.2c-2.8-5.3-10.1-20.6-10.1-27.8
	V47.5C109.3,23.5,89,4,64,4S18.7,23.5,18.7,47.5v25.7c0,6.3-6.2,20.2-10.1,27.4l0.4,0.2c-0.6,0.8-0.9,1.8-0.9,2.7
	c0,2.8,2.4,5.1,5.3,5.1h30.1C45.8,117.5,54.1,124,64,124s18.2-6.5,20.6-15.3h30.1c2.9,0,5.3-2.3,5.3-5.1
	C120,102.6,119.6,101.6,119.1,100.8z"/>
</svg>
