<?xml version="1.0" encoding="utf-8"?>
<!-- Generator: Adobe Illustrator 21.0.0, SVG Export Plug-In . SVG Version: 6.00 Build 0)  -->
<svg version="1.1" id="图层_1" xmlns="http://www.w3.org/2000/svg" xmlns:xlink="http://www.w3.org/1999/xlink" x="0px" y="0px"
	 viewBox="0 0 128 128" style="enable-background:new 0 0 128 128;" xml:space="preserve">
<path d="M99,49H69c-2.8,0-5-2.2-5-5s2.2-5,5-5h30c2.8,0,5,2.2,5,5S101.8,49,99,49 M99,69H79c-2.8,0-5-2.2-5-5c0-2.8,2.2-5,5-5h20
	c2.8,0,5,2.2,5,5C104,66.8,101.8,69,99,69 M99,89H79c-2.8,0-5-2.2-5-5s2.2-5,5-5h20c2.8,0,5,2.2,5,5S101.8,89,99,89 M19.3,86.3
	L19,85.5v-8.7c0-3.2,2.1-6.3,5.1-7.6c0.2-0.1,3.2-1.4,7.4-2.7c-1.3-2.1-1.9-4.5-1.9-7V53c0-6.1,4-11.3,9.5-13.2
	c1.4-0.5,2.9-0.8,4.5-0.8c7.7,0,14,6.3,14,14v6.6c0,2.5-0.7,4.7-1.8,6.8c2.9,0.8,5.7,1.8,8.4,3c2,0.8,3.6,2.6,4.4,4.8
	c0.3,0.9,0.6,1.8,0.6,2.7l0,7.9c-0.3,3.7-3.4,6.6-7.1,6.6H26.1C23,91.2,20.3,89.2,19.3,86.3 M114,14H14C8.5,14,4,18.5,4,24V104
	c0,5.5,4.5,10,10,10h100c5.5,0,10-4.5,10-10V24C124,18.5,119.5,14,114,14"/>
</svg>
