<?xml version="1.0" encoding="utf-8"?>
<!-- Generator: Adobe Illustrator 21.0.0, SVG Export Plug-In . SVG Version: 6.00 Build 0)  -->
<svg version="1.1" id="图层_1" xmlns="http://www.w3.org/2000/svg" xmlns:xlink="http://www.w3.org/1999/xlink" x="0px" y="0px"
	 viewBox="0 0 128 128" style="enable-background:new 0 0 128 128;" xml:space="preserve">
<path d="M85.3,44.7c1.4,0,2.8,0.1,4.1,0.3c-3.8-17.1-22-29.9-42.9-29.9C23.1,15.1,4,31,4,51.3c0,11.6,6.4,21.3,17,28.6l-4.3,12.9
	l14.9-7.5c5.3,1,9.6,2.1,14.9,2.1c1.4,0,2.6,0,4-0.1c-0.9-2.9-1.3-5.8-1.3-8.9C49.1,59.8,65,44.7,85.3,44.7z M62.4,33.1
	c3.3,0,5.4,2.1,5.4,5.3s-2.1,5.3-5.4,5.3c-3.1,0-6.4-2.1-6.4-5.3S59.3,33.1,62.4,33.1z M32.6,43.8c-3.1,0-6.4-2.1-6.4-5.3
	c0-3.2,3.2-5.3,6.4-5.3s5.3,2.1,5.3,5.3C38,41.6,35.9,43.8,32.6,43.8z M124,77.8c0-17-17-30.9-36.1-30.9
	c-20.1,0.1-36.1,14-36.1,30.9c0,17,15.9,30.9,36.1,30.9c4.3,0,8.5-1,12.7-2.1l11.6,6.4l-3.3-10.6C117.6,95.9,124,87.4,124,77.8z
	 M76.3,72.5c-2.1,0-4.3-2.1-4.3-4.3c0-2.1,2.1-4.3,4.3-4.3c3.2,0,5.4,2.1,5.4,4.3C81.5,70.4,79.4,72.5,76.3,72.5z M99.6,72.5
	c-2.1,0-4.3-2.1-4.3-4.3c0-2.1,2.1-4.3,4.3-4.3c3.3,0,5.4,2.1,5.4,4.3C104.9,70.4,102.8,72.5,99.6,72.5z"/>
</svg>
