<?xml version="1.0" encoding="utf-8"?>
<!-- Generator: Adobe Illustrator 21.0.0, SVG Export Plug-In . SVG Version: 6.00 Build 0)  -->
<svg version="1.1" id="图层_1" xmlns="http://www.w3.org/2000/svg" xmlns:xlink="http://www.w3.org/1999/xlink" x="0px" y="0px"
	 viewBox="0 0 128 128" style="enable-background:new 0 0 128 128;" xml:space="preserve">
<style type="text/css">
	.st0{fill:#020202;}
</style>
<path class="st0" d="M84,59H44c-2.8,0-5-2.2-5-5s2.2-5,5-5h40c2.8,0,5,2.2,5,5S86.8,59,84,59 M84,84H44c-2.8,0-5-2.2-5-5s2.2-5,5-5
	h40c2.8,0,5,2.2,5,5S86.8,84,84,84 M109,4H19C13.4,4,9,8.5,9,14v100c0,5.5,4.4,10,10,10H109c5.5,0,10-4.5,10-10V14
	C119,8.5,114.6,4,109,4"/>
</svg>
