<?xml version="1.0" encoding="utf-8"?>
<!-- Generator: Adobe Illustrator 21.0.0, SVG Export Plug-In . SVG Version: 6.00 Build 0)  -->
<svg version="1.1" id="图层_1" xmlns="http://www.w3.org/2000/svg" xmlns:xlink="http://www.w3.org/1999/xlink" x="0px" y="0px"
	 viewBox="0 0 128 128" style="enable-background:new 0 0 128 128;" xml:space="preserve">
<path d="M29,74h20c2.8,0,5-2.2,5-5s-2.2-5-5-5H29c-2.8,0-5,2.2-5,5S26.2,74,29,74 M29,94h20c2.8,0,5-2.2,5-5s-2.2-5-5-5H29
	c-2.8,0-5,2.2-5,5S26.2,94,29,94 M29,54h40c2.8,0,5-2.2,5-5s-2.2-5-5-5H29c-2.8,0-5,2.2-5,5S26.2,54,29,54 M114,104l-100,0V24l0,0
	l100,0L114,104z M114,14H14C8.5,14,4,18.4,4,24V104c0,5.5,4.5,10,10,10h100c5.5,0,10-4.5,10-10V24C124,18.5,119.5,14,114,14z"/>
</svg>
