<?xml version="1.0" encoding="utf-8"?>
<!-- Generator: Adobe Illustrator 21.0.0, SVG Export Plug-In . SVG Version: 6.00 Build 0)  -->
<svg version="1.1" id="图层_1" xmlns="http://www.w3.org/2000/svg" xmlns:xlink="http://www.w3.org/1999/xlink" x="0px" y="0px"
	 viewBox="0 0 128 128" style="enable-background:new 0 0 128 128;" xml:space="preserve">
<path d="M7.8,32.3l-1.9,3.1c0.2-0.3,0.5-0.6,0.7-1l0.3-0.5C6.8,33.9,7.8,32.3,7.8,32.3z M61.9,23.6l39.1,22c-1,0.4-2,0.9-3.1,1.5
	L61.4,68.5L21.7,46L61.9,23.6 M61.9,11.4c-1,0-2,0.3-2.8,0.9L7.3,41.1c-0.5,0.3-1,0.7-1.5,1.2c-1.4,1.6-2,3.1-1.7,4.8
	c0.2,1.2,1,2.2,1.9,3c0.7,0.5,1.6,1.1,2.3,1.5L58.6,80c0.9,0.5,1.8,0.9,2.8,0.9s2-0.3,2.8-0.9l39.5-23.1c1.2-0.7,2.4-1,3.4-1
	c1.4,0,2.7,0.7,3.7,2.2c0.1,0.1,0.2,0.2,0.3,0.4c0.4,0.6,0.8,2.4,0.8,3.4v23c0,3.4,3.1,5.7,6.5,5.7s5.7-2.3,5.7-5.6V49
	c0-2.3-1.1-3.9-2.8-5.1L64.7,12.3C63.9,11.7,62.9,11.4,61.9,11.4z M29,80.7c-1.9,0-3.7,1.1-4.8,3.1C24.1,84,24,84,23.9,84.2
	c-0.4,0.6-0.4,1.7-0.4,2.8v2.9c0,2.4,1.1,4.2,2.7,5.3l32.9,20.5c0.8,0.6,1.7,0.9,2.7,0.9s1.9-0.3,2.7-0.9l32.9-20.5
	c1.7-1.2,2.7-3,2.7-5.3V87c0-3.6-2.2-5.9-5.5-5.9c-1.1,0-1.7,0-2.7,0.6L64.6,99.2c-0.8,0.6-1.7,0.9-2.7,0.9s-1.9-0.3-2.7-0.9
	L31.7,81.7C30.8,81,29.9,80.7,29,80.7z"/>
</svg>
