<?xml version="1.0" encoding="utf-8"?>
<!-- Generator: Adobe Illustrator 21.0.0, SVG Export Plug-In . SVG Version: 6.00 Build 0)  -->
<svg version="1.1" id="图层_1" xmlns="http://www.w3.org/2000/svg" xmlns:xlink="http://www.w3.org/1999/xlink" x="0px" y="0px"
	 viewBox="0 0 128 128" style="enable-background:new 0 0 128 128;" xml:space="preserve">
<path d="M123,39.4l-9-22.3c-0.4-0.9-0.8-1.7-1.4-2.4v-0.4h-0.3c-2.4-3.1-6.3-5.2-10.2-5.2H25.8c-3.8,0-7.7,2.1-10.2,5.2h-0.3v0.4
	c-0.6,0.7-1,1.6-1.4,2.4L4.9,39.5C3.1,43.9,4,50,7,53.7l8.4,10.4L25.8,77l31,38.4c1.8,2.3,4.5,3.6,7.2,3.6h0c2.7,0,5.4-1.3,7.2-3.6
	l31-38.4l10.4-13l8.4-10.4C124,49.9,124.9,44,123,39.4 M64,67.3L85.5,44l8.5,7.5L64,84L34,51.5l8.5-7.5L64,67.3z"/>
</svg>
