<?xml version="1.0" encoding="utf-8"?>
<!-- Generator: Adobe Illustrator 21.0.0, SVG Export Plug-In . SVG Version: 6.00 Build 0)  -->
<svg version="1.1" id="图层_1" xmlns="http://www.w3.org/2000/svg" xmlns:xlink="http://www.w3.org/1999/xlink" x="0px" y="0px"
	 viewBox="0 0 128 128" style="enable-background:new 0 0 128 128;" xml:space="preserve">
<path d="M64,114c-27.6,0-50-22.4-50-50s22.4-50,50-50s50,22.4,50,50S91.6,114,64,114 M64,4C30.9,4,4,30.9,4,64s26.9,60,60,60
	s60-26.9,60-60S97.1,4,64,4 M85.5,40.5c-1.9-2-5.1-2-7.1,0c0,0,0,0,0,0L63,55.9L47.5,40.5c-2-2-5.1-2-7.1,0s-2,5.1,0,7.1L55.9,63
	L40.5,78.5c-1.9,2-1.9,5.2,0.1,7.1c1.9,1.9,5,1.9,6.9,0L63,70.1l15.5,15.5c1.9,2,5.1,2,7,0c0,0,0,0,0,0c2-1.9,2-5.1,0-7.1
	c0,0,0,0,0,0L70.1,63l15.5-15.5C87.5,45.6,87.5,42.4,85.5,40.5C85.5,40.5,85.5,40.5,85.5,40.5"/>
</svg>
