<?xml version="1.0" encoding="utf-8"?>
<!-- Generator: Adobe Illustrator 21.0.0, SVG Export Plug-In . SVG Version: 6.00 Build 0)  -->
<svg version="1.1" id="图层_1" xmlns="http://www.w3.org/2000/svg" xmlns:xlink="http://www.w3.org/1999/xlink" x="0px" y="0px"
	 viewBox="0 0 128 128" style="enable-background:new 0 0 128 128;" xml:space="preserve">
<path d="M17.4,113.6V61.4l0,0h20.2c0.7,0.4,1.4,0.5,2.2,0.6c0.8,0,1.5-0.2,2.2-0.5l68.7,0l0,52.2L17.4,113.6z M110.7,51H44.9V34.8
	c0-11.2,9-20.3,20.1-20.3c11.1,0,20.1,9.1,20.2,20.3c0,2.9,2.3,5.2,5.2,5.2c2.9,0,5.2-2.3,5.2-5.2C95.6,17.8,81.9,4,65.1,4
	C48.3,4,34.6,17.8,34.6,34.8V51H17.3C11.6,51,7,55.7,7,61.4v52.1c0,5.8,4.6,10.4,10.3,10.4h93.4c5.7,0,10.3-4.7,10.3-10.4V61.4
	C121,55.7,116.4,51,110.7,51z M64,71.8c-2.9,0-5.2,2.3-5.2,5.2v20.9c0,2.9,2.3,5.2,5.2,5.2s5.2-2.3,5.2-5.2V77
	C69.2,74.2,66.9,71.8,64,71.8"/>
</svg>
