<?xml version="1.0" encoding="utf-8"?>
<!-- Generator: Adobe Illustrator 21.0.0, SVG Export Plug-In . SVG Version: 6.00 Build 0)  -->
<svg version="1.1" id="图层_1" xmlns="http://www.w3.org/2000/svg" xmlns:xlink="http://www.w3.org/1999/xlink" x="0px" y="0px"
	 viewBox="0 0 128 128" style="enable-background:new 0 0 128 128;" xml:space="preserve">
<path d="M114,104l-100,0V43.1l47.3,30.1c1.6,1,3.7,1,5.4,0L114,43.1L114,104z M14,24L14,24h100v7.3L64,63.1L14,31.3V24z M114,14H14
	C8.5,14,4,18.4,4,24V104c0,5.5,4.5,10,10,10h100c5.5,0,10-4.5,10-10V24C124,18.5,119.5,14,114,14z"/>
</svg>
