<?xml version="1.0" encoding="utf-8"?>
<!-- Generator: Adobe Illustrator 21.0.0, SVG Export Plug-In . SVG Version: 6.00 Build 0)  -->
<svg version="1.1" id="图层_1" xmlns="http://www.w3.org/2000/svg" xmlns:xlink="http://www.w3.org/1999/xlink" x="0px" y="0px"
	 viewBox="0 0 128 128" style="enable-background:new 0 0 128 128;" xml:space="preserve">
<path d="M110.3,114H17.6C10.1,114,4,107.5,4,99.6V28.4C4,20.5,10.1,14,17.6,14h92.8c7.5,0,13.6,6.5,13.6,14.4v71.1
	C123.9,107.5,117.8,114,110.3,114z M17.6,23.1c-2.7,0-5,2.4-5,5.3v71.1c0,2.9,2.2,5.3,5,5.3h92.8c2.7,0,5-2.4,5-5.3V28.4
	c0-2.9-2.2-5.3-5-5.3H17.6z M102.5,50.4H25.4c-2.4,0-4.2-2-4.2-4.5c0-2.5,1.9-4.5,4.2-4.5h77c2.4,0,4.2,2,4.2,4.5
	C106.8,48.4,104.9,50.4,102.5,50.4z M38.2,95.9H25.4c-2.4,0-4.2-2-4.2-4.5c0-2.5,1.9-4.5,4.2-4.5h12.9c2.4,0,4.2,2,4.2,4.5
	C42.5,93.9,40.6,95.9,38.2,95.9z"/>
</svg>
