<?xml version="1.0" encoding="utf-8"?>
<!-- Generator: Adobe Illustrator 21.0.0, SVG Export Plug-In . SVG Version: 6.00 Build 0)  -->
<svg version="1.1" id="图层_1" xmlns="http://www.w3.org/2000/svg" xmlns:xlink="http://www.w3.org/1999/xlink" x="0px" y="0px"
	 viewBox="0 0 128 128" style="enable-background:new 0 0 128 128;" xml:space="preserve">
<path d="M113.1,59.1l-54.4,54.4h0L14.4,69.2l54.4-54.4c1.3-0.1,4.6-0.4,12.4-0.4c13.4,0,31.3,0.7,31.6,0.8
	C113.5,33.5,113.8,54,113.1,59.1 M123.3,15.1c0-5.7-4.7-10.4-10.2-10.4h0C112.9,4.7,94.8,4,81.2,4C65.5,4,64.1,4.8,62.4,6.5L7,61.9
	C3,65.9,3,72.6,7.1,76.7l44.2,44.2c2,2,4.6,3.1,7.4,3.1c2.8,0,5.4-1.1,7.4-3l55.4-55.4C123.3,63.7,125,62,123.3,15.1 M82.5,49.8
	c-4.3,0-7.8-3.5-7.8-7.8s3.5-7.8,7.8-7.8s7.8,3.5,7.8,7.8S86.8,49.8,82.5,49.8 M82.5,23.7c-10.1,0-18.3,8.2-18.3,18.3
	s8.2,18.3,18.3,18.3s18.3-8.2,18.3-18.3S92.6,23.7,82.5,23.7"/>
</svg>
