<?xml version="1.0" encoding="utf-8"?>
<!-- Generator: Adobe Illustrator 21.0.0, SVG Export Plug-In . SVG Version: 6.00 Build 0)  -->
<svg version="1.1" id="图层_1" xmlns="http://www.w3.org/2000/svg" xmlns:xlink="http://www.w3.org/1999/xlink" x="0px" y="0px"
	 viewBox="0 0 128 128" style="enable-background:new 0 0 128 128;" xml:space="preserve">
<path d="M64,114c-27.6,0-50-22.4-50-50s22.4-50,50-50s50,22.4,50,50S91.6,114,64,114 M64,4C30.9,4,4,30.9,4,64s26.9,60,60,60
	s60-26.9,60-60S97.1,4,64,4 M80.7,51L57,77l-9.7-10.9c-1.8-2.1-5-2.2-7.1-0.4c-2.1,1.8-2.2,5-0.4,7.1l13.4,15
	c0.9,1.1,2.3,1.7,3.7,1.7h0c1.4,0,2.7-0.6,3.7-1.6l27.4-30c1.9-2,1.7-5.2-0.3-7.1C85.8,48.9,82.6,49,80.7,51L80.7,51"/>
</svg>
