<?xml version="1.0" encoding="utf-8"?>
<!-- Generator: Adobe Illustrator 21.0.0, SVG Export Plug-In . SVG Version: 6.00 Build 0)  -->
<svg version="1.1" id="图层_1" xmlns="http://www.w3.org/2000/svg" xmlns:xlink="http://www.w3.org/1999/xlink" x="0px" y="0px"
	 viewBox="0 0 128 128" style="enable-background:new 0 0 128 128;" xml:space="preserve">
<path d="M20.8,114.3V37.6h86.3v76.7H20.8z M64,13.6c7.9,0,14.4,6.5,14.4,14.4H49.6C49.6,20.1,56.1,13.6,64,13.6z M107.1,28H87.9
	c0-13.2-10.8-24-24-24S40,14.8,40,28H20.8c-5.3,0-9.6,4.3-9.6,9.6v76.8c0,5.3,4.3,9.6,9.6,9.6h86.4c5.3,0,9.6-4.3,9.6-9.6V37.6
	C116.7,32.3,112.4,28,107.1,28z M92.2,81.3c-2.3-1.3-5.2-0.5-6.6,1.8c-4.3,7.4-12.2,12-20.8,12s-16.5-4.6-20.8-12
	c-1.3-2.3-4.3-3.1-6.6-1.8c-2.3,1.3-3.1,4.3-1.8,6.6l0,0c6,10.4,17.1,16.8,29.1,16.8s23.1-6.4,29.1-16.8
	C95.3,85.6,94.5,82.7,92.2,81.3L92.2,81.3"/>
</svg>
