<?xml version="1.0" encoding="utf-8"?>
<!-- Generator: Adobe Illustrator 21.0.0, SVG Export Plug-In . SVG Version: 6.00 Build 0)  -->
<svg version="1.1" id="图层_1" xmlns="http://www.w3.org/2000/svg" xmlns:xlink="http://www.w3.org/1999/xlink" x="0px" y="0px"
	 viewBox="0 0 128 128" style="enable-background:new 0 0 128 128;" xml:space="preserve">
<path d="M14.9,113.1V14.9l98.2,0l0,98.2L14.9,113.1L14.9,113.1z M113.1,4H14.9C8.9,4,4,8.9,4,14.9v98.3c0,6,4.9,10.9,10.9,10.9h98.3
	c6,0,10.9-4.9,10.9-10.9V14.9C124,8.9,119.1,4,113.1,4L113.1,4z M99.2,52.2L79.3,72.1L61.9,54.7c-2.1-2.1-5.6-2.1-7.7,0L27.4,81.1
	c-2.1,2.2-2,5.6,0.2,7.7c2.1,2,5.4,2,7.5,0L58,66.2l17.4,17.4c2.2,2,5.5,2,7.7,0l23.8-23.8c2.1-2.1,2.1-5.6,0-7.7
	C104.8,50.1,101.3,50.1,99.2,52.2"/>
</svg>
