<?xml version="1.0" encoding="utf-8"?>
<!-- Generator: Adobe Illustrator 21.0.0, SVG Export Plug-In . SVG Version: 6.00 Build 0)  -->
<svg version="1.1" id="图层_1" xmlns="http://www.w3.org/2000/svg" xmlns:xlink="http://www.w3.org/1999/xlink" x="0px" y="0px"
	 viewBox="0 0 128 128" style="enable-background:new 0 0 128 128;" xml:space="preserve">
<path d="M102.1,80.4H25.9l0-65.5l76.2,0V80.4L102.1,80.4z M69.4,107.6H58.6c-3,0-5.4-2.4-5.4-5.5s2.4-5.5,5.4-5.5h10.9
	c3,0,5.4,2.4,5.4,5.5S72.5,107.6,69.4,107.6z M102.1,4H25.9C19.9,4,15,8.9,15,14.9v98.3c0,6,4.9,10.9,10.9,10.9h76.2
	c6,0,10.9-4.9,10.9-10.9V14.9C113,8.9,108.1,4,102.1,4z"/>
</svg>
