<?xml version="1.0" encoding="utf-8"?>
<!-- Generator: Adobe Illustrator 21.0.0, SVG Export Plug-In . SVG Version: 6.00 Build 0)  -->
<svg version="1.1" id="图层_1" xmlns="http://www.w3.org/2000/svg" xmlns:xlink="http://www.w3.org/1999/xlink" x="0px" y="0px"
	 viewBox="0 0 128 128" style="enable-background:new 0 0 128 128;" xml:space="preserve">
<path d="M113.1,113.1l-65.4,0V80.4H14.9l0-65.5l98.2,0L113.1,113.1L113.1,113.1z M14.9,113.1V91.3h21.8v21.8l-17.9,0H14.9z M113.1,4
	H14.9C8.9,4,4,8.9,4,14.9v98.3c0,6,4.9,10.9,10.9,10.9h98.3c6,0,10.8-4.9,10.9-10.9V14.9C124,8.9,119.1,4,113.1,4L113.1,4z M64,75
	h21.9c3,0,5.5-2.4,5.5-5.5S88.9,64,85.9,64l-11.5,0l28.9-28.9c2.1-2.1,2.1-5.6,0-7.7c-2.1-2.1-5.6-2.1-7.7,0L64,59V42.2
	c0-3-2.4-5.5-5.5-5.5c-3,0-5.5,2.4-5.5,5.5v21.9C53.1,70.1,58,75,64,75"/>
</svg>
