<?xml version="1.0" encoding="utf-8"?>
<!-- Generator: Adobe Illustrator 21.0.0, SVG Export Plug-In . SVG Version: 6.00 Build 0)  -->
<svg version="1.1" id="图层_1" xmlns="http://www.w3.org/2000/svg" xmlns:xlink="http://www.w3.org/1999/xlink" x="0px" y="0px"
	 viewBox="0 0 128 128" style="enable-background:new 0 0 128 128;" xml:space="preserve">
<path d="M82.4,70.1l-25,23.4c-2,1.9-5.2,1.8-7-0.2c0,0,0,0,0,0c-1.9-2-1.8-5.2,0.2-7.1c0,0,0,0,0,0l21-19.7L50.7,47.7
	c-2.1-1.8-2.3-5-0.5-7.1s5-2.3,7.1-0.5c0,0,0.1,0.1,0.1,0.1l25,22.4c2.1,1.8,2.2,5,0.4,7C82.6,69.9,82.5,70,82.4,70.1 M64,4
	C30.9,4,4,30.9,4,64c0,33.1,26.9,60,60,60s60-26.9,60-60C124,30.9,97.1,4,64,4"/>
</svg>
