<?xml version="1.0" encoding="utf-8"?>
<!-- Generator: Adobe Illustrator 21.0.0, SVG Export Plug-In . SVG Version: 6.00 Build 0)  -->
<svg version="1.1" id="图层_1" xmlns="http://www.w3.org/2000/svg" xmlns:xlink="http://www.w3.org/1999/xlink" x="0px" y="0px"
	 viewBox="0 0 128 128" style="enable-background:new 0 0 128 128;" xml:space="preserve">
<path d="M106.6,62.1H79.2V124h12.4c11,0,19.9-8.9,19.9-19.9V67C111.5,64.4,109.2,62.1,106.6,62.1z M58.4,62.1h11V124h-11
	C58.4,124,58.4,62.1,58.4,62.1z M16.4,67v37.1c0,11,8.9,19.9,19.9,19.9h12.4V62.1H21.3C18.5,62.1,16.4,64.4,16.4,67z M109.1,34.5
	H98.4c6.4-9.4,6.9-20,0.8-26.1C91.8,1,77.9,3.2,67.7,13.5c-1.1,1.1-2.3,2.4-3.1,3.6c-1-1.3-2-2.5-3.1-3.6C51.2,3.2,37.3,1,29.9,8.3
	c-6.1,6.1-5.6,16.9,0.8,26.1H18.9C10.8,34.5,4,41.1,4,49.3v2.9c0,2.4,1.9,4.3,4.3,4.3h111.4c2.4,0,4.3-1.9,4.3-4.3v-2.9
	C124,41.1,117.3,34.5,109.1,34.5z M74.6,20.3c6.8-6.8,14.8-8.1,17.8-5.1s1.6,11-5.1,17.8c-0.5,0.5-1.1,1-1.6,1.5H70.7
	c0.1-2.4-0.3-4.9-1-7.4C70.8,24.8,72.4,22.6,74.6,20.3z M41.8,33c-6.8-6.8-8.1-14.8-5.1-17.8s11-1.6,17.8,5.1
	c2.1,2.1,3.8,4.5,4.9,6.8c-0.8,2.5-1.1,5-1,7.4H43.4C42.9,34,42.3,33.5,41.8,33z"/>
</svg>
