<?xml version="1.0" encoding="utf-8"?>
<!-- Generator: Adobe Illustrator 21.0.0, SVG Export Plug-In . SVG Version: 6.00 Build 0)  -->
<svg version="1.1" id="图层_1" xmlns="http://www.w3.org/2000/svg" xmlns:xlink="http://www.w3.org/1999/xlink" x="0px" y="0px"
	 viewBox="0 0 128 128" style="enable-background:new 0 0 128 128;" xml:space="preserve">
<path d="M88.5,79.4c-3.3,3.2-5.1,8.9-4.3,13.4l3.1,18.3L71,102.5h0c-4.1-2.2-10-2.2-14.1,0l-16.3,8.6l3.1-18.3
	c0.8-4.5-1-10.2-4.3-13.4l-13.2-13l18.3-2.7c4.5-0.7,9.3-4.2,11.4-8.3L64,38.8l8.1,16.6c2,4.1,6.8,7.6,11.4,8.3l18.3,2.7L88.5,79.4
	L88.5,79.4z M112.9,70.1c2.4-2.4,3.3-5.4,2.4-8.1c-0.9-2.8-3.4-4.6-6.7-5.1L85,53.4c-1.1-0.2-3-1.5-3.5-2.6L71,29.3
	c-1.5-3.1-4.1-4.9-7-4.9c-2.9,0-5.5,1.8-7,4.9L46.5,50.8c-0.5,1-2.4,2.4-3.5,2.6l-23.5,3.4c-3.4,0.5-5.8,2.4-6.7,5.1s0,5.7,2.4,8.1
	l17,16.7c0.8,0.8,1.5,3,1.4,4.2l-4,23.6c-0.6,3.4,0.5,6.3,2.8,8c1.2,0.9,2.6,1.3,4.1,1.3c1.4,0,2.9-0.4,4.3-1.2l21-11.2
	c1-0.5,3.3-0.5,4.3,0l21,11.2c3,1.6,6.1,1.5,8.5-0.2c2.4-1.7,3.4-4.6,2.8-8l-4-23.6c-0.2-1.1,0.5-3.4,1.4-4.2
	C95.8,86.8,112.9,70.1,112.9,70.1z M30.2,43.4c2.9,0,5.2-2.3,5.2-5.2V10.6c0-2.9-2.3-5.2-5.2-5.2S25,7.8,25,10.6v27.5
	C25,41,27.3,43.4,30.2,43.4 M51,27.7c2.9,0,5.2-2.3,5.2-5.2V10.6c0-2.9-2.3-5.2-5.2-5.2c-2.9,0-5.2,2.3-5.2,5.2v11.8
	C45.8,25.4,48.2,27.7,51,27.7 M77.1,27.7c2.9,0,5.2-2.3,5.2-5.2V10.6c0-2.9-2.3-5.2-5.2-5.2c-2.9,0-5.2,2.3-5.2,5.2v11.8
	C71.9,25.4,74.3,27.7,77.1,27.7 M98,41.9c2.9,0,5.2-2.3,5.2-5.2V9.2c0-2.9-2.3-5.2-5.2-5.2c-2.9,0-5.2,2.3-5.2,5.2v27.5
	C92.8,39.6,95.1,41.9,98,41.9"/>
</svg>
