<?xml version="1.0" encoding="utf-8"?>
<!-- Generator: Adobe Illustrator 21.0.0, SVG Export Plug-In . SVG Version: 6.00 Build 0)  -->
<svg version="1.1" id="图层_1" xmlns="http://www.w3.org/2000/svg" xmlns:xlink="http://www.w3.org/1999/xlink" x="0px" y="0px"
	 viewBox="0 0 128 128" style="enable-background:new 0 0 128 128;" xml:space="preserve">
<path d="M64,114c-27.6,0-50-22.4-50-50s22.4-50,50-50s50,22.4,50,50S91.6,114,64,114 M64,4C30.9,4,4,30.9,4,64s26.9,60,60,60
	s60-26.9,60-60S97.1,4,64,4 M93.5,74.7c-2.4-1.4-5.4-0.6-6.8,1.8C82.2,84.2,73.9,89,65,89c-8.9,0-17.2-4.8-21.7-12.5
	c-1.4-2.4-4.4-3.2-6.8-1.8c-2.4,1.4-3.2,4.4-1.8,6.8C40.9,92.3,52.5,99,65,99c12.5,0,24-6.7,30.3-17.5
	C96.7,79.1,95.9,76.1,93.5,74.7C93.5,74.7,93.5,74.7,93.5,74.7 M44,64c2.8,0,5-2.2,5-5V44c0-2.8-2.2-5-5-5s-5,2.2-5,5v15
	C39,61.8,41.2,64,44,64 M84,64c2.8,0,5-2.2,5-5V44c0-2.8-2.2-5-5-5s-5,2.2-5,5v15C79,61.8,81.2,64,84,64"/>
</svg>
