<?xml version="1.0" encoding="utf-8"?>
<!-- Generator: Adobe Illustrator 21.0.0, SVG Export Plug-In . SVG Version: 6.00 Build 0)  -->
<svg version="1.1" id="图层_1" xmlns="http://www.w3.org/2000/svg" xmlns:xlink="http://www.w3.org/1999/xlink" x="0px" y="0px"
	 viewBox="0 0 128 128" style="enable-background:new 0 0 128 128;" xml:space="preserve">
<path d="M106.3,11.1H87.5V8.7c0-2.6-2.1-4.7-4.7-4.7c-2.6,0-4.7,2.1-4.7,4.7v2.4H49.9V8.7c0-2.6-2.1-4.7-4.7-4.7
	c-2.6,0-4.7,2.1-4.7,4.7v2.4H21.6c-5.2,0-9.4,4.4-9.4,9.8v13.7h103.5V20.9C115.8,15.5,111.5,11.1,106.3,11.1 M82.8,62.8
	c2.6,0,4.7,2.1,4.7,4.7c0,2.6-2.1,4.7-4.7,4.7H45.2c-2.6,0-4.7-2.1-4.7-4.7c0-2.6,2.1-4.7,4.7-4.7H82.8z M40.5,91.1
	c0-2.6,2.1-4.7,4.7-4.7h37.6c2.6,0,4.7,2.1,4.7,4.7s-2.1,4.7-4.7,4.7H45.2C42.6,95.8,40.5,93.7,40.5,91.1z M111.1,44H12.2v70.2
	c0,5.4,4.2,9.8,9.4,9.8h84.8c5.2,0,9.4-4.4,9.4-9.8V44C115.8,44,111.1,44,111.1,44z"/>
</svg>
