<?xml version="1.0" encoding="utf-8"?>
<!-- Generator: Adobe Illustrator 21.0.0, SVG Export Plug-In . SVG Version: 6.00 Build 0)  -->
<svg version="1.1" id="图层_1" xmlns="http://www.w3.org/2000/svg" xmlns:xlink="http://www.w3.org/1999/xlink" x="0px" y="0px"
	 viewBox="0 0 128 128" style="enable-background:new 0 0 128 128;" xml:space="preserve">
<path d="M114.3,37.1L88.7,9.3C87.4,8,85.8,6.9,84,6v33l31.6,0C115.2,38.3,114.8,37.7,114.3,37.1 M84,74H44c-2.8,0-5-2.2-5-5
	s2.2-5,5-5h40c2.8,0,5,2.2,5,5S86.8,74,84,74 M84,99H44c-2.8,0-5-2.2-5-5s2.2-5,5-5h40c2.8,0,5,2.2,5,5S86.8,99,84,99 M119,49H84
	c-5.5,0-10-4.5-10-10V4H19C13.5,4,9,8.5,9,14v100c0,5.5,4.4,10,10,10H109c5.5,0,10-4.5,10-10V49.3C119,49.2,119,49.1,119,49"/>
</svg>
