<?xml version="1.0" encoding="utf-8"?>
<!-- Generator: Adobe Illustrator 21.0.0, SVG Export Plug-In . SVG Version: 6.00 Build 0)  -->
<svg version="1.1" id="图层_1" xmlns="http://www.w3.org/2000/svg" xmlns:xlink="http://www.w3.org/1999/xlink" x="0px" y="0px"
	 viewBox="0 0 128 128" style="enable-background:new 0 0 128 128;" xml:space="preserve">
<path d="M93.9,87.9c-6,10.4-17.1,16.8-29.1,16.8s-23.1-6.4-29.1-16.8c-1.4-2.2-0.8-5.2,1.5-6.6s5.2-0.8,6.6,1.5
	c0.1,0.1,0.1,0.2,0.2,0.4c4.3,7.4,12.2,12,20.8,12s16.5-4.6,20.8-12c1.3-2.3,4.2-3.1,6.5-1.8C94.5,82.6,95.3,85.5,93.9,87.9
	C94,87.9,94,87.9,93.9,87.9 M107.1,28H20.8c-5.3,0-9.6,4.3-9.6,9.6v76.8c0,5.3,4.3,9.6,9.6,9.6h86.4c5.3,0,9.6-4.3,9.6-9.6V37.6
	C116.7,32.3,112.4,28,107.1,28 M64,13.6c7.9,0,14.4,6.5,14.4,14.4h9.6c0-13.2-10.8-24-24-24S40,14.8,40,28h9.6
	C49.6,20.1,56.1,13.6,64,13.6"/>
</svg>
