<?xml version="1.0" encoding="utf-8"?>
<!-- Generator: Adobe Illustrator 21.0.0, SVG Export Plug-In . SVG Version: 6.00 Build 0)  -->
<svg version="1.1" id="图层_1" xmlns="http://www.w3.org/2000/svg" xmlns:xlink="http://www.w3.org/1999/xlink" x="0px" y="0px"
	 viewBox="0 0 128 128" style="enable-background:new 0 0 128 128;" xml:space="preserve">
<path d="M113.1,91.3v3H81.7c-5.1,0-10.4,3.2-12.8,7.6l-4.9,9.3l-4.9-9.3c-2.3-4.4-7.7-7.6-12.8-7.6H14.9V14.9h98.2V91.3z M114,4H14
	C8.5,4,4,8.7,4,14.4v80.4c0,5.8,4.5,10.4,10,10.4h32.3c1,0,2.7,1,3.1,1.8l6.5,12.3l0.5,0.8c1.9,2.5,4.7,3.9,7.6,3.9
	c2.9,0,5.7-1.4,7.6-3.9l7-13c0.4-0.8,2-1.8,3.1-1.8H114c5.5,0,10-4.7,10-10.4V14.4C124,8.7,119.5,4,114,4z M34,47.6
	c-2.1,0-4,0.8-5.5,2.1c-1.7,1.5-2.7,3.7-2.7,6.1c0,2.4,1.1,4.6,2.7,6.1C30,63.2,32,64,34,64c4.5,0,8.2-3.7,8.2-8.2
	C42.2,51.3,38.5,47.6,34,47.6 M94,47.6c-4.5,0-8.2,3.7-8.2,8.2c0,4.5,3.7,8.2,8.2,8.2c2.1,0,4-0.8,5.5-2.1c1.7-1.5,2.7-3.6,2.7-6.1
	c0-2.3-1-4.5-2.7-6.1C98,48.4,96,47.6,94,47.6 M64,47.6c-2.1,0-4,0.8-5.5,2.1c-1.7,1.5-2.7,3.7-2.7,6.1c0,2.4,1.1,4.6,2.7,6.1
	C60,63.2,62,64,64,64c2.1,0,4-0.8,5.5-2.1c1.7-1.5,2.7-3.6,2.7-6.1c0-2.3-1-4.5-2.7-6.1C68,48.4,66,47.6,64,47.6"/>
</svg>
