<?xml version="1.0" encoding="utf-8"?>
<!-- Generator: Adobe Illustrator 21.0.0, SVG Export Plug-In . SVG Version: 6.00 Build 0)  -->
<svg version="1.1" id="图层_1" xmlns="http://www.w3.org/2000/svg" xmlns:xlink="http://www.w3.org/1999/xlink" x="0px" y="0px"
	 viewBox="0 0 128 128" style="enable-background:new 0 0 128 128;" xml:space="preserve">
<path d="M94,64c-4.5,0-8.2-3.7-8.2-8.2s3.7-8.2,8.2-8.2c4.5,0,8.2,3.7,8.2,8.2S98.5,64,94,64 M64,64c-4.5,0-8.2-3.7-8.2-8.2
	s3.7-8.2,8.2-8.2s8.2,3.7,8.2,8.2S68.5,64,64,64 M34,64c-4.5,0.1-8.3-3.4-8.4-8c-0.1-4.5,3.4-8.3,8-8.4c0.1,0,0.3,0,0.4,0
	c4.5,0.1,8.1,3.9,8,8.4C41.9,60.4,38.4,63.9,34,64 M114,4H14C8.5,4,4,8.7,4,14.4v80.4c0,5.8,4.5,10.4,10,10.4h32.3
	c1,0,2.7,1,3.1,1.8l6.5,12.3l0.5,0.8c1.9,2.5,4.7,3.9,7.6,3.9h0c2.9,0,5.7-1.4,7.6-3.9l7-13c0.4-0.8,2-1.8,3.1-1.8H114
	c5.5,0,10-4.7,10-10.4V14.4C124,8.7,119.5,4,114,4"/>
</svg>
