<?xml version="1.0" encoding="utf-8"?>
<!-- Generator: Adobe Illustrator 21.0.0, SVG Export Plug-In . SVG Version: 6.00 Build 0)  -->
<svg version="1.1" id="图层_1" xmlns="http://www.w3.org/2000/svg" xmlns:xlink="http://www.w3.org/1999/xlink" x="0px" y="0px"
	 viewBox="0 0 128 128" style="enable-background:new 0 0 128 128;" xml:space="preserve">
<path d="M121.2,46.2c-2.5-3-6.3-4.7-10.6-4.7H84.4c3.7-10.5,0.9-22.7,0.7-23.3c-0.2-0.6-0.4-1.2-0.8-1.7c-2.1-6-7.9-10-14.3-10
	c-8.1,0-14.7,6.2-15.2,14.2h-0.1V24c0,5-2.2,9.7-6,13c-2.5,2.2-5.7,3.7-9.2,4.2v80.3h61c5.1,0,10-3.9,11.1-8.9l12-55.3
	C124.5,53.3,123.6,49.2,121.2,46.2 M14.2,41.5C8.6,41.5,4,46,4,51.5v59.9c0,5.5,4.5,10,10.1,10h15.3v-80H14.2z"/>
</svg>
