<?xml version="1.0" encoding="utf-8"?>
<!-- Generator: Adobe Illustrator 21.0.0, SVG Export Plug-In . SVG Version: 6.00 Build 0)  -->
<svg version="1.1" id="图层_1" xmlns="http://www.w3.org/2000/svg" xmlns:xlink="http://www.w3.org/1999/xlink" x="0px" y="0px"
	 viewBox="0 0 128 128" style="enable-background:new 0 0 128 128;" xml:space="preserve">
<path d="M64,124c7.8,0,14.5-4.1,18.2-10.1H45.8C49.7,120.2,56.6,124,64,124 M119.1,100.8l0.4-0.2c-2.8-5.3-10.1-20.6-10.1-27.8V47.5
	C109.3,23.5,89,4,64,4S18.7,23.5,18.7,47.5v25.7c0,6.3-6.2,20.2-10.1,27.4l0.4,0.2c-0.6,0.8-0.9,1.8-0.9,2.7c0,2.8,2.4,5.1,5.3,5.1
	h25.5v-0.2h54.4v0.2h21.4c2.9,0,5.3-2.3,5.3-5.1C120,102.5,119.6,101.6,119.1,100.8"/>
</svg>
