<?xml version="1.0" encoding="utf-8"?>
<!-- Generator: Adobe Illustrator 21.0.0, SVG Export Plug-In . SVG Version: 6.00 Build 0)  -->
<svg version="1.1" id="图层_1" xmlns="http://www.w3.org/2000/svg" xmlns:xlink="http://www.w3.org/1999/xlink" x="0px" y="0px"
	 viewBox="0 0 128 128" style="enable-background:new 0 0 128 128;" xml:space="preserve">
<path d="M123.1,39.4L114,17.1c-1.9-4.6-7-8.1-11.9-8.1H25.8c-4.9,0-10,3.5-11.9,8.1l-9,22.4C3.1,43.9,4,50,7,53.7l49.8,61.7
	c1.8,2.3,4.5,3.6,7.2,3.6h0c2.7,0,5.4-1.3,7.2-3.6L121,53.7C124,49.9,124.9,44,123.1,39.4 M113.1,47L64,107.9L14.9,47.1
	c-0.6-0.7-0.9-2.7-0.5-3.6l9-22.4c0.3-0.7,1.6-1.6,2.4-1.6h76.3c0.8,0,2.1,0.9,2.4,1.6l9,22.3C114,44.4,113.7,46.3,113.1,47
	 M64,67.3L85.5,44l8.5,7.5L64,84L34,51.5l8.5-7.5L64,67.3z"/>
</svg>
