<?xml version="1.0" encoding="utf-8"?>
<!-- Generator: Adobe Illustrator 21.0.0, SVG Export Plug-In . SVG Version: 6.00 Build 0)  -->
<svg version="1.1" id="图层_1" xmlns="http://www.w3.org/2000/svg" xmlns:xlink="http://www.w3.org/1999/xlink" x="0px" y="0px"
	 viewBox="0 0 128 128" style="enable-background:new 0 0 128 128;" xml:space="preserve">
<path d="M119.9,68.2H8.3C5.9,68.2,4,66.3,4,64c0-2.3,1.9-4.2,4.3-4.2h111.5c2.4,0,4.3,1.8,4.3,4.2C124,66.3,122.2,68.2,119.9,68.2z
	 M107,119H81.2c-2.4,0-4.3-1.8-4.3-4.2c0-2.3,1.9-4.2,4.3-4.2H107c2.4,0,4.3-1.8,4.3-4.2V85.1c0-2.3,1.9-4.2,4.3-4.2
	s4.3,1.8,4.3,4.2v21.1C119.9,113.3,114.1,119,107,119z M42.7,119H21.1c-7.1,0-12.9-5.7-12.9-12.7V85.1c0-2.3,1.9-4.2,4.3-4.2
	s4.3,1.8,4.3,4.2v21.1c0,2.3,1.9,4.2,4.3,4.2h21.4c2.4,0,4.3,1.8,4.3,4.2C46.9,117,44.9,119,42.7,119z M12.6,47.1
	c-2.4,0-4.3-1.8-4.3-4.2V21.7c0-7,5.8-12.7,12.9-12.7h21.4c2.4,0,4.3,1.8,4.3,4.2s-1.9,4.2-4.3,4.2H21.1c-2.4,0-4.3,1.8-4.3,4.2
	v21.1C16.9,45.1,14.9,47.1,12.6,47.1z M115.5,47.1c-2.4,0-4.3-1.8-4.3-4.2V21.7c0-2.3-1.9-4.2-4.3-4.2H81.2c-2.4,0-4.3-1.8-4.3-4.2
	s1.9-4.2,4.3-4.2H107c7.1,0,12.9,5.7,12.9,12.7v21.1C119.9,45.1,117.9,47.1,115.5,47.1z"/>
</svg>
