<?xml version="1.0" encoding="utf-8"?>
<!-- Generator: Adobe Illustrator 21.0.0, SVG Export Plug-In . SVG Version: 6.00 Build 0)  -->
<svg version="1.1" id="图层_1" xmlns="http://www.w3.org/2000/svg" xmlns:xlink="http://www.w3.org/1999/xlink" x="0px" y="0px"
	 viewBox="0 0 128 128" style="enable-background:new 0 0 128 128;" xml:space="preserve">
<path d="M37.6,47.6H46c0.9,0,1.6-0.7,1.6-1.6v-8.4c0-0.9-0.7-1.6-1.6-1.6h-8.4c-0.9,0-1.6,0.7-1.6,1.6V46
	C36,46.9,36.8,47.6,37.6,47.6z M92,82c0-0.9-0.8-1.6-1.6-1.6H82c-0.9,0-1.6,0.8-1.6,1.6v8.4c0,0.9,0.8,1.6,1.6,1.6h8.4
	c0.9,0,1.6-0.8,1.6-1.6V82z M46,80.4h-8.4c-0.9,0-1.6,0.8-1.6,1.6v8.4c0,0.9,0.7,1.6,1.6,1.6H46c0.9,0,1.6-0.8,1.6-1.6V82
	C47.6,81.1,46.9,80.4,46,80.4z M92,37.6c0-0.9-0.8-1.6-1.6-1.6H82c-0.9,0-1.6,0.7-1.6,1.6V46c0,0.9,0.8,1.6,1.6,1.6h8.4
	c0.9,0,1.6-0.7,1.6-1.6V37.6z M64,4C30.9,4,4,30.9,4,64s26.9,60,60,60s60-26.9,60-60S97.1,4,64,4z M59.4,33.6c0-2.6,2.1-4.6,4.6-4.6
	c2.6,0,4.6,2.1,4.6,4.6v25.6h11.6c2.6,0,4.6,2.1,4.6,4.6c0,2.6-2.1,4.6-4.6,4.6H33.6c-2.6,0-4.6-2.1-4.6-4.6c0-2.6,2.1-4.6,4.6-4.6
	h25.6V33.6H59.4z M29,35.6c0-3.6,3-6.6,6.6-6.6h12.5c3.6,0,6.6,3,6.6,6.6v12.5c0,3.6-3,6.6-6.6,6.6H35.6c-3.6,0-6.6-3-6.6-6.6V35.6z
	 M54.6,92.4c0,3.6-3,6.6-6.6,6.6H35.5c-3.6,0-6.6-3-6.6-6.6V79.9c0-3.6,3-6.6,6.6-6.6H48c3.6,0,6.6,3,6.6,6.6V92.4z M68.6,94.4
	c0,2.6-2.1,4.6-4.6,4.6c-2.6,0-4.6-2.1-4.6-4.6V78c0-2.6,2.1-4.6,4.6-4.6c2.6,0,4.6,2.1,4.6,4.6V94.4z M99,92.4c0,3.6-3,6.6-6.6,6.6
	H79.9c-3.6,0-6.6-3-6.6-6.6V79.9c0-3.6,3-6.6,6.6-6.6h12.5c3.6,0,6.6,3,6.6,6.6V92.4z M94.4,68.6c-2.6,0-4.6-2.1-4.6-4.6
	c0-2.6,2.1-4.6,4.6-4.6c2.6,0,4.6,2.1,4.6,4.6C99,66.6,96.9,68.6,94.4,68.6z M99,48.1c0,3.6-3,6.6-6.6,6.6H79.9
	c-3.6,0-6.6-3-6.6-6.6V35.6c0-3.6,3-6.6,6.6-6.6h12.5c3.6,0,6.6,3,6.6,6.6V48.1z"/>
</svg>
