<?xml version="1.0" encoding="utf-8"?>
<!-- Generator: Adobe Illustrator 21.0.0, SVG Export Plug-In . SVG Version: 6.00 Build 0)  -->
<svg version="1.1" id="图层_1" xmlns="http://www.w3.org/2000/svg" xmlns:xlink="http://www.w3.org/1999/xlink" x="0px" y="0px"
	 viewBox="0 0 128 128" style="enable-background:new 0 0 128 128;" xml:space="preserve">
<path d="M110.6,113.6l-93,0c-0.1,0-0.2,0-0.2-0.1V94.2c0-1,1-2.4,2-2.8c0.2-0.1,11.2-4.9,24.3-8.2c6.7-1.7,13.9-3,20.4-3
	c5.9,0,12.4,1.1,18.6,2.5c9,2.2,17.7,5.1,26.2,8.7c0.9,0.4,1.8,1.8,1.8,2.8V113.6L110.6,113.6z M46,31.1c0-9.2,7.5-16.7,16.7-16.7
	c9.2,0,16.7,7.5,16.7,16.7v20c0,9.2-7.5,16.7-16.7,16.7c-9.2,0-16.7-7.5-16.7-16.7C46,51.1,46,31.1,46,31.1z M112.9,81.9
	c-0.6-0.3-9.5-4.2-20.9-7.4c-3.9-1.1-7.8-2.1-11.8-2.9c5.8-5,9.6-12.3,9.6-20.6v-20C89.8,16.1,77.7,4,62.7,4
	C47.8,4,35.7,16.1,35.7,31.1v20c0,8.5,4,16,10.2,21c-4.1,0.9-8.1,1.9-11.8,3c-6.4,1.9-12.6,4.2-18.7,6.8C10.6,83.7,7,89.1,7,94.2
	v21.4l0.3,0.8C8.8,121,13,124,17.6,124h92.8c5.3,0,9.8-4,10.5-9.2l0.1-20.5C121,89.1,117.4,83.8,112.9,81.9z"/>
</svg>
