<?xml version="1.0" encoding="utf-8"?>
<!-- Generator: Adobe Illustrator 21.0.0, SVG Export Plug-In . SVG Version: 6.00 Build 0)  -->
<svg version="1.1" id="图层_1" xmlns="http://www.w3.org/2000/svg" xmlns:xlink="http://www.w3.org/1999/xlink" x="0px" y="0px"
	 viewBox="0 0 128 128" style="enable-background:new 0 0 128 128;" xml:space="preserve">
<path d="M19,114V14l0,0h55v25c0,5.5,4.5,10,10,10h25c0,0.1,0,0.2,0,0.3l0,64.7L19,114z M102.4,39L84,39V19L102.4,39z M114.3,37.1
	L88.7,9.3C85.8,6.2,80.8,4,76.6,4H19C13.5,4,9,8.5,9,14v100c0,5.5,4.4,10,10,10H109c5.5,0,10-4.5,10-10V49.3
	C119,45.2,117,40.1,114.3,37.1z M84,64H44c-2.8,0-5,2.2-5,5s2.2,5,5,5h40c2.8,0,5-2.2,5-5S86.8,64,84,64 M84,89H44c-2.8,0-5,2.2-5,5
	s2.2,5,5,5h40c2.8,0,5-2.2,5-5S86.8,89,84,89"/>
</svg>
