<?xml version="1.0" encoding="utf-8"?>
<!-- Generator: Adobe Illustrator 21.0.0, SVG Export Plug-In . SVG Version: 6.00 Build 0)  -->
<svg version="1.1" id="图层_1" xmlns="http://www.w3.org/2000/svg" xmlns:xlink="http://www.w3.org/1999/xlink" x="0px" y="0px"
	 viewBox="0 0 128 128" style="enable-background:new 0 0 128 128;" xml:space="preserve">
<path d="M109.2,29.1H89.1C89.1,15.3,77.8,4,64,4S38.8,15.3,38.8,29.1H18.7c-5.5,0-10,4.5-10,10V114c0,5.5,4.5,10,10,10h90.5
	c5.5,0,10-4.5,10-10V39.1C119.1,33.6,114.7,29.1,109.2,29.1z M63.9,13.2c8.3,0,15.1,6.8,15.1,15.1H48.8C48.8,20,55.6,13.2,63.9,13.2
	z M18.7,114.7V38.3h20.1v12.6c-3.1,1.8-5.1,5.1-5.1,8.8c0,5.6,4.6,10.1,10.1,10.1S54,65.3,54,59.8c0-3.8-2.1-7.1-5.1-8.8V38.3h30.1
	v12.6c-3.1,1.8-5.1,5.1-5.1,8.8c0,5.6,4.6,10.1,10.1,10.1c5.5,0,10.1-4.6,10.1-10.1c0-3.8-2.1-7.1-5.1-8.8V38.3H109v76.4H18.7z"/>
</svg>
