<?xml version="1.0" encoding="utf-8"?>
<!-- Generator: Adobe Illustrator 21.0.0, SVG Export Plug-In . SVG Version: 6.00 Build 0)  -->
<svg version="1.1" id="图层_1" xmlns="http://www.w3.org/2000/svg" xmlns:xlink="http://www.w3.org/1999/xlink" x="0px" y="0px"
	 viewBox="0 0 128 128" style="enable-background:new 0 0 128 128;" xml:space="preserve">
<path d="M121.3,57.7c2.3-2.3,3.2-5.2,2.3-7.8c-0.9-2.7-3.2-4.5-6.5-4.9l-29.8-4.4c-1.1-0.2-2.9-1.5-3.4-2.5L70.7,10.9
	c-1.5-3-3.9-4.7-6.7-4.7c-2.8,0-5.3,1.7-6.7,4.7L44,38.1c-0.5,1-2.3,2.3-3.4,2.5l-29.8,4.4c-3.2,0.5-5.6,2.3-6.5,4.9
	c-0.9,2.7,0,5.5,2.3,7.8l21.6,21.2c0.8,0.8,1.5,2.9,1.3,4.1l-5.1,29.9c-0.6,3.3,0.4,6.1,2.7,7.7c1.2,0.9,2.5,1.3,4,1.3
	c1.3,0,2.8-0.4,4.2-1.1l26.6-14.1c0.9-0.5,3.2-0.5,4.2,0l26.6,14.1c2.9,1.5,5.9,1.5,8.1-0.2c2.3-1.6,3.3-4.5,2.7-7.7l-5.1-29.9
	c-0.2-1.1,0.5-3.3,1.3-4.1L121.3,57.7L121.3,57.7z"/>
</svg>
