<?xml version="1.0" encoding="utf-8"?>
<!-- Generator: Adobe Illustrator 21.0.0, SVG Export Plug-In . SVG Version: 6.00 Build 0)  -->
<svg version="1.1" id="图层_1" xmlns="http://www.w3.org/2000/svg" xmlns:xlink="http://www.w3.org/1999/xlink" x="0px" y="0px"
	 viewBox="0 0 128 128" style="enable-background:new 0 0 128 128;" xml:space="preserve">
<path d="M14.4,109.3l0-71.7h24l7.5-17.3c0.3-0.7,1.7-1.6,2.5-1.6h31.4c0.8,0,2.2,0.9,2.5,1.6l7.5,17.3l23.9,0.1l0,71.7L14.4,109.3
	L14.4,109.3z M113.6,27.2H96.5l-4.8-11c-2-4.5-7.1-7.9-12-7.9H48.3c-4.9,0-10.1,3.4-12,7.9l-4.8,11H14.4C8.7,27.2,4,31.9,4,37.6
	v71.6c0,5.8,4.7,10.5,10.4,10.5h99.1c5.8,0,10.4-4.7,10.4-10.5V37.6C124,31.9,119.3,27.2,113.6,27.2z M64,86.5
	c-8.6,0-15.7-7-15.7-15.7s7-15.7,15.7-15.7s15.7,7,15.7,15.7S72.6,86.5,64,86.5 M64,44.8c-14.4,0-26.1,11.7-26.1,26.1
	S49.6,96.9,64,96.9s26.1-11.7,26.1-26.1S78.4,44.8,64,44.8"/>
</svg>
