<?xml version="1.0" encoding="utf-8"?>
<!-- Generator: Adobe Illustrator 21.0.0, SVG Export Plug-In . SVG Version: 6.00 Build 0)  -->
<svg version="1.1" id="图层_1" xmlns="http://www.w3.org/2000/svg" xmlns:xlink="http://www.w3.org/1999/xlink" x="0px" y="0px"
	 viewBox="0 0 128 128" style="enable-background:new 0 0 128 128;" xml:space="preserve">
<path d="M122.7,44.5v-0.1c0-0.3-0.1-0.5-0.3-0.8l-10.1-25.3c-1.8-5.3-6.6-8.5-12.8-8.5H28.4c-6,0-10.6,3.1-12.3,8.3L5.3,43.9
	c0,0.1-0.1,0.4-0.1,0.6C4.4,47,4,49.4,4,52c0,8.9,4.9,16.9,12.6,21c3.1,1.8,7,2.6,11.1,2.6c7.1,0,13.6-3.1,18.1-8.5
	c4.5,5.2,11,8.4,18.1,8.5c7,0,13.5-3.1,18-8.5c4.5,5.4,11.1,8.5,18.3,8.5c4.4,0,8.1-0.9,11.4-2.7C119.3,68.8,124,60.8,124,52
	C123.9,49.4,123.5,46.9,122.7,44.5z M97.5,48.8H28.2c-2.4,0-4.4-1.9-4.4-4.4c0-2.4,1.9-4.4,4.4-4.4h69.3c2.4,0,4.4,1.9,4.4,4.4
	S99.9,48.8,97.5,48.8z M114.9,83.4c0-2.4-1.9-4.4-4.4-4.4c-0.5,0-0.9,0.1-1.3,0.2c-3.3,1.3-7.3,2-10.4,1.8c-6.9-0.4-12-1.8-17-6
	C77,79.2,70.6,81.6,64,81.6c-6.8,0-13.1-1.8-18.1-6c-5,4.3-11.4,6.4-18.1,6.4c-4.1,0-6.5-0.8-10.3-2.1c-0.1,0-0.3-0.1-0.4-0.1
	c-0.1-0.1-0.4-0.1-0.5-0.1c0,0-0.6-0.1-1-0.1c-2.4,0-4.4,2-4.4,4.4V107c0,6.1,5,11.1,11.1,11.1h81.4c6.1,0,11.1-5,11.1-11.1
	C114.9,107,114.9,83.4,114.9,83.4z"/>
</svg>
