<?xml version="1.0" encoding="utf-8"?>
<!-- Generator: Adobe Illustrator 21.0.0, SVG Export Plug-In . SVG Version: 6.00 Build 0)  -->
<svg version="1.1" id="图层_1" xmlns="http://www.w3.org/2000/svg" xmlns:xlink="http://www.w3.org/1999/xlink" x="0px" y="0px"
	 viewBox="0 0 128 128" style="enable-background:new 0 0 128 128;" xml:space="preserve">
<path d="M45.3,10.4h-31C8.6,10.4,4,15,4,20.7v31C4,57.4,8.6,62,14.3,62h31c5.7,0,10.3-4.6,10.3-10.3v-31C55.6,15,51,10.4,45.3,10.4
	 M121,28.9L99.1,7c-4-4-10.6-4-14.6,0l-3,3L62.6,28.9c-1.9,1.9-3,4.5-3,7.3c0,2.7,1.1,5.4,3,7.3l3,3l15.9,15.9l3,3
	c4,4,10.6,4,14.6,0l18.9-18.9l3-3C125,39.5,125,33,121,28.9 M45.3,72.4h-31C8.6,72.4,4,77,4,82.7v31c0,5.7,4.6,10.3,10.3,10.3h31
	c5.7,0,10.3-4.6,10.3-10.3v-31C55.6,77,51,72.4,45.3,72.4 M107.3,72.4h-31C70.6,72.4,66,77,66,82.7v31c0,5.7,4.6,10.3,10.3,10.3h31
	c5.7,0,10.3-4.6,10.3-10.3v-31C117.6,77,113,72.4,107.3,72.4"/>
</svg>
