<?xml version="1.0" encoding="utf-8"?>
<!-- Generator: Adobe Illustrator 21.0.0, SVG Export Plug-In . SVG Version: 6.00 Build 0)  -->
<svg version="1.1" id="图层_1" xmlns="http://www.w3.org/2000/svg" xmlns:xlink="http://www.w3.org/1999/xlink" x="0px" y="0px"
	 viewBox="0 0 128 128" style="enable-background:new 0 0 128 128;" xml:space="preserve">
<path d="M64,114c-27.6,0-50-22.4-50-50s22.4-50,50-50s50,22.4,50,50S91.6,114,64,114 M64,4C30.9,4,4,30.9,4,64s26.9,60,60,60
	s60-26.9,60-60S97.1,4,64,4 M69,63V34c0-2.8-2.2-5-5-5c-2.8,0-5,2.2-5,5v31.1c0,1.3,0.5,2.6,1.5,3.5l16.8,16.8c1.9,2,5.1,2,7,0
	c0,0,0,0,0,0c2-2,2-5.1,0-7.1L69,63z"/>
</svg>
