<?xml version="1.0" encoding="utf-8"?>
<!-- Generator: Adobe Illustrator 21.0.0, SVG Export Plug-In . SVG Version: 6.00 Build 0)  -->
<svg version="1.1" id="图层_1" xmlns="http://www.w3.org/2000/svg" xmlns:xlink="http://www.w3.org/1999/xlink" x="0px" y="0px"
	 viewBox="0 0 128 128" style="enable-background:new 0 0 128 128;" xml:space="preserve">
<path d="M84.1,110.8H30.5v0l13.5,0V92.2c0-0.1,0-0.2,0-0.4c0.2-10.9,9.1-19.7,20-19.7S83.8,81,84,91.8c0,0.1,0,0.2,0,0.4
	C84.1,92.2,84.1,110.8,84.1,110.8z M121.7,43.9l-12.7-8.3V19.6c0-2.8-2.2-5-5-5c-2.8,0-5,2.2-5,5v9.5L66.8,7.9
	C65.9,7.4,65,7.1,64,7.2c-1,0-1.9,0.2-2.8,0.7l-54.9,36c-2.3,1.5-3,4.6-1.4,6.9c1.5,2.3,4.6,3,6.9,1.4l2.3-1.5v61.5
	c0,4.7,4.2,8.5,9.5,8.5h81.1c5.2,0,9.5-3.8,9.5-8.5V50.9l2.2,1.4c2.3,1.5,5.4,0.9,6.9-1.4C124.7,48.5,124,45.4,121.7,43.9
	L121.7,43.9z"/>
</svg>
