<?xml version="1.0" encoding="utf-8"?>
<!-- Generator: Adobe Illustrator 21.0.0, SVG Export Plug-In . SVG Version: 6.00 Build 0)  -->
<svg version="1.1" id="图层_1" xmlns="http://www.w3.org/2000/svg" xmlns:xlink="http://www.w3.org/1999/xlink" x="0px" y="0px"
	 viewBox="0 0 128 128" style="enable-background:new 0 0 128 128;" xml:space="preserve">
<path d="M91.5,96.6c-2.3,0-4.2,1.6-4.8,3.7H50.4c-3.7,0-7.7,2.2-9.7,5.3l-5.4,5.1l0-2c0-0.8-0.2-1.6-0.6-2.3
	c-1.9-3.6-6.2-6.1-10.3-6.1h-7.9V44h1.7c2.8,0,5-2.2,5-5c0-2.8-2.2-5-5-5h-3.3c-4.6,0-8.3,3.9-8.3,8.7v58.9c0,4.8,3.7,8.7,8.4,8.7
	h9.5c0.3,0.1,0.6,0.2,0.8,0.3l0,7.2c0,1.1,0.4,2.2,1,3c1.6,2.1,3.9,3.3,6.4,3.2h0c2.3,0,4.5-1,6.1-2.9l9.2-8.8
	c0.3-0.3,0.7-0.9,1-1.3c0.4-0.4,0.9-0.7,1.4-0.8h37.8c3.1,0,6-1.8,7.4-4.7c0.6-0.8,0.9-1.9,0.9-2.9v-1.1
	C96.5,98.8,94.3,96.6,91.5,96.6 M111.5,70.2h-7.9c-2.5,0-5,1.1-7.1,2.6c-0.5,0.4-1,0.7-1.4,1.1c-0.7,0.7-1.3,1.5-1.8,2.4
	c-0.4,0.7-0.6,1.5-0.6,2.3l0,2l-5.4-5.1C87,75,86.5,74.5,86,74c-2.2-2.3-5.3-3.8-8.4-3.8H41.5V14h70C111.5,14,111.5,70.2,111.5,70.2
	z M120.7,9c-1.3-2.9-4.2-5-7.5-5H39.8c-3.3,0-6.2,2.1-7.5,5c-0.5,1.1-0.8,2.4-0.8,3.7v58.9c0,0.8,0.2,1.6,0.4,2.4
	c1,3.6,4.2,6.2,8,6.2h37.8c0.5,0.1,1,0.4,1.4,0.8c0.3,0.5,0.6,0.9,1,1.3l9.2,8.8C90.8,93,93,94,95.3,94h0c2.5,0,4.8-1.2,6.4-3.2
	c0.7-0.9,1-1.9,1-3l0-7.2c0.3-0.2,0.5-0.3,0.8-0.3h9.5c3.8,0,7-2.6,8-6.2c0.2-0.8,0.4-1.6,0.4-2.4V12.7
	C121.5,11.4,121.2,10.1,120.7,9z M64,34c-4.1,0-7.5,3.4-7.5,7.5c0,4.1,3.4,7.5,7.5,7.5c4.1,0,7.5-3.4,7.5-7.5
	C71.5,37.4,68.1,34,64,34 M89,34c-4.1,0-7.5,3.4-7.5,7.5c0,4.1,3.4,7.5,7.5,7.5c4.1,0,7.5-3.4,7.5-7.5S93.1,34,89,34"/>
</svg>
