<?xml version="1.0" encoding="utf-8"?>
<!-- Generator: Adobe Illustrator 21.0.0, SVG Export Plug-In . SVG Version: 6.00 Build 0)  -->
<svg version="1.1" id="图层_1" xmlns="http://www.w3.org/2000/svg" xmlns:xlink="http://www.w3.org/1999/xlink" x="0px" y="0px"
	 viewBox="0 0 128 128" style="enable-background:new 0 0 128 128;" xml:space="preserve">
<path d="M118.5,25.8H96.7V11.3c0-3.5-2.9-7.3-10.9-7.3H42.2c-8,0-10.9,3.8-10.9,7.3v14.6H9.5c-3,0-5.5,2.4-5.5,5.5s2.4,5.5,5.5,5.5
	h38.2l32.7,0v0h38.2c3,0,5.5-2.4,5.5-5.5S121.6,25.8,118.5,25.8z M42.2,53.1c0-3,2.4-5.5,5.5-5.5c3,0,5.5,2.4,5.5,5.5V89
	c0,3-2.4,5.5-5.5,5.5c-3,0-5.5-2.4-5.5-5.5V53.1z M74.9,53.1c0-3,2.4-5.5,5.5-5.5c3,0,5.5,2.4,5.5,5.5V89c0,3-2.4,5.5-5.5,5.5
	c-3,0-5.5-2.4-5.5-5.5V53.1z M80.4,45.1H14.9v68c0,3.5,1.7,6.6,4.3,8.6c1.8,1.4,4.1,2.3,6.6,2.3h76.4c2.5,0,4.8-0.9,6.6-2.3
	c2.6-2,4.3-5.1,4.3-8.6v-68H80.4z"/>
</svg>
