<?xml version="1.0" encoding="utf-8"?>
<!-- Generator: Adobe Illustrator 21.0.0, SVG Export Plug-In . SVG Version: 6.00 Build 0)  -->
<svg version="1.1" id="图层_1" xmlns="http://www.w3.org/2000/svg" xmlns:xlink="http://www.w3.org/1999/xlink" x="0px" y="0px"
	 viewBox="0 0 128 128" style="enable-background:new 0 0 128 128;" xml:space="preserve">
<path d="M64,114c-27.6,0-50-22.4-50-50s22.4-50,50-50s50,22.4,50,50S91.6,114,64,114 M64,4C30.9,4,4,30.9,4,64s26.9,60,60,60
	s60-26.9,60-60S97.1,4,64,4 M59,75V58.6l11.4,8L59,75z M81.9,62.3l-25-17.4c-2.3-1.6-5.4-1-7,1.3c-0.8,1.2-1.1,2.7-0.7,4.2
	c-0.1,0.4-0.2,0.8-0.2,1.2v30c0,0.6,0.1,1.2,0.4,1.8c-0.6,1.5-0.3,3.2,0.6,4.6c1.6,2.2,4.8,2.7,7,1.1l0,0l25-18.4
	c2.2-1.6,2.7-4.8,1.1-7C82.7,63,82.3,62.7,81.9,62.3z"/>
</svg>
