<?xml version="1.0" encoding="utf-8"?>
<!-- Generator: Adobe Illustrator 21.0.0, SVG Export Plug-In . SVG Version: 6.00 Build 0)  -->
<svg version="1.1" id="图层_1" xmlns="http://www.w3.org/2000/svg" xmlns:xlink="http://www.w3.org/1999/xlink" x="0px" y="0px"
	 viewBox="0 0 128 128" style="enable-background:new 0 0 128 128;" xml:space="preserve">
<path d="M91.8,118.1l-24.2-8c-1.1-0.3-2.3-0.5-3.7-0.5c-1.4,0-2.5,0.3-3.7,0.5l-24.2,8v-16.3c-1.9-1.1-3.9-2.3-5.5-3.6v20.3
	c0,3,2.5,5.5,5.5,5.5c0.5,0,1.1,0,1.6-0.2l24.2-8c0.5-0.3,1.1-0.3,1.6-0.3s1.1,0,1.6,0.3l24.2,8c0.5,0.2,1.1,0.2,1.6,0.2
	c3,0,5.5-2.5,5.5-5.5V98.3c-1.6,1.4-3.7,2.5-5.5,3.6v16.4C91.2,118.1,91.8,118.1,91.8,118.1z M64,4C36.5,4,14,26.5,14,53.9
	s22.5,49.9,50,49.9s50-22.5,50-49.9S91.5,4,64,4z M64,98.3c-24.4,0-44.5-20-44.5-44.4S39.6,9.5,64,9.5s44.5,20,44.5,44.4
	S88.4,98.3,64,98.3z M64,15.1c-21.4,0-38.9,17.5-38.9,38.7c0,21.4,17.5,38.9,38.9,38.9s38.9-17.5,38.9-38.8
	C102.9,32.5,85.4,15.1,64,15.1z M64,87.1c-18.4,0-33.4-15-33.4-33.3s15-33.3,33.4-33.3s33.4,15,33.4,33.3S82.4,87.1,64,87.1z"/>
<path d="M49,72.4V33.1h14.9c3,0,5.4,0.4,7.3,1.3c1.9,0.8,3.3,2,4.3,3.6c1,1.6,1.5,3.4,1.5,5.3c0,1.6-0.5,3.2-1.4,4.7
	c-0.9,1.5-2.3,2.6-4.2,3.6c2.4,0.7,4.3,1.9,5.5,3.6c1.3,1.6,1.9,3.6,1.9,6c0,1.9-0.4,3.5-1.1,5.1C77,68,76,69.1,74.8,70
	c-1.1,0.9-2.6,1.5-4.3,2c-1.8,0.5-3.9,0.6-6.4,0.6H49L49,72.4z M54.3,49.6h8.6c2.3,0,4-0.1,5-0.5c1.4-0.4,2.4-1,3-2s1-2,1-3.5
	c0-1.3-0.4-2.5-1-3.5c-0.6-1-1.5-1.6-2.6-2c-1.1-0.4-3.1-0.5-6-0.5h-7.9C54.3,37.6,54.3,49.6,54.3,49.6z M54.3,67.8h9.8
	c1.6,0,2.9,0,3.5-0.3c1.3-0.2,2.3-0.6,3-1.1c0.8-0.5,1.5-1.3,2-2.3c0.5-1,0.8-2.1,0.8-3.4c0-1.5-0.4-2.8-1.1-3.9
	c-0.8-1.1-1.8-1.9-3.1-2.3c-1.4-0.5-3.3-0.6-5.8-0.6h-9.2v13.8H54.3z"/>
</svg>
