<?xml version="1.0" encoding="utf-8"?>
<!-- Generator: Adobe Illustrator 21.0.0, SVG Export Plug-In . SVG Version: 6.00 Build 0)  -->
<svg version="1.1" id="图层_1" xmlns="http://www.w3.org/2000/svg" xmlns:xlink="http://www.w3.org/1999/xlink" x="0px" y="0px"
	 viewBox="0 0 128 128" style="enable-background:new 0 0 128 128;" xml:space="preserve">
<path d="M114,104l-100,0l0-80l100,0L114,104L114,104 M114,14H14C8.5,14,4,18.5,4,24V104c0,5.5,4.5,10,10,10h100c5.5,0,10-4.5,10-10
	V24C124,18.5,119.5,14,114,14 M29,74h20c2.8,0,5-2.2,5-5s-2.2-5-5-5H29c-2.8,0-5,2.2-5,5S26.2,74,29,74 M69,84H29c-2.8,0-5,2.2-5,5
	s2.2,5,5,5h40c2.8,0,5-2.2,5-5S71.8,84,69,84 M64,34v40h40V34H64z M94,64H74V44h20V64z"/>
</svg>
