<?xml version="1.0" encoding="utf-8"?>
<!-- Generator: Adobe Illustrator 21.0.0, SVG Export Plug-In . SVG Version: 6.00 Build 0)  -->
<svg version="1.1" id="图层_1" xmlns="http://www.w3.org/2000/svg" xmlns:xlink="http://www.w3.org/1999/xlink" x="0px" y="0px"
	 viewBox="0 0 128 128" style="enable-background:new 0 0 128 128;" xml:space="preserve">
<path d="M69,74c0,2.8-2.2,5-5,5c-2.8,0-5-2.2-5-5V34c0-2.8,2.2-5,5-5c2.8,0,5,2.2,5,5V74z M64,99c-2.8,0-5-2.2-5-5s2.2-5,5-5
	c2.8,0,5,2.2,5,5S66.8,99,64,99z M64,4C30.9,4,4,30.9,4,64s26.9,60,60,60s60-26.9,60-60S97.1,4,64,4z"/>
</svg>
