<?xml version="1.0" encoding="utf-8"?>
<!-- Generator: Adobe Illustrator 21.0.0, SVG Export Plug-In . SVG Version: 6.00 Build 0)  -->
<svg version="1.1" id="图层_1" xmlns="http://www.w3.org/2000/svg" xmlns:xlink="http://www.w3.org/1999/xlink" x="0px" y="0px"
	 viewBox="0 0 128 128" style="enable-background:new 0 0 128 128;" xml:space="preserve">
<path d="M82,70.5L57,88.9c-2.2,1.6-5.4,1.2-7-1.1c-0.9-1.3-1.2-3-0.6-4.5c-0.2-0.6-0.3-1.2-0.4-1.8v-30c0-0.4,0.1-0.8,0.2-1.2
	c-0.4-1.4-0.2-2.9,0.7-4.2c1.6-2.3,4.7-2.8,7-1.2c0,0,0,0,0,0l25,17.4c2.3,1.6,2.8,4.7,1.2,7C82.8,69.8,82.4,70.2,82,70.5 M64,4
	C30.9,4,4,30.9,4,64c0,33.1,26.9,60,60,60c33.1,0,60-26.9,60-60C124,30.9,97.1,4,64,4"/>
</svg>
