<?xml version="1.0" encoding="utf-8"?>
<!-- Generator: Adobe Illustrator 21.0.0, SVG Export Plug-In . SVG Version: 6.00 Build 0)  -->
<svg version="1.1" id="图层_1" xmlns="http://www.w3.org/2000/svg" xmlns:xlink="http://www.w3.org/1999/xlink" x="0px" y="0px"
	 viewBox="0 0 128 128" style="enable-background:new 0 0 128 128;" xml:space="preserve">
<path d="M113.1,99.8v13.3l-69.5,0l0,0l-15.4,0l0.2-0.2L85,58.8l28.1,25.6L113.1,99.8L113.1,99.8z M47.6,31.3c9,0,16.4,7.3,16.4,16.4
	S56.7,64,47.6,64c-9,0-16.4-7.3-16.4-16.4S38.6,31.3,47.6,31.3z M113.1,4H14.9C8.9,4,4,8.9,4,14.9v98.3c0,6,4.9,10.9,10.9,10.9h98.3
	c6,0,10.8-4.9,10.9-10.9V14.9C124,8.9,119.1,4,113.1,4z"/>
</svg>
