<?xml version="1.0" encoding="utf-8"?>
<!-- Generator: Adobe Illustrator 21.0.0, SVG Export Plug-In . SVG Version: 6.00 Build 0)  -->
<svg version="1.1" id="图层_1" xmlns="http://www.w3.org/2000/svg" xmlns:xlink="http://www.w3.org/1999/xlink" x="0px" y="0px"
	 viewBox="0 0 128 128" style="enable-background:new 0 0 128 128;" xml:space="preserve">
<path d="M69,74.9v2.4c0,2.8-2.2,5-5,5c-2.8,0-5-2.2-5-5v-5.8c0-2.3,1.6-4.2,3.8-4.8C74,62,74,55.1,74,54.8l0-7.7
	c0-4.5-4.5-8.1-10-8.1c-5.5,0-10,3.6-10,8.1v2.4c0,2.8-2.2,5-5,5s-5-2.2-5-5v-2.4c0-10,9-18.1,20-18.1c11,0,20,8.1,20,18.1v7.4
	C84,54.7,84.7,67.1,69,74.9 M64,99c-2.8,0-5-2.2-5-5s2.2-5,5-5c2.8,0,5,2.2,5,5S66.8,99,64,99 M64,4C30.9,4,4,30.9,4,64
	c0,33.1,26.9,60,60,60s60-26.9,60-60C124,30.9,97.1,4,64,4"/>
</svg>
