<?xml version="1.0" encoding="utf-8"?>
<!-- Generator: Adobe Illustrator 21.0.0, SVG Export Plug-In . SVG Version: 6.00 Build 0)  -->
<svg version="1.1" id="图层_1" xmlns="http://www.w3.org/2000/svg" xmlns:xlink="http://www.w3.org/1999/xlink" x="0px" y="0px"
	 viewBox="0 0 128 128" style="enable-background:new 0 0 128 128;" xml:space="preserve">
<path d="M80.5,59c1.5,1.4,1.5,3.6,0,4.9c0,0,0,0,0,0l-11,10l0,0h11.1c2.1,0,3.8,1.6,3.8,3.5c0,1.9-1.7,3.5-3.8,3.5H67.9v8h12.6
	c2.1,0,3.8,1.6,3.8,3.5c0,1.9-1.7,3.5-3.8,3.5H67.9v3c0,1.9-1.7,3.5-3.8,3.5c-2.1,0-3.9-1.6-3.9-3.5c0,0,0,0,0,0v-3H47.5
	c-2.1,0-3.9-1.6-3.9-3.5s1.7-3.5,3.8-3.5c0,0,0,0,0,0h12.7v-8H47.5c-2.1,0-3.9-1.6-3.9-3.5s1.7-3.5,3.8-3.5c0,0,0,0,0,0h11.1l0,0
	l-11-10c-1.5-1.4-1.5-3.6,0-5c1.5-1.4,3.9-1.4,5.4,0l11,10l0,0l0,0l11-10C76.5,57.7,79,57.7,80.5,59C80.5,59,80.5,59,80.5,59
	 M64,47.8c-2.6,0-5.1-0.4-7.3-1.3L9,27.2V114c0,5.5,4.9,10,11,10H108c6.1,0,11-4.5,11-10V26.9L71.2,46.5
	C69.2,47.4,66.6,47.8,64,47.8 M108,4H20C13.9,4,9,8.5,9,14v2.3l52.2,21.1c1.4,0.5,4.2,0.5,5.6,0L119,16v-2C119,8.5,114.1,4,108,4"/>
</svg>
