<?xml version="1.0" encoding="utf-8"?>
<!-- Generator: Adobe Illustrator 21.0.0, SVG Export Plug-In . SVG Version: 6.00 Build 0)  -->
<svg version="1.1" id="图层_1" xmlns="http://www.w3.org/2000/svg" xmlns:xlink="http://www.w3.org/1999/xlink" x="0px" y="0px"
	 viewBox="0 0 128 128" style="enable-background:new 0 0 128 128;" xml:space="preserve">
<path d="M46.5,71l-31.6,31.6V80.3c0-3-2.4-5.5-5.5-5.5S4,77.3,4,80.3v32.8c0,0.6,0.1,1.2,0.2,1.7c-0.3,1.7,0.2,3.5,1.4,4.8
	c0.4,0.4,0.9,0.6,1.3,0.9c2,2.1,4.8,3.5,7.9,3.5h32.8c3,0,5.5-2.4,5.5-5.5c0-3-2.4-5.5-5.5-5.5l-27.9,0l34.4-34.4
	c2.1-2.1,2.1-5.6,0-7.7C52.1,68.9,48.6,68.9,46.5,71 M113.1,4H80.3c-3,0-5.5,2.4-5.5,5.5s2.4,5.5,5.5,5.5l25,0L71,49.2
	c-2.1,2.1-2.1,5.6,0,7.7c2.1,2.1,5.6,2.1,7.7,0l34.4-34.4v25.1c0,3,2.4,5.5,5.5,5.5c3,0,5.5-2.4,5.5-5.5V14.9
	C124,8.9,119.1,4,113.1,4"/>
</svg>
