<?xml version="1.0" encoding="utf-8"?>
<!-- Generator: Adobe Illustrator 21.0.0, SVG Export Plug-In . SVG Version: 6.00 Build 0)  -->
<svg version="1.1" id="图层_1" xmlns="http://www.w3.org/2000/svg" xmlns:xlink="http://www.w3.org/1999/xlink" x="0px" y="0px"
	 viewBox="0 0 128 128" style="enable-background:new 0 0 128 128;" xml:space="preserve">
<path d="M92.7,42.2H54.6c-3,0-5.5-2.4-5.5-5.5c0-3,2.4-5.5,5.5-5.5h38.2c3,0,5.5,2.4,5.5,5.5C98.2,39.7,95.8,42.2,92.7,42.2
	 M92.7,69.5H54.6c-3,0-5.5-2.4-5.5-5.5c0-3,2.4-5.5,5.5-5.5h38.2c3,0,5.5,2.4,5.5,5.5C98.2,67,95.8,69.5,92.7,69.5 M92.7,96.7H54.6
	c-3,0-5.5-2.4-5.5-5.5s2.4-5.5,5.5-5.5h38.2c3,0,5.5,2.4,5.5,5.5S95.8,96.7,92.7,96.7 M36.7,42.2c-3,0-5.5-2.4-5.5-5.5
	c0-3,2.4-5.5,5.5-5.5c3,0,5.5,2.4,5.5,5.5C42.2,39.7,39.7,42.2,36.7,42.2 M36.7,69.5c-3-0.1-5.3-2.7-5.2-5.7
	c0.1-2.8,2.4-5.1,5.2-5.2c3,0,5.5,2.4,5.5,5.5C42.2,67,39.7,69.5,36.7,69.5 M36.7,96.7c-3-0.1-5.3-2.7-5.2-5.7
	c0.1-2.8,2.4-5.1,5.2-5.2c3,0,5.5,2.4,5.5,5.5S39.7,96.7,36.7,96.7 M113.1,4H14.9C8.9,4,4,8.9,4,14.9v98.3c0,6,4.9,10.9,10.9,10.9
	h98.3c6,0,10.9-4.9,10.9-10.9V14.9C124,8.9,119.1,4,113.1,4"/>
</svg>
