<?xml version="1.0" encoding="utf-8"?>
<!-- Generator: Adobe Illustrator 21.0.0, SVG Export Plug-In . SVG Version: 6.00 Build 0)  -->
<svg version="1.1" id="图层_1" xmlns="http://www.w3.org/2000/svg" xmlns:xlink="http://www.w3.org/1999/xlink" x="0px" y="0px"
	 viewBox="0 0 128 128" style="enable-background:new 0 0 128 128;" xml:space="preserve">
<path d="M104.1,110.8l-20,0V92.2c0-11.1-9-20-20-20c-11,0-20,9-20,20v18.6l-20,0V44.3l40-26.2l40.1,26.3V110.8z M74.1,110.8l-20,0
	V92.2c0-5.5,4.5-10,10-10s10,4.5,10,10C74.1,92.2,74.1,110.8,74.1,110.8z M121.7,43.9l-12.7-8.3V19.6c0-2.8-2.2-5-5-5
	c-2.8,0-5,2.2-5,5v9.5L66.8,7.9C65.9,7.4,65,7.1,64,7.2c-1,0-1.9,0.2-2.8,0.7l-54.9,36c-2.3,1.5-3,4.6-1.4,6.9
	c1.5,2.3,4.6,3,6.9,1.4l2.3-1.5v61.5c0,4.7,4.3,8.5,9.5,8.5h81.1c5.2,0,9.5-3.8,9.5-8.5V50.9l2.2,1.4c2.3,1.5,5.4,0.9,6.9-1.4
	C124.7,48.5,124,45.4,121.7,43.9C121.7,43.9,121.7,43.9,121.7,43.9z"/>
</svg>
