<?xml version="1.0" encoding="utf-8"?>
<!-- Generator: Adobe Illustrator 21.0.0, SVG Export Plug-In . SVG Version: 6.00 Build 0)  -->
<svg version="1.1" id="图层_1" xmlns="http://www.w3.org/2000/svg" xmlns:xlink="http://www.w3.org/1999/xlink" x="0px" y="0px"
	 viewBox="0 0 128 128" style="enable-background:new 0 0 128 128;" xml:space="preserve">
<path d="M122.2,17.8c-2-2.2-5.3-2.3-7.5-0.4c-0.2,0.2-0.4,0.4-0.6,0.6L48,96.3L13.8,56.4c-1.8-2.3-5.2-2.6-7.5-0.8
	C6.2,55.8,6,56,5.8,56.2c-2.3,2.6-2.4,6.4-0.2,9L43.9,110c1.1,1.3,2.6,2,4.1,2h0c1.6,0,3.1-0.8,4.1-2l70.3-83.2
	C124.6,24.2,124.5,20.2,122.2,17.8"/>
</svg>
