<?xml version="1.0" encoding="utf-8"?>
<!-- Generator: Adobe Illustrator 21.0.0, SVG Export Plug-In . SVG Version: 6.00 Build 0)  -->
<svg version="1.1" id="图层_1" xmlns="http://www.w3.org/2000/svg" xmlns:xlink="http://www.w3.org/1999/xlink" x="0px" y="0px"
	 viewBox="0 0 128 128" style="enable-background:new 0 0 128 128;" xml:space="preserve">
<path d="M88.1,57.8l-27.4,30c-0.9,1-2.3,1.6-3.7,1.6h0c-1.4,0-2.8-0.6-3.7-1.7l-13.4-15c-1.8-2.1-1.7-5.2,0.4-7.1
	c2.1-1.8,5.2-1.7,7.1,0.4L57,77L80.7,51c1.9-2,5-2.2,7.1-0.3C89.8,52.6,90,55.8,88.1,57.8 M64,4C30.9,4,4,30.9,4,64
	c0,33.1,26.9,60,60,60c33.1,0,60-26.9,60-60C124,30.9,97.1,4,64,4"/>
</svg>
