<?xml version="1.0" encoding="utf-8"?>
<!-- Generator: Adobe Illustrator 21.0.0, SVG Export Plug-In . SVG Version: 6.00 Build 0)  -->
<svg version="1.1" id="图层_1" xmlns="http://www.w3.org/2000/svg" xmlns:xlink="http://www.w3.org/1999/xlink" x="0px" y="0px"
	 viewBox="0 0 128 128" style="enable-background:new 0 0 128 128;" xml:space="preserve">
<path d="M112.5,61c0-4.4-2.2-8.5-5.9-11.1c-1.5-0.9-3.4-0.6-4.5,0.8c-1,1.5-0.6,3.4,0.9,4.4c1.9,1.4,3.2,3.6,3.2,5.9
	c0,2.3-1.2,4.5-3.2,5.9c-1.5,0.9-1.8,2.9-0.9,4.4c0.6,0.8,1.6,1.4,2.7,1.4c0.6,0,1.3-0.2,1.8-0.5C110.2,69.5,112.5,65.4,112.5,61z
	 M112.4,39.3c-1.5-0.9-3.4-0.6-4.5,0.8c-1,1.5-0.6,3.4,0.9,4.4c5.6,3.8,8.8,10,8.8,16.5c0,6.6-3.3,12.8-8.8,16.5
	c-1.5,0.9-1.8,2.9-0.9,4.4c0.6,0.8,1.6,1.4,2.7,1.4c0.6,0,1.3-0.2,1.8-0.5c7.3-5,11.6-13.1,11.6-21.8S119.7,44.2,112.4,39.3z
	 M26.3,55.7c1.5-0.9,1.8-2.9,0.9-4.4c-1-1.5-3-1.8-4.5-0.8c-3.7,2.6-6.1,6.8-6.1,11.4s2.2,8.8,6.1,11.4c0.5,0.4,1.2,0.5,1.8,0.5
	c1.1,0,2-0.5,2.7-1.4c1-1.5,0.6-3.4-0.9-4.4c-2.1-1.4-3.3-3.7-3.3-6.2C23,59.3,24.2,57,26.3,55.7z M19.6,79
	c-5.8-3.9-9.2-10.3-9.2-17.1s3.4-13.2,9.2-17.1c1.5-0.9,1.8-2.9,0.9-4.4c-1-1.5-3-1.8-4.5-0.8c-7.5,5-12,13.5-12,22.4
	s4.5,17.2,11.9,22.4c0.5,0.4,1.2,0.5,1.8,0.5c1.1,0,2-0.5,2.7-1.4C21.5,81.9,21,79.9,19.6,79z M81.7,87.8l-43.1-7.7l10.9-58.7
	l43.1,7.7L81.7,87.8L81.7,87.8z M60.3,101.1l-6.4-1.1c-1.8-0.3-2.9-2-2.6-3.7c0.3-1.7,2-2.8,3.7-2.5l6.4,1.1c1.8,0.3,2.9,2,2.6,3.7
	C63.7,100.3,62,101.4,60.3,101.1z M94.6,22.1l-44.5-7.9c-3.5-0.6-6.9,1.6-7.5,5.1L27.9,98.6c-0.6,3.4,1.7,6.7,5.2,7.4l44.5,7.9
	c3.5,0.6,6.9-1.6,7.5-5.1l14.7-79.4C100.5,26,98.2,22.7,94.6,22.1z"/>
</svg>
