<?xml version="1.0" encoding="utf-8"?>
<!-- Generator: Adobe Illustrator 21.0.0, SVG Export Plug-In . SVG Version: 6.00 Build 0)  -->
<svg version="1.1" id="图层_1" xmlns="http://www.w3.org/2000/svg" xmlns:xlink="http://www.w3.org/1999/xlink" x="0px" y="0px"
	 viewBox="0 0 128 128" style="enable-background:new 0 0 128 128;" xml:space="preserve">
<path d="M113.7,55.2l-12,55.3c-0.1,0.4-0.8,1-1.2,1l-61,0v-60H40v-0.2C54.2,49.8,64.9,38,65,24v-2.5c0.1-2.8,2.5-4.9,5.3-4.8
	c2.6,0.1,4.7,2.2,4.9,4.8h0.3c1,5.1,1.9,16.6-3.8,21.9c-2.1,1.9-2.2,5-0.3,7.1c1,1,2.3,1.6,3.7,1.6c0.7,0,1.5-0.2,2.1-0.5h33.4
	c1.2,0,2.1,0.4,2.7,1C113.8,53.2,114,54.1,113.7,55.2z M14.2,51.5h15.2v60H14.2L14.2,51.5z M121.2,46.2c-2.5-3-6.3-4.7-10.6-4.7
	H84.4c3.7-10.5,0.9-22.7,0.7-23.3c-0.2-0.6-0.4-1.2-0.8-1.7c-2.1-6-7.9-10-14.3-10c-8.1,0-14.7,6.2-15.2,14.2h-0.1V24
	c0,9.7-8,17.5-17.8,17.5H14.2C8.6,41.5,4,46,4,51.5v59.9c0,5.5,4.5,10,10.1,10h86.4c5.1,0,10-3.9,11.1-8.9l12-55.3
	C124.5,53.3,123.6,49.2,121.2,46.2z"/>
</svg>
