<?xml version="1.0" encoding="utf-8"?>
<!-- Generator: Adobe Illustrator 21.0.0, SVG Export Plug-In . SVG Version: 6.00 Build 0)  -->
<svg version="1.1" id="图层_1" xmlns="http://www.w3.org/2000/svg" xmlns:xlink="http://www.w3.org/1999/xlink" x="0px" y="0px"
	 viewBox="0 0 128 128" style="enable-background:new 0 0 128 128;" xml:space="preserve">
<path d="M105.1,26.3c-2.4-1.6-5.6-0.9-7.2,1.5c0,0,0,0,0,0.1c-1.6,2.5-0.9,5.7,1.5,7.4c0.6,0.4,14.1,9.7,14.1,33
	c0,23.3-13,32.7-13.5,33c-2.4,1.7-3.1,5-1.5,7.4c1.6,2.4,4.8,3.1,7.3,1.5c0,0,0,0,0,0c0.7-0.5,18.2-12.6,18.2-41.9
	C124,38.9,105.8,26.8,105.1,26.3 M88.6,42c-2.6-1.2-5.7-0.1-6.9,2.5c0,0,0,0,0,0c-1.3,2.6-0.2,5.8,2.4,7.1c0.3,0.2,8.2,4.3,8.2,16.2
	c0,12.7-7.4,16.9-7.6,17c-2.6,1.3-3.7,4.5-2.4,7.2c1.3,2.6,4.4,3.7,7.1,2.4c0,0,0,0,0,0c0.6-0.3,13.5-7.1,13.5-26.6
	C102.9,49,89.2,42.3,88.6,42 M64.6,106.6l-11-10l-18-16.4c-1-0.9-2.3-1.4-3.7-1.4l-16.8,0L15,43.4h22.1c1.7,0.3,3.4-0.2,4.7-1.3
	l11.8-10.7l11-10L64.6,106.6L64.6,106.6z M71.2,6.6c-1.4-0.6-4.9-1.6-8.8,2l-8.8,8L36.1,32.4H15c-6.1,0-11,4.9-11,11v35.4
	c0,6.1,4.9,11,11,11h14.7l23.9,21.7l8.8,8c2.2,2,4.3,2.6,6,2.6c1.3,0,2.3-0.3,2.9-0.6c1.3-0.6,4.5-2.5,4.5-7.8V14.4
	C75.6,10.7,74,7.8,71.2,6.6z"/>
</svg>
