<?xml version="1.0" encoding="utf-8"?>
<!-- Generator: Adobe Illustrator 21.0.0, SVG Export Plug-In . SVG Version: 6.00 Build 0)  -->
<svg version="1.1" id="图层_1" xmlns="http://www.w3.org/2000/svg" xmlns:xlink="http://www.w3.org/1999/xlink" x="0px" y="0px"
	 viewBox="0 0 128 128" style="enable-background:new 0 0 128 128;" xml:space="preserve">
<path d="M121,33.5c0,0-1-1.3-1.4-1.6c-2.5-2-4.2-2.9-7.5-4.7l-1.2-0.7L93.7,17l-17.9-10c-3.4-1.8-7.4-3-11.8-3s-8.4,1-12,3L33.9,17
	l-16.5,9l-4.9,2.7C10,30,8.1,31.9,6.7,34.2C5,36.7,4,39.5,4,42.7v41.9c0,5.9,3.4,11,8.4,13.8l5.1,2.7l38.1,20.7
	c2.4,1.3,5.3,2.1,8.5,2.1c3.1,0,6-0.8,8.6-2.2l38.3-20.8l4.7-2.5c5.1-2.8,8.5-7.9,8.5-13.9V42.6C124,39.2,122.9,36.1,121,33.5z
	 M26.9,32.6l23.5-12.4l5.8-3.1c2.4-1.3,4.5-2.2,7.6-2.2c3.1,0,6.9,1.8,9.4,3.2l4,2L100.5,33c1.2,0.9,1.2,0.9,1,1.4L64,53.8L25.5,34
	C25.2,33.6,26.4,32.8,26.9,32.6L26.9,32.6z M55.4,109.2L19.7,89.4l-0.1-0.1c-3.1-1.9-5.1-3.6-5.1-7.4V42.5c0-0.2-0.2-1.1,0.1-1.9
	c0.1-0.1,0.2-0.2,0.3-0.1l4.4,2.3l11.4,6l-0.1,15.5c0,1,0.6,2,1.5,2.5l6.9,3.7c1.1,0.6,2.4-0.2,2.4-1.5V54.2l16.8,8.6l-0.1,47.8
	C56.2,109.9,56.3,109.8,55.4,109.2z M112.9,40.3c1,0.3,0.6,0.8,0.6,2.2V82c0,4-1.7,5.7-4.7,7.5l-1,0.5l-35.5,19.4
	c-0.9,0.5-0.6,0.5-2.4,1.4c0-12.1-0.1-36.7-0.1-47.8 M14,40l51.9,26.9 M7.8,32l-1.9,3.1c0.2-0.3,0.5-0.6,0.7-1l0.3-0.5
	C6.9,33.7,7.8,32,7.8,32z"/>
</svg>
