<?xml version="1.0" encoding="utf-8"?>
<!-- Generator: Adobe Illustrator 21.0.0, SVG Export Plug-In . SVG Version: 6.00 Build 0)  -->
<svg version="1.1" id="图层_1" xmlns="http://www.w3.org/2000/svg" xmlns:xlink="http://www.w3.org/1999/xlink" x="0px" y="0px"
	 viewBox="0 0 128 128" style="enable-background:new 0 0 128 128;" xml:space="preserve">
<path d="M103.3,35.1L74.4,64.1l11.5,0c3,0,5.5,2.4,5.5,5.5S88.9,75,85.9,75H64c-6,0-10.9-4.9-10.9-10.9V42.2c0-3,2.4-5.5,5.5-5.5
	c3,0,5.5,2.4,5.5,5.5V59l31.6-31.6c2.1-2.1,5.6-2.1,7.7,0C105.4,29.5,105.4,33,103.3,35.1C103.3,35.1,103.3,35.1,103.3,35.1z
	 M36.7,102.2v10.9H14.9V91.3h21.8V102.2z M113.1,4H14.9C8.9,4,4,8.9,4,14.9v98.3c0,6,4.9,10.9,10.9,10.9h98.3
	c6,0,10.8-4.9,10.9-10.9V14.9C124,8.9,119.1,4,113.1,4z"/>
</svg>
