<?xml version="1.0" encoding="utf-8"?>
<!-- Generator: Adobe Illustrator 21.0.0, SVG Export Plug-In . SVG Version: 6.00 Build 0)  -->
<svg version="1.1" id="图层_1" xmlns="http://www.w3.org/2000/svg" xmlns:xlink="http://www.w3.org/1999/xlink" x="0px" y="0px"
	 viewBox="0 0 128 128" style="enable-background:new 0 0 128 128;" xml:space="preserve">
<path d="M17.4,113.6l0-94h15.6v5.2c0,5.8,4.6,10.5,10.3,10.5h41.5c5.7,0,10.4-4.7,10.3-10.5v-5.2l15.5,0l0,94L17.4,113.6z
	 M84.7,14.5l0,10.4l-41.5-0.1V14.5l0-0.1L84.7,14.5z M110.6,9.2h-17C91.8,6.1,88.6,4,84.7,4H43.3c-3.8,0-7.1,2.1-8.9,5.2h-17
	C11.6,9.2,7,13.9,7,19.6v94c0,5.7,4.6,10.4,10.3,10.4h93.4c5.7,0,10.3-4.7,10.3-10.4v-94C121,13.9,116.3,9.2,110.6,9.2z M81.3,53.1
	l-24.6,27L46.7,68.8c-1.9-2.1-5.2-2.3-7.3-0.4c-2.1,1.9-2.3,5.2-0.4,7.4l13.9,15.7c1,1.1,2.4,1.7,3.8,1.7h0c1.5,0,2.8-0.6,3.8-1.7
	L89,60.1c1.9-2.1,1.8-5.4-0.3-7.4C86.5,50.8,83.3,51,81.3,53.1L81.3,53.1"/>
</svg>
