<?xml version="1.0" encoding="utf-8"?>
<!-- Generator: Adobe Illustrator 21.0.0, SVG Export Plug-In . SVG Version: 6.00 Build 0)  -->
<svg version="1.1" id="图层_1" xmlns="http://www.w3.org/2000/svg" xmlns:xlink="http://www.w3.org/1999/xlink" x="0px" y="0px"
	 viewBox="0 0 128 128" style="enable-background:new 0 0 128 128;" xml:space="preserve">
<path d="M108.6,61.6l-44.4,45.9L19.7,61.9C16,57.3,14,51.6,14,45.8c0-13.9,11.2-25.3,25-25.3c8.4,0,16.2,4.2,20.8,11.3l4.2,6.3
	l4.2-6.3c4.6-7,12.4-11.3,20.8-11.3c13.8,0,25,11.3,25,25.3C114,51.7,112,57.4,108.6,61.6 M89,10.5c-9.4,0-18.4,3.8-25,10.6
	c-6.6-6.8-15.6-10.6-25-10.6c-19.3,0-35,15.8-35,35.3c0,8.2,2.8,16.1,8.3,22.7L57,114.5c1.8,1.9,4.4,3,7,3c2.7,0,5.2-1.1,7-3
	l45-46.3c5.2-6.3,8-14.2,8-22.4C124,26.4,108.3,10.5,89,10.5"/>
</svg>
