<?xml version="1.0" encoding="utf-8"?>
<!-- Generator: Adobe Illustrator 21.0.0, SVG Export Plug-In . SVG Version: 6.00 Build 0)  -->
<svg version="1.1" id="图层_1" xmlns="http://www.w3.org/2000/svg" xmlns:xlink="http://www.w3.org/1999/xlink" x="0px" y="0px"
	 viewBox="0 0 128 128" style="enable-background:new 0 0 128 128;" xml:space="preserve">
<path d="M84.9,48h-40c-2.8,0-5-2.2-5-5c0-2.8,2.2-5,5-5h40c2.8,0,5,2.2,5,5C89.9,45.8,87.6,48,84.9,48 M84.9,68h-40
	c-2.8,0-5-2.2-5-5c0-2.8,2.2-5,5-5h40c2.8,0,5,2.2,5,5C89.9,65.8,87.6,68,84.9,68 M84.9,88h-40c-2.8,0-5-2.2-5-5c0-2.8,2.2-5,5-5h40
	c2.8,0,5,2.2,5,5C89.9,85.8,87.6,88,84.9,88 M64,4C30.9,4,4,30.9,4,64c0,33.1,26.9,60,60,60c33.1,0,60-26.9,60-60
	C124,30.9,97.1,4,64,4"/>
</svg>
