<?xml version="1.0" encoding="utf-8"?>
<!-- Generator: Adobe Illustrator 21.0.0, SVG Export Plug-In . SVG Version: 6.00 Build 0)  -->
<svg version="1.1" id="图层_1" xmlns="http://www.w3.org/2000/svg" xmlns:xlink="http://www.w3.org/1999/xlink" x="0px" y="0px"
	 viewBox="0 0 128 128" style="enable-background:new 0 0 128 128;" xml:space="preserve">
<path d="M114,26.5H94V13.2c0-5.1-4.5-6.7-10-6.7H44c-5.5,0-10,1.5-10,6.7v13.3H14c-5.6,0-10,4.5-10,10v75c0,5.5,4.5,10,10,10h100
	c5.6,0,10-4.5,10-10v-75C124,31,119.5,26.5,114,26.5z M44,16.5h40v10H44V16.5z M14,36.5c0,0,100,0,100,0c0,0,0,8.7,0,20.2
	c-0.4-0.1-0.8-0.2-1.2-0.2H14c0,0,0,0,0,0C14,45.1,14,36.5,14,36.5z M72.6,66.5c-1.7,3-4.9,5-8.6,5s-6.9-2-8.6-5H72.6z M114,111.5
	c0,0-100,0-100,0c0,0,0-24.1,0-45c0,0,0,0,0,0h30.7c2.2,8.6,10,15,19.3,15s17.1-6.4,19.3-15h29.5c0.4,0,0.8-0.1,1.2-0.2
	C114,87.2,114,111.5,114,111.5z"/>
</svg>
