<?xml version="1.0" encoding="utf-8"?>
<!-- Generator: Adobe Illustrator 21.0.0, SVG Export Plug-In . SVG Version: 6.00 Build 0)  -->
<svg version="1.1" id="图层_1" xmlns="http://www.w3.org/2000/svg" xmlns:xlink="http://www.w3.org/1999/xlink" x="0px" y="0px"
	 viewBox="0 0 128 128" style="enable-background:new 0 0 128 128;" xml:space="preserve">
<path d="M119,92.8c-3.3-3-7-6-9.8-7.9c-3.5-2.5-7.4-5-10.9-6.5c-5.5-2.8-7.6-3.3-9-3.3c-2.5,0-4.6,1.3-6.5,3.8c-1,1.6-2.3,3.8-3,5.8
	c-0.5,1.3-1.6,3.5-2.3,4.4c-1-0.3-4-1.6-9-4.9c-4.6-3.3-9.5-7.4-13.4-10.9c-3.8-3.8-7.6-8.8-10.9-13.4c-3.3-4.9-4.6-7.9-4.9-9
	c0.8-0.5,3-1.6,4.4-2.3c2-0.8,4-1.6,5.8-3c2.8-2,3.8-4,3.8-6.5c0-1.3-0.3-3.5-3.3-9c-1.6-3.3-4-7-6.5-10.9c-2-2.8-5-6.5-7.9-9.8
	c-3.5-3.5-6-5.3-8.5-5.3c-6,0-12.8,8.8-14.6,11.1C10,18.6,4,27.7,4,35.8c0,7.6,5.3,17.6,9.5,24.9c5.8,9.3,13.9,19.6,22.6,28.7
	l2.8,2.8c9,8.8,19.1,16.9,28.7,22.6c3,2,6.5,3.8,10.1,5.5c0.5,0.3,0.8,0.3,1.3,0.3c2,0,3.5-1.6,3.5-3.5c0-1.3-0.8-2.8-2.3-3.3
	c-2.8-1.3-5.8-3-9-5c-9-5.5-18.5-13.1-27.2-21.6l-2.8-2.8c-8.5-8.8-16.1-18.3-21.6-27.3c-5.5-8.8-8.5-16.4-8.5-20.9
	c0-4,2.5-10.1,6.8-15.9c2-2.5,3.8-4.9,5.8-6.5c2-1.8,3-2.3,3.5-2.3c1.3,0.5,5.5,4,11.1,12.5c2.3,3.3,4.4,6.5,5.8,9.5
	c2,3.5,2.3,5.3,2.3,5.5c0,0-0.5,0.5-1.3,1c-1,0.5-2.8,1.3-4,2c-2,0.8-3.5,1.6-5.3,2.5c-2.5,1.6-3.5,3.5-3.5,5.8c0,1,0,4.4,6.3,13.4
	c3.3,4.9,7.6,10.4,11.8,14.4c4,4,9.5,8.5,14.4,11.8c9,6,12.3,6.3,13.4,6.3c2.3,0,4-1,5.8-3.5c1-1.3,1.6-3.3,2.5-5.3
	c0.5-1.3,1.3-3,2-4c0.8-0.5,1.3-0.8,1.3-0.8c0.3,0,2,0.3,5.5,2.3c2.8,1.6,6.3,3.5,9.5,5.8c8.1,5.8,12,9.8,12.5,11.1
	c-0.3,0.5-0.8,1.6-2.3,3.5c-1.6,2-4,4-6.5,5.8c-3.8,2.8-7.9,5-11.1,6c-1.3,0.5-2.3,2-2.3,3.3c0,2,1.6,3.5,3.5,3.5
	c0.3,0,0.5,0,0.8-0.3c0.3,0,0.3,0,0.5-0.3c5.8-2,10.6-5.3,13.1-7c2.8-2,11.1-9,11.1-14.8C124.1,98.8,122.5,96.3,119,92.8L119,92.8z"
	/>
</svg>
