<?xml version="1.0" encoding="utf-8"?>
<!-- Generator: Adobe Illustrator 21.0.0, SVG Export Plug-In . SVG Version: 6.00 Build 0)  -->
<svg version="1.1" id="图层_1" xmlns="http://www.w3.org/2000/svg" xmlns:xlink="http://www.w3.org/1999/xlink" x="0px" y="0px"
	 viewBox="0 0 128 128" style="enable-background:new 0 0 128 128;" xml:space="preserve">
<path d="M114.8,108.7c-0.1,0.1-0.1,0.1-0.2,0.1l-82.9-0.2v-17c0-0.8,0.9-2.2,1.7-2.5c0.2-0.1,22.6-9.9,39.8-9.9
	c17.1,0,39.6,9.8,39.9,10c0.8,0.3,1.6,1.6,1.6,2.5V108.7z M59.5,50.4V35.3c0-8.9,7.2-16.1,16.1-16.2c8.9,0,16.1,7.3,16.1,16.2v15.1
	c0,8.9-7.2,16.1-16.1,16.2C66.7,66.6,59.4,59.4,59.5,50.4z M116.7,80.6c-0.7-0.3-13.4-5.8-27.5-8.8c7.3-4.7,11.7-12.7,11.7-21.4
	V35.3c0-14-11.4-25.4-25.3-25.4c-14,0-25.4,11.4-25.4,25.4v15.1c0,8.5,4.2,16.1,10.7,20.7c-15.6,2.7-30.4,9.2-31.1,9.5
	c-4.2,1.7-7.4,6.5-7.4,11v18.2h0.1c0.6,4.7,4.6,8.2,9.4,8.2h82.6c4.1,0,7.8-2.7,9.2-6.7l0.2-0.7v-19C124,87,120.8,82.3,116.7,80.6z
	 M42.1,69.6c0.1,0,0.3,0,0.4,0c2.5,0,4.6-2.1,4.6-4.6s-2.1-4.6-4.6-4.6c-5.5,0-9.9-4.4-9.9-9.9V38.3c0-5.5,4.4-9.9,9.9-9.9
	c2.5,0,4.6-2.1,4.6-4.6s-2.1-4.6-4.6-4.6c-10.6,0-19.1,8.6-19.1,19.1v12.2c0,4.7,1.8,9,4.6,12.3c-9,2.8-17,7.2-18.4,8
	c-3.3,1.6-5.7,5.3-5.7,9v13.3c0,2.5,2.1,4.6,4.6,4.6s4.6-2.1,4.6-4.6V79.8c0.1-0.2,0.2-0.5,0.3-0.7c0.2-0.1,0.4-0.2,0.5-0.3
	c4.4-2.6,17.9-9.2,27.4-9.2C41.7,69.7,41.9,69.6,42.1,69.6"/>
</svg>
