<?xml version="1.0" encoding="utf-8"?>
<!-- Generator: Adobe Illustrator 21.0.0, SVG Export Plug-In . SVG Version: 6.00 Build 0)  -->
<svg version="1.1" id="图层_1" xmlns="http://www.w3.org/2000/svg" xmlns:xlink="http://www.w3.org/1999/xlink" x="0px" y="0px"
	 viewBox="0 0 128 128" style="enable-background:new 0 0 128 128;" xml:space="preserve">
<path d="M113.2,54.4c-0.6-1.7-2.2-3-4-3.2l-36.7-4.5l9.1-36.5c0.7-2.6-0.9-5.3-3.6-6c-1.8-0.4-3.7,0.1-4.9,1.5L15.8,68.5
	c-1.8,2-1.7,5.1,0.3,7c0.8,0.7,1.7,1.1,2.7,1.3l36.4,4.5l-9.4,36.5c-0.7,2.7,0.9,5.3,3.6,6c1.8,0.4,3.6-0.1,4.9-1.4l57.9-62.9
	C113.4,58.1,113.8,56.2,113.2,54.4"/>
</svg>
