<?xml version="1.0" encoding="utf-8"?>
<!-- Generator: Adobe Illustrator 21.0.0, SVG Export Plug-In . SVG Version: 6.00 Build 0)  -->
<svg version="1.1" id="图层_1" xmlns="http://www.w3.org/2000/svg" xmlns:xlink="http://www.w3.org/1999/xlink" x="0px" y="0px"
	 viewBox="0 0 128 128" style="enable-background:new 0 0 128 128;" xml:space="preserve">
<path d="M43.6,113.1L85,71.7l28.1,28.1l0,13.3L43.6,113.1L43.6,113.1z M14.9,14.9l98.2,0l0,69.5L88.9,60.1c-2.1-2.1-5.6-2.1-7.7,0
	c0,0,0,0,0,0l-53,53H14.9V14.9z M113.1,4H14.9C8.9,4,4,8.9,4,14.9v98.3c0,6,4.9,10.9,10.8,10.9h98.3c6,0,10.9-4.9,10.9-10.9V14.9
	C124,8.9,119.1,4,113.1,4z M47.6,42.2c3,0,5.4,2.4,5.5,5.3c0,0,0,0.1,0,0.1c0,3-2.4,5.4-5.3,5.5c0,0-0.1,0-0.1,0
	c-3,0-5.4-2.4-5.5-5.3c0,0,0-0.1,0-0.1C42.2,44.6,44.6,42.2,47.6,42.2 M47.6,64c9,0,16.4-7.3,16.4-16.4s-7.3-16.4-16.4-16.4
	s-16.4,7.3-16.4,16.4S38.6,64,47.6,64"/>
</svg>
