<?xml version="1.0" encoding="utf-8"?>
<!-- Generator: Adobe Illustrator 21.0.0, SVG Export Plug-In . SVG Version: 6.00 Build 0)  -->
<svg version="1.1" id="图层_1" xmlns="http://www.w3.org/2000/svg" xmlns:xlink="http://www.w3.org/1999/xlink" x="0px" y="0px"
	 viewBox="0 0 128 128" style="enable-background:new 0 0 128 128;" xml:space="preserve">
<path d="M27.5,68.6V14.4l70.2,0.1L78.1,41.5l19.6,27.1L27.5,68.6z M109.1,66.5L91,41.5l18.1-25c2-2.7,2.4-5.8,1-8.4
	c-1.3-2.6-4-4.1-7.4-4.1H27.5c-5.7,0-10.4,4.6-10.4,10.4v104.4c0,2.9,2.3,5.2,5.2,5.2s5.2-2.3,5.2-5.2V79h75.2
	c3.4,0,6.1-1.5,7.5-4.1C111.5,72.3,111.1,69.3,109.1,66.5z"/>
</svg>
