<?xml version="1.0" encoding="utf-8"?>
<!-- Generator: Adobe Illustrator 21.0.0, SVG Export Plug-In . SVG Version: 6.00 Build 0)  -->
<svg version="1.1" id="图层_1" xmlns="http://www.w3.org/2000/svg" xmlns:xlink="http://www.w3.org/1999/xlink" x="0px" y="0px"
	 viewBox="0 0 128 128" style="enable-background:new 0 0 128 128;" xml:space="preserve">
<path d="M91.8,118.1l-24.2-8c-1.1-0.3-2.3-0.5-3.7-0.5c-1.4,0-2.5,0.3-3.7,0.5l-24.2,8v-16.3c-1.9-1.1-3.9-2.3-5.5-3.6v20.3
	c0,3,2.5,5.5,5.5,5.5c0.5,0,1.1,0,1.6-0.2l24.2-8c0.5-0.3,1.1-0.3,1.6-0.3s1.1,0,1.6,0.3l24.2,8c0.5,0.2,1.1,0.2,1.6,0.2
	c3,0,5.5-2.5,5.5-5.5V98.3c-1.6,1.4-3.7,2.5-5.5,3.6v16.4C91.2,118.1,91.8,118.1,91.8,118.1z M64,4C36.5,4,14,26.5,14,53.9
	s22.5,49.9,50,49.9s50-22.5,50-49.9S91.5,4,64,4z M64,98.3c-24.4,0-44.5-20-44.5-44.4S39.6,9.5,64,9.5s44.5,20,44.5,44.4
	S88.4,98.3,64,98.3z M64,15.1c-21.4,0-38.9,17.5-38.9,38.7c0,21.4,17.5,38.9,38.9,38.9s38.9-17.5,38.9-38.8
	C102.9,32.5,85.4,15.1,64,15.1z M64,87.1c-18.4,0-33.4-15-33.4-33.3s15-33.3,33.4-33.3s33.4,15,33.4,33.3S82.4,87.1,64,87.1z"/>
<path d="M64,15.3c-21.5,0-39,17.4-39,38.7s17.5,38.8,39,38.8s39-17.4,39-38.8S85.5,15.3,64,15.3z M76,71.3
	c-2.9,2.3-6.5,3.5-10.7,3.5c-4.4,0-7.9-0.9-10.7-2.6s-4.8-4.4-6.3-7.6c-1.4-3.4-2.1-7-2.1-10.7c0-4.3,0.8-7.9,2.4-11
	c1.6-3.1,3.9-5.5,6.9-7.1c3-1.6,6.3-2.4,9.8-2.4c4,0,7.4,1,10.2,3.1c2.8,2.1,4.7,4.9,5.8,8.6L76,46.3c-0.9-2.9-2.3-5.1-4.2-6.4
	s-4-2.2-6.7-2.2c-3.1,0-5.7,0.7-7.8,2.2s-3.5,3.5-4.4,6c-0.9,2.5-1.3,5.1-1.3,7.8c0,3.4,0.5,6.4,1.5,9c1,2.5,2.5,4.5,4.7,5.8
	s4.4,1.9,6.9,1.9c3,0,5.5-0.9,7.7-2.6c2-1.8,3.4-4.4,4.2-7.8l5.4,1.4C80.8,65.6,78.9,69,76,71.3L76,71.3z"/>
</svg>
