<?xml version="1.0" encoding="utf-8"?>
<!-- Generator: Adobe Illustrator 21.0.0, SVG Export Plug-In . SVG Version: 6.00 Build 0)  -->
<svg version="1.1" id="图层_1" xmlns="http://www.w3.org/2000/svg" xmlns:xlink="http://www.w3.org/1999/xlink" x="0px" y="0px"
	 viewBox="0 0 128 128" style="enable-background:new 0 0 128 128;" xml:space="preserve">
<path d="M116.7,80.6c-0.7-0.3-13.4-5.8-27.6-8.8c7.3-4.7,11.7-12.7,11.7-21.4V35.3c0-14-11.4-25.4-25.3-25.4c-7.3,0-14.2,3.1-19,8.6
	c-4.1,4.6-6.4,10.6-6.4,16.8v15.1c0,8.5,4.2,16.1,10.7,20.7c-15.6,2.7-30.4,9.2-31.1,9.5c-4.2,1.7-7.4,6.5-7.4,11v18.2h0.1
	c0.6,4.7,4.6,8.2,9.4,8.2h82.6c4.1,0,7.8-2.7,9.2-6.7l0.2-0.7v-19C124,87,120.8,82.3,116.7,80.6 M36.7,70.2c5-1.6,7.4-2.5,7.4-2.5
	s3.3-1.4,2.4-4.3c-2-3.8-3.5-6.8-3.5-18.1V30.7c0,0,0.9-7.1,3.6-7.8c0.2-0.2,0.3-0.6,0.2-1c-0.7-1.7-2.4-2.8-4.2-2.8
	c-10.6,0-19.1,8.6-19.1,19.1v12.2c0,4.7,1.8,9,4.6,12.3c-9,2.8-17,7.2-18.4,8c-3.3,1.6-5.7,5.3-5.7,9v13.3c0,2.5,2.1,4.6,4.6,4.6
	c2.3,0,4.3-1.8,4.5-4.1c0-0.2,0.1-0.3,0.1-0.5V91c0.4-4.4,2-12.3,8.8-16c1-0.5,2.1-0.9,3.3-1.4C29.1,72.5,32.9,71.4,36.7,70.2"/>
</svg>
