<?xml version="1.0" encoding="utf-8"?>
<!-- Generator: Adobe Illustrator 21.0.0, SVG Export Plug-In . SVG Version: 6.00 Build 0)  -->
<svg version="1.1" id="图层_1" xmlns="http://www.w3.org/2000/svg" xmlns:xlink="http://www.w3.org/1999/xlink" x="0px" y="0px"
	 viewBox="0 0 128 128" style="enable-background:new 0 0 128 128;" xml:space="preserve">
<path d="M117.5,57.6H38.4c-3.6,0-6.5,2.9-6.5,6.4c0,3.6,2.9,6.4,6.5,6.4h79.1c3.6,0,6.5-2.9,6.5-6.4C124,60.4,121.1,57.6,117.5,57.6
	 M117.5,96.1H38.4c-3.6,0-6.5,2.9-6.5,6.4s2.9,6.4,6.5,6.4h79.1c3.6,0,6.5-2.9,6.5-6.4S121.1,96.1,117.5,96.1 M10.5,19
	C6.9,19,4,21.9,4,25.4s2.9,6.4,6.5,6.4s6.5-2.9,6.5-6.4S14.1,19,10.5,19 M38.4,31.9h79.1c3.6,0,6.5-2.9,6.5-6.4s-2.9-6.4-6.5-6.4
	H38.4c-3.6,0-6.5,2.9-6.5,6.4S34.8,31.9,38.4,31.9 M10.5,57.6C6.9,57.6,4,60.4,4,64c0,3.6,2.9,6.4,6.5,6.4s6.5-2.9,6.5-6.4
	C17.1,60.4,14.1,57.6,10.5,57.6 M10.5,96.1C6.9,96.1,4,99,4,102.6s2.9,6.4,6.5,6.4s6.5-2.9,6.5-6.4S14.1,96.1,10.5,96.1"/>
</svg>
