<?xml version="1.0" encoding="utf-8"?>
<!-- Generator: Adobe Illustrator 21.0.0, SVG Export Plug-In . SVG Version: 6.00 Build 0)  -->
<svg version="1.1" id="图层_1" xmlns="http://www.w3.org/2000/svg" xmlns:xlink="http://www.w3.org/1999/xlink" x="0px" y="0px"
	 viewBox="0 0 128 128" style="enable-background:new 0 0 128 128;" xml:space="preserve">
<path d="M64,28c4.4,0,8.3-2.4,10.3-6c1-1.8,1.7-3.8,1.7-6c0-6.6-5.4-12-12-12c-6.6,0-12,5.4-12,12c0,2.2,0.6,4.2,1.7,6
	C55.7,25.6,59.6,28,64,28 M64,52c-4.4,0-8.3,2.4-10.3,6c-1.1,1.8-1.6,3.9-1.7,6c0,2.2,0.6,4.2,1.7,6c2.1,3.6,5.9,6,10.3,6
	c4.4,0,8.3-2.4,10.3-6c1-1.8,1.7-3.8,1.7-6c0-2.2-0.6-4.2-1.7-6C72.3,54.4,68.4,52,64,52 M64,100c-4.4,0-8.3,2.4-10.3,6
	c-1.1,1.8-1.6,3.9-1.7,6c0,6.6,5.4,12,12,12c6.6,0,12-5.4,12-12c0-2.2-0.6-4.2-1.7-6C72.3,102.4,68.4,100,64,100"/>
</svg>
