<?xml version="1.0" encoding="utf-8"?>
<!-- Generator: Adobe Illustrator 21.0.0, SVG Export Plug-In . SVG Version: 6.00 Build 0)  -->
<svg version="1.1" id="图层_1" xmlns="http://www.w3.org/2000/svg" xmlns:xlink="http://www.w3.org/1999/xlink" x="0px" y="0px"
	 viewBox="0 0 128 128" style="enable-background:new 0 0 128 128;" xml:space="preserve">
<path d="M110.5,8.6H48.8c-5.5,0-10.6,4.7-10.6,10.6v12L11.6,44.4c0,0-0.4,0-0.4,0.4C6.5,48.1,4,53.2,4,59.7v43c0,1.2,0.4,2.1,1.2,3
	s1.7,1.2,3,1.2h13.2c0-0.9-0.4-1.2-0.4-2.1c0-10.6,8.5-19.2,19.2-19.2s19.2,8.5,19.2,19.2c0,0.9,0,1.2-0.4,2.1h13.2v-2.1
	c0-10.6,8.5-19.2,19.2-19.2s19.2,8.5,19.2,19.2v2.1h9c2.5,0,4.2-1.7,4.2-4.2V21.3C123.4,14.5,117.8,8.6,110.5,8.6z M38.1,59.7
	c0,2.5-1.7,4.2-4.2,4.2H16.7c-2.5,0-4.2-1.7-4.2-4.2c0-8.5,14.1-14.5,19.6-16.6c1.7-0.9,3-0.4,4.2,0.4c1.2,0.9,1.7,2.1,1.7,3.4V59.7
	z M25.7,104.5c0,8.2,6.7,15,15,15s15-6.7,15-15s-6.7-15-15-15S25.7,96.2,25.7,104.5z M76.5,104.5c0,8.2,6.7,15,15,15s15-6.7,15-15
	s-6.7-15-15-15C83.1,89.5,76.5,96.2,76.5,104.5z"/>
</svg>
