<?xml version="1.0" encoding="utf-8"?>
<!-- Generator: Adobe Illustrator 21.0.0, SVG Export Plug-In . SVG Version: 6.00 Build 0)  -->
<svg version="1.1" id="图层_1" xmlns="http://www.w3.org/2000/svg" xmlns:xlink="http://www.w3.org/1999/xlink" x="0px" y="0px"
	 viewBox="0 0 128 128" style="enable-background:new 0 0 128 128;" xml:space="preserve">
<path d="M89,60.2L60.5,91.5c-1,1.1-2.4,1.7-3.8,1.7h0c-1.5,0-2.9-0.6-3.8-1.7L39,75.8c-1.9-2.1-1.7-5.4,0.4-7.4
	c2.1-1.9,5.4-1.7,7.3,0.4l10.1,11.3l24.6-27c2-2.1,5.3-2.1,7.3-0.1C90.6,55,90.8,58.2,89,60.2 M110.6,9.4h-10.3c0,0,0,3.3,0,5.3V25
	c0,5.8-4.6,10.4-10.3,10.5H38.1c-5.7,0-10.4-4.7-10.3-10.5V14.7c0-1.9,0-3.5,0-5.3H17.3C11.6,9.4,7,14.1,7,19.8v93.8
	c0,5.7,4.6,10.4,10.3,10.4h93.4c5.7,0,10.3-4.6,10.3-10.4V19.8C121,14.1,116.3,9.4,110.6,9.4 M89.4,7.5c-1.2-2.2-3.5-3.5-6-3.5H45.2
	c-2.6,0-4.8,1.4-6,3.5c-0.6,1.1-1,2.3-1,3.5v6.9c0,3.9,3.1,7,6.9,7h38.2c3.8,0,6.9-3.2,6.9-7V11C90.3,9.7,90,8.5,89.4,7.5"/>
</svg>
