<?xml version="1.0" encoding="utf-8"?>
<!-- Generator: Adobe Illustrator 21.0.0, SVG Export Plug-In . SVG Version: 6.00 Build 0)  -->
<svg version="1.1" id="图层_1" xmlns="http://www.w3.org/2000/svg" xmlns:xlink="http://www.w3.org/1999/xlink" x="0px" y="0px"
	 viewBox="0 0 128 128" style="enable-background:new 0 0 128 128;" xml:space="preserve">
<path d="M49.4,30.1c0-8.6,7-15.7,15.7-15.7s15.7,7,15.7,15.7v31.4c0,8.6-7,15.6-15.7,15.6c-8.7,0-15.7-7-15.7-15.6V30.1z M65.1,87.5
	c14.4,0,26.2-11.7,26.2-26V30.1C91.3,15.7,79.6,4,65.1,4C50.7,4,39,15.7,39,30.1v31.4C39,75.8,50.7,87.5,65.1,87.5z M103.8,51
	c-2.9,0-5.2,2.3-5.2,5.2v4C98.5,79.1,83,94.5,64,94.5c-19,0-34.5-15.4-34.5-34.4v-4c0-2.9-2.3-5.2-5.2-5.2S19,53.3,19,56.2v4
	c0,22.9,17.3,41.7,39.5,44.4v14.2c0,2.9,2.3,5.2,5.2,5.2s5.2-2.3,5.2-5.2v-14.1c22.5-2.5,40-21.5,40-44.5v-4
	C109,53.3,106.7,51,103.8,51"/>
</svg>
