<?xml version="1.0" encoding="utf-8"?>
<!-- Generator: Adobe Illustrator 21.0.0, SVG Export Plug-In . SVG Version: 6.00 Build 0)  -->
<svg version="1.1" id="图层_1" xmlns="http://www.w3.org/2000/svg" xmlns:xlink="http://www.w3.org/1999/xlink" x="0px" y="0px"
	 viewBox="0 0 128 128" style="enable-background:new 0 0 128 128;" xml:space="preserve">
<path d="M115.8,61.4c-2.9,0-5.2,2.3-5.2,5.2c0,25.9-20.9,47-46.6,47s-46.6-21.1-46.6-47s20.9-47,46.6-47c10.7,0,21,3.7,29.2,10.4
	H79.5c-2.9,0-5.2,2.3-5.2,5.2s2.3,5.2,5.2,5.2h25.9c2.9,0,5.2-2.3,5.2-5.2V9.2c0-2.9-2.3-5.2-5.2-5.2c-2.9,0-5.2,2.3-5.2,5.2v13.2
	C90.1,13.9,77.3,9.2,64,9.2C32.6,9.2,7,35,7,66.6S32.6,124,64,124s57-25.7,57-57.4C121,63.7,118.7,61.4,115.8,61.4"/>
</svg>
