<?xml version="1.0" encoding="utf-8"?>
<!-- Generator: Adobe Illustrator 21.0.0, SVG Export Plug-In . SVG Version: 6.00 Build 0)  -->
<svg version="1.1" id="图层_1" xmlns="http://www.w3.org/2000/svg" xmlns:xlink="http://www.w3.org/1999/xlink" x="0px" y="0px"
	 viewBox="0 0 128 128" style="enable-background:new 0 0 128 128;" xml:space="preserve">
<path d="M64,114c-12.5,0-24.5-4.7-33.7-13.2c8.6-2.8,22.9-6.8,33.4-6.8c10.6,0,25.3,4.2,33.8,7C88.4,109.4,76.4,114,64,114z
	 M39,63.3V49c0-13.8,11.2-25,25-25c13.8,0,25,11.2,25,25v14.9c0,1.6-0.2,3.2-0.5,4.7l-0.1,0.7c-0.7,3-1.8,5.8-3.5,8.3L84.6,78
	c-1.7,2.5-3.9,4.7-6.4,6.4l-0.3,0.2c-4.1,2.7-8.9,4.2-13.8,4.2c-4.9,0-9.8-1.5-13.9-4.2l-0.3-0.2c-2.5-1.7-4.7-3.9-6.4-6.4l-0.3-0.5
	c-1.7-2.5-2.9-5.3-3.5-8.3l-0.1-0.7C39.2,67,39,65.4,39,63.9C39,63.9,39,63.3,39,63.3z M64,4C30.9,4,4,30.9,4,64s26.9,60,60,60
	s60-26.9,60-60S97.1,4,64,4z"/>
</svg>
