<?xml version="1.0" encoding="utf-8"?>
<!-- Generator: Adobe Illustrator 21.0.0, SVG Export Plug-In . SVG Version: 6.00 Build 0)  -->
<svg version="1.1" id="图层_1" xmlns="http://www.w3.org/2000/svg" xmlns:xlink="http://www.w3.org/1999/xlink" x="0px" y="0px"
	 viewBox="0 0 128 128" style="enable-background:new 0 0 128 128;" xml:space="preserve">
<path d="M81.8,35.8H20.1C11.2,35.8,4,43.1,4,51.9v52c0,8.9,7.2,16.1,16.1,16.1h61.6c8.9,0,16.1-7.3,16.1-16.1v-52
	C97.9,43.1,90.6,35.8,81.8,35.8z M20.1,44.4h61.6c4.1,0,7.5,3.4,7.5,7.5v16.8H12.6V51.9C12.6,47.8,16,44.4,20.1,44.4z M81.8,111.3
	H20.1c-4.1,0-7.5-3.4-7.5-7.5V77.7h76.6v26.1C89.3,108.1,85.9,111.3,81.8,111.3z M46.9,90.1H27.5c-2.5,0-4.5,2-4.5,4.5
	s2,4.5,4.5,4.5h19.4c2.5,0,4.5-2,4.5-4.5S49.4,90.1,46.9,90.1z M74.6,90.1h-7.4c-2.5,0-4.5,2-4.5,4.5s2,4.5,4.5,4.5h7.4
	c2.5,0,4.5-2,4.5-4.5S77.1,90.1,74.6,90.1z M107.9,7.9H46.3c-8.9,0-16.1,7.2-16.1,16.1v3.4h8.6v-3.5c0-4.1,3.4-7.5,7.5-7.5h61.6
	c4.1,0,7.5,3.4,7.5,7.5v52c0,4.1-3.4,7.5-7.5,7.5h-2.6v8.6h2.6c8.9,0,16.1-7.3,16.1-16.1v-52C124,15.1,116.9,7.9,107.9,7.9z"/>
</svg>
