<?xml version="1.0" encoding="utf-8"?>
<!-- Generator: Adobe Illustrator 21.0.0, SVG Export Plug-In . SVG Version: 6.00 Build 0)  -->
<svg version="1.1" id="图层_1" xmlns="http://www.w3.org/2000/svg" xmlns:xlink="http://www.w3.org/1999/xlink" x="0px" y="0px"
	 viewBox="0 0 128 128" style="enable-background:new 0 0 128 128;" xml:space="preserve">
<path d="M22,53.7c-1.8-1.1-3.9-1.7-6-1.7C9.4,52,4,57.4,4,64c0,6.6,5.4,12,12,12c2.2,0,4.2-0.6,6-1.7c3.6-2.1,6-5.9,6-10.3
	C28,59.6,25.6,55.7,22,53.7 M70,53.7c-1.8-1.1-3.9-1.7-6-1.7c-2.2,0-4.2,0.6-6,1.7c-3.6,2.1-6,5.9-6,10.3c0,4.4,2.4,8.3,6,10.3
	c1.8,1,3.8,1.7,6,1.7c2.2,0,4.2-0.6,6-1.7c3.6-2.1,6-5.9,6-10.3C76,59.6,73.6,55.7,70,53.7 M112,52c-2.2,0-4.2,0.6-6,1.7
	c-3.6,2.1-6,5.9-6,10.3c0,4.4,2.4,8.3,6,10.3c1.8,1,3.8,1.7,6,1.7c6.6,0,12-5.4,12-12C124,57.4,118.6,52,112,52"/>
</svg>
