<?xml version="1.0" encoding="utf-8"?>
<!-- Generator: Adobe Illustrator 21.0.0, SVG Export Plug-In . SVG Version: 6.00 Build 0)  -->
<svg version="1.1" id="图层_1" xmlns="http://www.w3.org/2000/svg" xmlns:xlink="http://www.w3.org/1999/xlink" x="0px" y="0px"
	 viewBox="0 0 128 128" style="enable-background:new 0 0 128 128;" xml:space="preserve">
<path d="M119.2,51.7H100c-2.7,0-4.8,2.1-4.8,4.8s2.1,4.8,4.8,4.8h19.2c2.7,0,4.8-2.1,4.8-4.8S121.9,51.7,119.2,51.7 M119.2,32.5H100
	c-2.7,0-4.8,2.1-4.8,4.8c0,2.7,2.1,4.8,4.8,4.8h19.2c2.7,0,4.8-2.1,4.8-4.8C124,34.7,121.9,32.5,119.2,32.5 M100,22.9h19.2
	c2.7,0,4.8-2.1,4.8-4.8s-2.1-4.8-4.8-4.8H100c-2.7,0-4.8,2.1-4.8,4.8S97.3,22.9,100,22.9 M102.1,80.5c-0.8-0.3-14.6-6.4-29.8-9.4
	c1.8-1.4,3.3-3.1,4.7-5c3.3-4.5,5.1-9.9,5.1-15.5V35c0-8.4-4-16.3-10.8-21.3c-4.5-3.3-10-5.1-15.6-5.2C41.1,8.5,29.3,20.4,29.3,35
	v15.7c0,8.5,4,16,10.3,20.9c-14.5,3.1-27.2,8.7-27.8,9C7.3,82.2,4,87.2,4,91.9v19.8l0.3,0.8c1.4,4.2,5.3,7,9.6,7h85.9
	c5,0,9.1-3.7,9.7-8.5l0.1-19c0-2.3-0.8-4.6-2-6.6C106.2,83.2,104.3,81.4,102.1,80.5"/>
</svg>
