<?xml version="1.0" encoding="utf-8"?>
<!-- Generator: Adobe Illustrator 21.0.0, SVG Export Plug-In . SVG Version: 6.00 Build 0)  -->
<svg version="1.1" id="图层_1" xmlns="http://www.w3.org/2000/svg" xmlns:xlink="http://www.w3.org/1999/xlink" x="0px" y="0px"
	 viewBox="0 0 128 128" style="enable-background:new 0 0 128 128;" xml:space="preserve">
<path d="M14.3,51.7v-31l31,0l0,31L14.3,51.7z M45.3,10.4h-31C8.6,10.4,4,15,4,20.7v31C4,57.4,8.6,62,14.3,62h31
	c5.7,0,10.3-4.6,10.3-10.3v-31C55.6,15,51,10.4,45.3,10.4L45.3,10.4z M14.3,113.7v-31l31,0l0,31L14.3,113.7z M45.3,72.4h-31
	C8.6,72.4,4,77,4,82.7v31c0,5.7,4.6,10.3,10.3,10.3h31c5.7,0,10.3-4.6,10.3-10.3v-31C55.6,77,51,72.4,45.3,72.4L45.3,72.4z
	 M91.8,58.1L69.9,36.2l21.9-21.9l21.9,21.9L91.8,58.1z M121,28.9L99.1,7c-4-4-10.5-4-14.6,0L62.6,28.9c-1.9,1.9-3,4.5-3,7.3
	c0,2.7,1.1,5.4,3,7.3l21.9,21.9c4,4,10.6,4,14.6,0L121,43.5C125,39.5,125,33,121,28.9L121,28.9z M76.3,113.7v-31l31,0l0,31
	L76.3,113.7z M107.3,72.4h-31C70.6,72.4,66,77,66,82.7v31c0,5.7,4.6,10.3,10.3,10.3h31c5.7,0,10.3-4.6,10.3-10.3v-31
	C117.6,77,113,72.4,107.3,72.4L107.3,72.4z"/>
</svg>
