<?xml version="1.0" encoding="utf-8"?>
<!-- Generator: Adobe Illustrator 21.0.0, SVG Export Plug-In . SVG Version: 6.00 Build 0)  -->
<svg version="1.1" id="图层_1" xmlns="http://www.w3.org/2000/svg" xmlns:xlink="http://www.w3.org/1999/xlink" x="0px" y="0px"
	 viewBox="0 0 128 128" style="enable-background:new 0 0 128 128;" xml:space="preserve">
<path d="M104,64H74V34h30V64z M54,69c0,2.8-2.2,5-5,5H29c-2.8,0-5-2.2-5-5s2.2-5,5-5h20c1.3,0,2.5,0.5,3.4,1.4
	C53.4,66.3,54,67.6,54,69z M74,89c0,2.8-2.2,5-5,5H29c-2.8,0-5-2.2-5-5s2.2-5,5-5h40c1.3,0,2.5,0.5,3.4,1.4C73.4,86.3,74,87.6,74,89
	z M114,14H14C8.5,14,4,18.5,4,24V104c0,1.3,0.3,2.5,0.7,3.6c0,0.1,0.1,0.2,0.1,0.3c0.1,0.3,0.3,0.5,0.4,0.8c0.2,0.3,0.3,0.6,0.5,0.9
	c0.1,0.2,0.2,0.3,0.3,0.4c0.3,0.4,0.6,0.8,0.9,1.1c0.2,0.2,0.3,0.3,0.5,0.4c0.3,0.3,0.6,0.6,1,0.8c0.1,0.1,0.2,0.1,0.2,0.1
	c0.5,0.3,0.9,0.6,1.5,0.8c0.5,0.2,1,0.4,1.6,0.5c0.1,0,0.2,0.1,0.3,0.1c0.7,0.1,1.3,0.2,2,0.2h100c5.5,0,10-4.5,10-10V24
	C124,18.5,119.5,14,114,14z"/>
</svg>
