<?xml version="1.0" encoding="utf-8"?>
<!-- Generator: Adobe Illustrator 21.0.0, SVG Export Plug-In . SVG Version: 6.00 Build 0)  -->
<svg version="1.1" id="图层_1" xmlns="http://www.w3.org/2000/svg" xmlns:xlink="http://www.w3.org/1999/xlink" x="0px" y="0px"
	 viewBox="0 0 128 128" style="enable-background:new 0 0 128 128;" xml:space="preserve">
<path d="M84.3,85.4c-1.9,2-5.1,2-7,0c0,0,0,0,0,0L60.5,68.6c-0.9-0.9-1.5-2.2-1.5-3.5V34c0-2.8,2.2-5,5-5c2.8,0,5,2.2,5,5v29
	l15.3,15.3C86.3,80.3,86.3,83.4,84.3,85.4C84.3,85.4,84.3,85.4,84.3,85.4 M64,4C30.9,4,4,30.9,4,64s26.9,60,60,60s60-26.9,60-60
	S97.1,4,64,4"/>
</svg>
