<?xml version="1.0" encoding="utf-8"?>
<!-- Generator: Adobe Illustrator 21.0.0, SVG Export Plug-In . SVG Version: 6.00 Build 0)  -->
<svg version="1.1" id="图层_1" xmlns="http://www.w3.org/2000/svg" xmlns:xlink="http://www.w3.org/1999/xlink" x="0px" y="0px"
	 viewBox="0 0 128 128" style="enable-background:new 0 0 128 128;" xml:space="preserve">
<path d="M120.1,43.1c-2.4-6.5-5.9-12.4-10.4-17.8c-2.3-2.6-6.4-3-9-0.7s-3,6.4-0.8,9c7.3,8.6,11.3,19.4,11.3,30.6
	c0,26.1-21.3,47.4-47.4,47.4S16.5,90.3,16.5,64.1s21.3-47.4,47.4-47.4c7.5,0,14.6,1.8,21.4,5c3.1,1.6,7,0.3,8.6-2.8
	c1.6-3.1,0.3-7-2.7-8.6C82.6,6.2,73.5,4,64,4c-8,0-16,1.6-23.4,4.7c-7.1,3-13.5,7.4-19.1,12.8S11.6,33.4,8.7,40.6C5.6,48,4,56,4,64
	s1.6,16,4.7,23.4c3,7.1,7.4,13.5,12.8,19.1c5.4,5.5,11.9,9.9,19.1,12.8C48,122.4,55.9,124,64,124s16-1.6,23.4-4.8
	c7.1-3,13.6-7.4,19.1-12.8c5.5-5.5,9.9-11.9,12.8-19.1C122.4,80,124,72.1,124,64C124,57,122.6,49.9,120.1,43.1z M86.9,42.8l-5,4.5
	C67.3,61.1,55.6,78.1,55.6,78.1l-8.5-16.5L27.9,71c8.1,2.9,20.8,13.4,28.9,23.5c4.9-8.9,21.8-24.6,33.9-32.8l4.8-2.9
	c1.9-1,3.5-1.8,4.8-2c-3.6-8.4-0.4-15.4,0.1-23.4C95.6,35.9,91.1,39.1,86.9,42.8L86.9,42.8z"/>
</svg>
