<?xml version="1.0" encoding="utf-8"?>
<!-- Generator: Adobe Illustrator 21.0.0, SVG Export Plug-In . SVG Version: 6.00 Build 0)  -->
<svg version="1.1" id="图层_1" xmlns="http://www.w3.org/2000/svg" xmlns:xlink="http://www.w3.org/1999/xlink" x="0px" y="0px"
	 viewBox="0 0 128 128" style="enable-background:new 0 0 128 128;" xml:space="preserve">
<path d="M72,64l50.4-50.4c2.2-2.2,2.1-5.8-0.1-8c-2.2-2.1-5.7-2.1-7.9,0L64,56L13.6,5.6c-2.2-2.2-5.8-2.1-8,0.1
	c-2.1,2.2-2.1,5.7,0,7.9L56,64L5.6,114.3c-2.2,2.2-2.1,5.8,0.1,8c2.2,2.1,5.7,2.1,7.9,0L64,72l50.4,50.4c2.2,2.2,5.8,2.2,8,0
	c0,0,0,0,0,0c2.2-2.2,2.2-5.8,0-8L72,64z"/>
</svg>
