<?xml version="1.0" encoding="utf-8"?>
<!-- Generator: Adobe Illustrator 21.0.0, SVG Export Plug-In . SVG Version: 6.00 Build 0)  -->
<svg version="1.1" id="图层_1" xmlns="http://www.w3.org/2000/svg" xmlns:xlink="http://www.w3.org/1999/xlink" x="0px" y="0px"
	 viewBox="0 0 128 128" style="enable-background:new 0 0 128 128;" xml:space="preserve">
<path d="M89,49c-4.1,0-7.5-3.4-7.5-7.5S84.8,34,89,34h0c4.1,0,7.5,3.4,7.5,7.5C96.5,45.6,93.1,49,89,49 M64,49
	c-4.1,0-7.5-3.4-7.5-7.5c0-4.1,3.4-7.5,7.5-7.5h0c4.1,0,7.5,3.4,7.5,7.5S68.1,49,64,49 M120.7,9L120.7,9c-1.3-3-4.2-5-7.5-5H39.8
	c-3.3,0-6.2,2-7.5,5c-0.5,1.1-0.8,2.4-0.8,3.6V34h-25h8.3c-4.6,0-8.3,3.9-8.3,8.6v58.9c0,4.8,3.8,8.6,8.4,8.6h9.5
	c0.2,0,0.5,0.2,0.8,0.3l0,7.2c0,0.4,0.1,0.8,0.2,1.3c0.2,0.6,0.4,1.2,0.8,1.8c1.6,2.1,3.9,3.3,6.4,3.3h0c2.3,0,4.5-1.1,6.1-2.9
	L41,119l7-6.7c0.3-0.3,0.7-0.9,1-1.3c0.4-0.4,0.9-0.7,1.4-0.8h37.8c2.4,0,4.5-1.1,6.1-2.7l-0.1-0.1h0.1l-4.5-4.3l-3.1-2.9h-0.1
	L74.2,88.5H41.5c-18-0.2-18.4-14.8-18.4-14.8V39.5c0-0.2,0.1-0.3,0.1-0.5c0-0.2-0.1-0.3-0.1-0.5v0h0c-0.3-2.5-2.4-4.4-4.9-4.5h13.3
	v37.6c0,0.8,0.2,1.6,0.4,2.4c1,3.6,4.2,6.2,8,6.2h37.8c0.5,0.1,1,0.4,1.4,0.8c0.3,0.5,0.6,0.9,1,1.3l9.2,8.8C90.8,93,93,94,95.3,94
	c0.4,0,0.8-0.1,1.2-0.1c2.1-0.3,3.9-1.4,5.2-3.1c0.7-0.9,1-1.9,1-3l0-7.2c0.3-0.2,0.5-0.3,0.8-0.3h9.6c3.8,0,7-2.7,8-6.2
	c0.2-0.8,0.4-1.6,0.4-2.4V12.6C121.5,11.3,121.2,10.1,120.7,9"/>
</svg>
