<?xml version="1.0" encoding="utf-8"?>
<!-- Generator: Adobe Illustrator 21.0.0, SVG Export Plug-In . SVG Version: 6.00 Build 0)  -->
<svg version="1.1" id="图层_1" xmlns="http://www.w3.org/2000/svg" xmlns:xlink="http://www.w3.org/1999/xlink" x="0px" y="0px"
	 viewBox="0 0 128 128" style="enable-background:new 0 0 128 128;" xml:space="preserve">
<path d="M58.9,5.5c-0.8-0.7-2.1-1.1-3.8-1.3c-1.7-0.2-3.2,0-4.6,0.7c-1.8,0.9-3.1,1.6-3.8,2.3c-0.7,0.6-1.8,1-3.3,1.3
	c-0.8,0.2-1.8,0.1-2.8-0.1c-1-0.2-2.1-0.5-3.1-0.7c-1-0.2-2-0.4-3-0.5c-1-0.1-1.8,0.1-2.5,0.5c-1.5,0.9-2,2-1.4,3.2
	c0.5,1.3,1.5,2.3,2.9,3c1.3,0.8,2.6,1.6,3.9,2.5c1.3,0.9,2.5,2,3.6,3.2c0.5,0.7,1.2,1.4,1.9,2.2c0.7,0.8,1.4,1.6,2.1,2.4
	c0.8,0.9,1.5,1.9,2.2,2.8h32.8c0.7-0.8,1.4-1.7,2.1-2.6c0.5-0.8,1.1-1.5,1.7-2.2c0.6-0.7,1.2-1.3,1.7-2c1-1.1,2.1-2.2,3.2-3.2
	c1.1-1,2.6-2,4.6-3c0.8-0.4,1.5-0.9,2.1-1.6c0.6-0.7,1-1.3,1.1-2c0.2-0.7,0.1-1.3-0.3-1.9C95.7,8,95,7.5,93.9,7.2
	c-1-0.2-1.8-0.3-2.5-0.2c-0.7,0.1-1.4,0.2-2.1,0.4C88.7,7.6,88,7.8,87.3,8c-0.7,0.2-1.6,0.4-2.7,0.4c-1.1,0-1.9-0.1-2.6-0.4
	c-0.7-0.3-1.3-0.6-1.9-1c-0.6-0.4-1.2-0.8-1.8-1.3c-0.6-0.4-1.5-0.8-2.5-1c-2.1-0.7-3.8-0.8-5.1-0.4c-1.3,0.4-2.5,1.1-3.8,2
	c-1.1,0.8-1.9,1.4-2.5,1.7c-0.3,0.2-0.6,0.2-0.8,0.2c-0.6-0.2-1.2-0.5-1.7-0.9 M36.5,43.6c-2.3,2-4.7,3.9-7.1,5.8
	c-3,2.3-5.8,5-8.4,7.9c-2.6,2.9-4.7,6.2-6.4,9.7c-1.7,3.5-2.9,7.3-3.5,11.3c-0.7,4-0.5,8.2,0.4,12.5c0.8,3.9,2.5,7.8,5,11.8
	c2.5,4,5.9,7.5,10.2,10.7c4.3,3.2,9.5,5.8,15.6,7.8c6.1,2,13.2,3,21.1,3c7.7,0,14.6-0.9,20.7-2.6c6.1-1.7,11.3-4.1,15.7-7
	c4.4-2.9,8.6-6.2,11.3-10.2c2.7-4,4.7-8.7,5.6-13.2c1-5.4,0.8-9.7,0-14.1c-0.8-4.4-2.6-8.5-4.5-11.8c-1.9-3.4-4.1-6.3-6.7-8.9
	c-2.6-2.5-5-4.7-7.5-6.6c-2.9-2.1-4.9-3.4-7.2-5.3c-2.2-1.9-3.9-2.6-5.4-4.1c-1.8-1.7-4.2-2.9-5.4-4.3H46.2 M81.2,90.8
	c2.2,0,4,1.7,4,3.8c0,2.1-1.8,3.8-4,3.8H68v3.3c0,2.1-1.8,3.8-4,3.8c-2.2,0-4-1.7-4-3.8v-3.3H46.8c-2.2,0-4-1.7-4-3.8
	c0-2.1,1.8-3.8,4-3.8H60V82H46.8c-2.2,0-4-1.7-4-3.8c0-2.1,1.8-3.8,4-3.8h11.5l0,0l-11.4-11c-1.6-1.5-1.6-3.9,0-5.4
	c1.6-1.5,4.1-1.5,5.7,0l11.4,11l0,0l0,0l11.4-11c1.6-1.5,4.1-1.5,5.7,0c1.5,1.4,1.6,3.8,0.2,5.3c-0.1,0.1-0.1,0.1-0.2,0.2l-11.4,11
	l0,0h11.5c2.2,0,4,1.7,4,3.8s-1.8,3.8-4,3.8H68v8.8H81.2z"/>
</svg>
