<?xml version="1.0" encoding="utf-8"?>
<!-- Generator: Adobe Illustrator 21.0.0, SVG Export Plug-In . SVG Version: 6.00 Build 0)  -->
<svg version="1.1" id="图层_1" xmlns="http://www.w3.org/2000/svg" xmlns:xlink="http://www.w3.org/1999/xlink" x="0px" y="0px"
	 viewBox="0 0 128 128" style="enable-background:new 0 0 128 128;" xml:space="preserve">
<path d="M17.3,56.1c0-23,18.5-41.7,41.4-41.7s41.4,18.7,41.4,41.7S81.6,97.8,58.7,97.8S17.3,79.1,17.3,56.1 M119.5,115.1L96.3,91.8
	c9.1-9.6,14.1-22.4,14.1-35.7C110.5,27.3,87.3,4,58.7,4S7,27.3,7,56.1s23.2,52.1,51.7,52.1c10.7,0,21.1-3.3,29.8-9.5l23.7,23.8
	c2,2,5.3,2,7.3,0C121.5,120.4,121.5,117.1,119.5,115.1"/>
</svg>
