<?xml version="1.0" encoding="utf-8"?>
<!-- Generator: Adobe Illustrator 21.0.0, SVG Export Plug-In . SVG Version: 6.00 Build 0)  -->
<svg version="1.1" id="图层_1" xmlns="http://www.w3.org/2000/svg" xmlns:xlink="http://www.w3.org/1999/xlink" x="0px" y="0px"
	 viewBox="0 0 128 128" style="enable-background:new 0 0 128 128;" xml:space="preserve">
<path d="M113.3,66.7c-0.1,0.3-13.1,33-49.3,33c-36,0-48.7-31.6-49.4-33.4c-0.5-1-0.5-3.4,0.2-4.8C15,61.2,29.5,28.3,64,28.3
	c34.3,0,48.6,31.9,49.3,33.6C113.9,62.9,113.9,65.3,113.3,66.7 M122.5,57.5c-0.7-1.6-17.4-39.4-58.5-39.4S6.1,55.9,5.6,57.2
	c-2,4-2.1,9.7-0.3,13.2c0.2,0.4,15.6,39.5,58.7,39.5c43.1,0,58.6-39.2,58.6-39.3C124.5,66.7,124.4,60.9,122.5,57.5 M74.2,70.4
	c0,5.6-4.6,10.2-10.2,10.2c-5.6,0-10.2-4.6-10.2-10.2V58.9c0-5.6,4.6-10.2,10.2-10.2c5.6,0,10.2,4.6,10.2,10.2V70.4z M64,38.5
	c-11.3,0-20.4,9.2-20.4,20.4v11.5c0,11.3,9.1,20.4,20.4,20.4c11.3,0,20.4-9.2,20.4-20.4V58.9C84.4,47.6,75.3,38.5,64,38.5z"/>
</svg>
