<?xml version="1.0" encoding="utf-8"?>
<!-- Generator: Adobe Illustrator 21.0.0, SVG Export Plug-In . SVG Version: 6.00 Build 0)  -->
<svg version="1.1" id="图层_1" xmlns="http://www.w3.org/2000/svg" xmlns:xlink="http://www.w3.org/1999/xlink" x="0px" y="0px"
	 viewBox="0 0 128 128" style="enable-background:new 0 0 128 128;" xml:space="preserve">
<path d="M64,44.8c14.4,0,26.1,11.7,26.1,26.1S78.4,96.9,64,96.9S37.9,85.2,37.9,70.8S49.6,44.8,64,44.8 M116.2,27.5
	c-0.8-0.2-1.7-0.4-2.6-0.4H96.5l-3.7-8.5l-1.1-2.5c-2-4.5-7.1-7.9-12-7.9H48.3c-4.9,0-10.1,3.4-12,7.9l-1.1,2.5l-3.7,8.5H14.4
	c-0.9,0-1.8,0.2-2.6,0.4C7.2,28.7,4,32.9,4,37.6v71.6c0,4.9,3.3,8.9,7.8,10.1c0.8,0.2,1.7,0.4,2.6,0.4h99.1c0.9,0,1.8-0.2,2.6-0.4
	c4.6-1.2,7.8-5.4,7.8-10.1V37.6C124,32.8,120.7,28.7,116.2,27.5"/>
</svg>
