<?xml version="1.0" encoding="utf-8"?>
<!-- Generator: Adobe Illustrator 21.0.0, SVG Export Plug-In . SVG Version: 6.00 Build 0)  -->
<svg version="1.1" id="图层_1" xmlns="http://www.w3.org/2000/svg" xmlns:xlink="http://www.w3.org/1999/xlink" x="0px" y="0px"
	 viewBox="0 0 128 128" style="enable-background:new 0 0 128 128;" xml:space="preserve">
<path d="M122.6,44.5v-0.1c0-0.2-0.1-0.5-0.2-0.7l-10.1-25.2c-1.7-5.2-6.7-8.5-12.7-8.5H28.3c-6,0-10.6,3.1-12.2,8.2L5.2,43.8
	c0,0.1-0.1,0.4-0.1,0.6C4.4,47,4,49.3,4,52c0,8.9,4.9,16.9,12.6,21c3.1,1.7,7,2.5,11.2,2.5c7.1,0,13.6-3.1,18.1-8.5
	c4.5,5.2,11,8.4,18.1,8.5c7,0,13.5-3.1,18-8.5c4.5,5.4,11.1,8.5,18.2,8.5c4.4,0,8.1-0.9,11.4-2.7c7.6-4.1,12.4-12.2,12.4-20.9
	C123.8,49.3,123.4,46.7,122.6,44.5z M107.3,65.1c-2,1.1-4.4,1.6-7.2,1.6c-5.2,0-10.1-2.6-12.9-7.2c-0.2-0.4-0.5-1.1-1.1-1.9
	c-0.7-0.7-2-1.7-4.1-1.7c-1.7,0-3.2,0.7-4.1,1.7c-0.6,0.6-0.9,1.2-1.1,1.7c-2.7,4.5-7.5,7.1-12.7,7.2c-5.2,0-10-2.7-12.7-7.2
	c-0.1-0.4-0.5-1.1-1-1.6c-2-2.4-6.6-2.2-8.4-0.1c-0.6,0.7-1,1.5-1.2,1.9c-2.7,4.5-7.6,7.1-12.9,7.1c-2.7,0-5.1-0.5-7.1-1.5
	c-5-2.6-8-7.7-8-13.4c0-1.6,0.2-3.4,0.9-5c0-0.1,0.1-0.2,0.1-0.4L24.4,21c0.2-0.6,0.9-2.6,4.2-2.6h71.2c1.4,0.1,3.7,0.4,4.6,2.7
	l10,25c0,0.1,0.1,0.4,0.1,0.5c0.5,1.6,0.9,3.2,0.9,4.9C115.1,57.3,112.1,62.4,107.3,65.1L107.3,65.1z M110.5,78.9
	c-2.4,0-4.4,1.9-4.4,4.4v23.6c0,1.4-1.1,2.5-2.5,2.5H22.4c-1.4,0-2.5-1.1-2.5-2.4V83.8c0-2.4-2-4.4-4.4-4.4s-4.4,2-4.4,4.4V107
	c0,6.1,5,11.1,11.1,11.1h81.3c6.1,0,11.1-5,11.1-11.1V83.3C114.8,80.9,112.9,78.9,110.5,78.9z M97.7,48.7H28.5
	c-2.4,0-4.4-1.9-4.4-4.4S26,40,28.5,40h69.2c2.4,0,4.4,1.9,4.4,4.4C102,46.7,100,48.7,97.7,48.7z"/>
</svg>
