<?xml version="1.0" encoding="utf-8"?>
<!-- Generator: Adobe Illustrator 21.0.0, SVG Export Plug-In . SVG Version: 6.00 Build 0)  -->
<svg version="1.1" id="图层_1" xmlns="http://www.w3.org/2000/svg" xmlns:xlink="http://www.w3.org/1999/xlink" x="0px" y="0px"
	 viewBox="0 0 128 128" style="enable-background:new 0 0 128 128;" xml:space="preserve">
<path d="M114,88.5l0,15.5l-100,0V88.5C25.4,86.2,34,76.1,34,64c0-11.9-8.4-22.1-20-24.5L14,24l100,0v15.5C102.4,41.9,94,52.1,94,64
	C94,75.9,102.4,86.1,114,88.5 M119,49h5V24c0-5.5-4.5-10-10-10H14C8.5,14,4,18.4,4,24v25h5c8.3,0,15,6.7,15,15c0,8.3-6.7,15-15,15H4
	v25c0,5.5,4.5,10,10,10h100c5.5,0,10-4.5,10-10V79h-5c-8.3,0-15-6.7-15-15C104,55.7,110.7,49,119,49 M79,66c1.9,0,3.5-1.6,3.5-3.5
	c0-1.9-1.6-3.5-3.5-3.5c0,0,0,0,0,0H68.9c0,0,0,0,0,0l10-10c1.4-1.4,1.4-3.6,0-4.9c-1.4-1.4-3.6-1.4-4.9,0L64,54l0,0l0,0L54,44
	c-1.4-1.4-3.6-1.4-5,0c-1.4,1.4-1.4,3.6,0,5l10,10c0,0,0,0,0,0H49c-1.9,0-3.5,1.6-3.5,3.5c0,1.9,1.6,3.5,3.5,3.5c0,0,0,0,0,0h11.5v8
	H49c-1.9,0-3.5,1.6-3.5,3.5c0,1.9,1.6,3.5,3.5,3.5c0,0,0,0,0,0h11.5v3c0,1.9,1.6,3.5,3.5,3.5s3.5-1.6,3.5-3.5v-3H79
	c1.9,0,3.5-1.6,3.5-3.5S80.9,74,79,74c0,0,0,0,0,0H67.5v-8H79z"/>
</svg>
