<?xml version="1.0" encoding="utf-8"?>
<!-- Generator: Adobe Illustrator 21.0.0, SVG Export Plug-In . SVG Version: 6.00 Build 0)  -->
<svg version="1.1" id="图层_1" xmlns="http://www.w3.org/2000/svg" xmlns:xlink="http://www.w3.org/1999/xlink" x="0px" y="0px"
	 viewBox="0 0 128 128" style="enable-background:new 0 0 128 128;" xml:space="preserve">
<path d="M69,54H29c-2.8,0-5-2.2-5-5s2.2-5,5-5h40c2.8,0,5,2.2,5,5S71.8,54,69,54 M24,69c0-2.8,2.2-5,5-5h20c2.8,0,5,2.2,5,5
	s-2.2,5-5,5H29C26.2,74,24,71.8,24,69 M29,84h20c2.8,0,5,2.2,5,5s-2.2,5-5,5H29c-2.8,0-5-2.2-5-5S26.2,84,29,84 M114,14H14
	C8.5,14,4,18.5,4,24V104c0,5.5,4.5,10,10,10h100c5.5,0,10-4.5,10-10V24C124,18.5,119.5,14,114,14"/>
</svg>
