<?xml version="1.0" encoding="utf-8"?>
<!-- Generator: Adobe Illustrator 21.0.0, SVG Export Plug-In . SVG Version: 6.00 Build 0)  -->
<svg version="1.1" id="图层_1" xmlns="http://www.w3.org/2000/svg" xmlns:xlink="http://www.w3.org/1999/xlink" x="0px" y="0px"
	 viewBox="0 0 128 128" style="enable-background:new 0 0 128 128;" xml:space="preserve">
<path d="M99,39H69c-2.8,0-5,2.2-5,5s2.2,5,5,5h30c2.8,0,5-2.2,5-5S101.8,39,99,39 M99,59H79c-2.8,0-5,2.2-5,5c0,2.8,2.2,5,5,5h20
	c2.8,0,5-2.2,5-5C104,61.2,101.8,59,99,59 M99,79H79c-2.8,0-5,2.2-5,5s2.2,5,5,5h20c2.8,0,5-2.2,5-5S101.8,79,99,79 M114,104l-100,0
	l0-80l100,0L114,104L114,104 M114,14H14C8.5,14,4,18.4,4,24V104c0,5.5,4.5,10,10,10h100c5.5,0,10-4.5,10-10V24
	C124,18.5,119.5,14,114,14 M59,81.2H29V78c3.2-1.3,10-3.6,15-3.6c5,0,11.7,2.3,15,3.6V81.2z M39.5,53c0-2.2,1.8-4,4-4
	c2.2,0,4,1.8,4,4v6.6c0,2.2-1.7,4-3.9,4c0,0-0.1,0-0.1,0c-2.2,0-4-1.8-4-4V53z M64.1,69.3c-2.7-1.1-5.5-2.1-8.4-3
	c1.1-2,1.8-4.3,1.8-6.8V53c0-7.7-6.3-14-14-14c-7.7,0-14,6.3-14,14v6.6c0,2.6,0.7,4.9,1.9,7c-4.1,1.3-7.2,2.6-7.4,2.7
	c-3,1.3-5,4.3-5.1,7.6v8.7l0.3,0.8c1,3,3.8,4.9,6.8,4.9h35.8c3.7,0,6.8-2.9,7.1-6.6l0-7.9C69,73.5,66.9,70.4,64.1,69.3L64.1,69.3z"
	/>
</svg>
