<?xml version="1.0" encoding="utf-8"?>
<!-- Generator: Adobe Illustrator 21.0.0, SVG Export Plug-In . SVG Version: 6.00 Build 0)  -->
<svg version="1.1" id="图层_1" xmlns="http://www.w3.org/2000/svg" xmlns:xlink="http://www.w3.org/1999/xlink" x="0px" y="0px"
	 viewBox="0 0 128 128" style="enable-background:new 0 0 128 128;" xml:space="preserve">
<path d="M102.2,36.7l0,76.4h0l-76.4,0l0-76.4L102.2,36.7z M42.2,14.9h43.6v10.9H42.2V14.9z M118.5,25.8H96.7V11.3
	c0-3.5-2.9-7.3-10.9-7.3H42.2c-8,0-10.9,3.8-10.9,7.3v14.6H9.5c-3,0-5.5,2.4-5.5,5.5s2.4,5.5,5.5,5.5h5.5v76.4
	c0,6,4.9,10.9,10.9,10.9h76.4c6,0,10.9-4.9,10.9-10.9V36.7h5.5c3,0,5.5-2.4,5.5-5.5S121.6,25.8,118.5,25.8z M80.4,94.4
	c3,0,5.5-2.4,5.5-5.5V53.1c0-3-2.4-5.5-5.5-5.5c-3,0-5.5,2.4-5.5,5.5V89C74.9,92,77.4,94.4,80.4,94.4 M47.6,94.4
	c3,0,5.5-2.4,5.5-5.5V53.1c0-3-2.4-5.5-5.5-5.5c-3,0-5.5,2.4-5.5,5.5V89C42.2,92,44.6,94.4,47.6,94.4"/>
</svg>
