<?xml version="1.0" encoding="utf-8"?>
<!-- Generator: Adobe Illustrator 21.0.0, SVG Export Plug-In . SVG Version: 6.00 Build 0)  -->
<svg version="1.1" id="图层_1" xmlns="http://www.w3.org/2000/svg" xmlns:xlink="http://www.w3.org/1999/xlink" x="0px" y="0px"
	 viewBox="0 0 128 128" style="enable-background:new 0 0 128 128;" xml:space="preserve">
<path d="M102.1,113.1l-76.2,0V91.3h76.2V113.1z M25.9,14.9L25.9,14.9h76.2l0,65.5H25.9V14.9z M102.1,4H25.9C19.9,4,15,8.9,15,14.9
	v98.3c0,6,4.9,10.9,10.9,10.9h76.2c6,0,10.9-4.9,10.9-10.9V14.9C113,8.9,108.1,4,102.1,4z M58.6,107.6h10.9c3,0,5.4-2.4,5.4-5.5
	s-2.4-5.5-5.4-5.5H58.6c-3,0-5.4,2.4-5.4,5.5S55.5,107.6,58.6,107.6"/>
</svg>
