<?xml version="1.0" encoding="utf-8"?>
<!-- Generator: Adobe Illustrator 21.0.0, SVG Export Plug-In . SVG Version: 6.00 Build 0)  -->
<svg version="1.1" id="图层_1" xmlns="http://www.w3.org/2000/svg" xmlns:xlink="http://www.w3.org/1999/xlink" x="0px" y="0px"
	 viewBox="0 0 128 128" style="enable-background:new 0 0 128 128;" xml:space="preserve">
<path d="M111.9,56.9c-6.3,0-17.8-2.3-21.3-5.9c-2.3-2.1-2.8-4.9-3.1-7.1c-0.5-2.8-0.9-3.5-2-4C80,37.5,72.2,36.3,64,36.3
	c-8.1,0-15.9,1.4-21.3,3.6c-1.1,0.5-1.5,1.3-2,4c-0.4,2.3-0.9,5-3.1,7.1c-2,2-6.1,3.4-9.3,4.1c-3.9,1-7.9,1.5-11.9,1.6
	c-4,0-6.8-0.8-8.3-2.4c-2.4-2.4-3.9-5.5-4.1-8.9c-0.3-2.8,0.3-6.9,4.1-10.6c6.1-6.1,14.5-11,24.6-14.3c9.4-3,20.1-4.6,30.9-4.6
	c10.9,0,21.6,1.6,31.2,4.8c10.3,3.4,18.6,8.3,24.9,14.5c6.4,6.4,4.8,14.8,0.1,19.5C118.5,56.2,115.8,56.9,111.9,56.9z M64,30.2
	c9.1,0,17.6,1.5,23.9,4.1c4.3,1.9,5,5.6,5.5,8.5c0.4,1.6,0.6,3.1,1.5,4c1.5,1.5,10.3,4,17,4c2.9,0,3.9-0.5,4-0.6
	c1.9-1.9,4.3-6.5-0.1-10.9C104.8,28.5,85.4,22,63.9,22c-21.4,0-40.5,6.4-51.3,17.3c-1.8,1.8-2.5,3.8-2.4,5.9c0.1,1.9,1,3.8,2.4,5
	c0.1,0.1,1,0.6,4,0.6c6.6,0,15.4-2.5,16.9-4c0.9-0.9,1.1-2.3,1.4-4c0.5-2.8,1.3-6.6,5.5-8.5C46.6,31.7,55,30.2,64,30.2z M103.4,112
	H24.8c-7.9,0.1-14.4-6.3-14.5-14.3v-1c0-0.5,0.8-11.5,7.6-22.6c4-6.5,9.6-11.9,16.3-15.6c8.3-4.6,18.4-7,29.9-7s21.6,2.4,29.8,7
	c6.6,3.8,12.3,9.1,16.3,15.6c7,11.1,7.6,22.1,7.6,22.6c0.5,7.9-5.5,14.8-13.4,15.3C104.4,112,103.4,112,103.4,112z M64.1,57.6
	c-18.9,0-32.5,6.6-40.8,19.5C17.1,86.8,16.4,97,16.4,97c-0.1,2.4,0.6,4.6,2.3,6.3s3.8,2.6,6.1,2.6h78.6c2.4,0,4.5-0.9,6.1-2.6
	c1.6-1.6,2.4-3.9,2.3-6.3c0-0.1-0.6-10.1-6.9-19.9C96.6,64.1,83,57.6,64.1,57.6z M64.1,99.8c-10,0-18.1-8.1-18.1-18.1
	s8.1-18.1,18.1-18.1s18.1,8.1,18.1,18.1S74.1,99.8,64.1,99.8z M64.1,69.6c-6.6,0-12.1,5.4-12.1,12.1c0,6.6,5.4,12.1,12.1,12.1
	c6.6,0,12.1-5.4,12.1-12.1C76.2,75.1,70.7,69.6,64.1,69.6z"/>
</svg>
