<?xml version="1.0" encoding="utf-8"?>
<!-- Generator: Adobe Illustrator 21.0.0, SVG Export Plug-In . SVG Version: 6.00 Build 0)  -->
<svg version="1.1" id="图层_1" xmlns="http://www.w3.org/2000/svg" xmlns:xlink="http://www.w3.org/1999/xlink" x="0px" y="0px"
	 viewBox="0 0 128 128" style="enable-background:new 0 0 128 128;" xml:space="preserve">
<path d="M64,4C30.9,4,4,30.9,4,64s26.9,60,60,60s60-26.9,60-60S97.1,4,64,4z M93.4,85.5c-0.3,5.6-3.6,8.4-9.8,8.2h-9.9
	c-2.1,0-4-0.5-5.5-1.6c-1.5-1.1-2.4-3.1-2.4-6V66.5c-2.6,0.1-5.3,0.3-7.6,0.4v7.5c-0.1,4.1-1.8,8.1-4.6,11.8
	c-3,3.8-6.4,6.6-10.4,8.6c-2.9,1-4.8,0.5-5.9-1.3c-1.1-1.8-0.5-3.4,1.8-5c3.4-1.8,6-3.9,8.1-6.4s3.3-5.6,3.3-9.5l0.1-5.1
	c-2,0.1-3.9,0.2-5.9,0.2c-2.9,0-4.5-0.9-5.1-2.7s-0.1-3.9,1.5-6.3c2.8-3.5,5.9-7,9.5-10.5H37.4c-1.9-0.3-2.8-1.5-2.8-3.6
	c0-2.1,0.9-3.4,2.8-3.6h22.9c-0.8-0.8-1.4-1.8-1.8-3c-0.6-1.8-0.1-3.3,1.8-4.5s3.9-0.8,6,1.3c1.3,1.5,2.4,3.6,3.6,6.3h20.4
	c1.8,0.4,2.8,1.6,2.8,3.6c0,2-0.9,3.4-2.8,3.6H60.4c-2.8,2.5-5.4,5.3-7.8,8.1c-2.1,2-2.6,3.2-1.4,3.6c8.4-0.1,16.9-0.6,25.6-1.5
	c-1.3-1.3-2.4-2.5-3.2-3.8c-0.9-1.8-0.6-3.4,0.7-4.9c1.4-1.5,3.4-1.3,5.8,0.5c3.6,3.5,6.9,7.9,9.6,13c1.1,2.5,0.8,4.5-1.1,5.9
	c-1.8,1.4-3.5,1-5.3-1.1c-0.5-0.7-1.1-1.8-1.9-3c-2.5,0.3-5.3,0.5-8.1,0.8v16.9c-0.3,2.9,0.9,4.1,3.6,3.8h4.9
	c1.6,0.1,2.6-0.1,3.1-0.8c0.5-0.6,0.8-1.9,0.8-3.6v-5c0.3-1.8,1.5-2.5,3.8-2.5c2.3,0,3.5,0.9,3.8,2.5v8.4H93.4z"/>
</svg>
