<?xml version="1.0" encoding="utf-8"?>
<!-- Generator: Adobe Illustrator 21.0.0, SVG Export Plug-In . SVG Version: 6.00 Build 0)  -->
<svg version="1.1" id="图层_1" xmlns="http://www.w3.org/2000/svg" xmlns:xlink="http://www.w3.org/1999/xlink" x="0px" y="0px"
	 viewBox="0 0 128 128" style="enable-background:new 0 0 128 128;" xml:space="preserve">
<path d="M54.3,59.9H20.7c-3.1,0-5.6,2.5-5.6,5.6c0,3.1,2.5,5.6,5.6,5.6l25.6,0L5.6,111.6c-2.1,2.2-2.1,5.7,0.1,7.9
	c2.2,2.1,5.6,2.1,7.8,0l40.8-40.6v25.6c0,3.1,2.5,5.6,5.6,5.6c3.1,0,5.6-2.5,5.6-5.6V70.9C65.4,64.8,60.4,59.9,54.3,59.9 M122.4,8.6
	c-2.2-2.2-5.7-2.2-7.9,0c0,0,0,0,0,0L76.5,46.4V20.9c0-3.1-2.5-5.6-5.6-5.6s-5.6,2.5-5.6,5.6v33.5c0,6.1,5,11.1,11.1,11.1h33.6
	c3.1,0,5.6-2.5,5.6-5.6c0-3.1-2.5-5.6-5.6-5.6l-25.7,0l38-37.9C124.5,14.3,124.5,10.8,122.4,8.6C122.4,8.6,122.4,8.6,122.4,8.6"/>
</svg>
