<?xml version="1.0" encoding="utf-8"?>
<!-- Generator: Adobe Illustrator 21.0.0, SVG Export Plug-In . SVG Version: 6.00 Build 0)  -->
<svg version="1.1" id="图层_1" xmlns="http://www.w3.org/2000/svg" xmlns:xlink="http://www.w3.org/1999/xlink" x="0px" y="0px"
	 viewBox="0 0 128 128" style="enable-background:new 0 0 128 128;" xml:space="preserve">
<path d="M80.3,64c0,3.5,2.8,6.3,6.3,6.3s6.3-2.8,6.3-6.3c0-3.5-2.8-6.3-6.3-6.3S80.3,60.5,80.3,64z M114,38.9H59
	c-5.5,0-10,4.5-10,10v30c0,5.5,4.5,10,10,10h55c5.5,0,10-4.5,10-10v-30C124,43.4,119.5,38.9,114,38.9z M114,78.9H59v-30h55V78.9z
	 M104,82.1V114H14V14h90v30.9h10V14c0-5.5-4.5-10-10-10H14C8.5,4,4,8.5,4,14v100c0,5.5,4.5,10,10,10h90c5.5,0,10-4.5,10-10V82.1H104
	z"/>
</svg>
