<?xml version="1.0" encoding="utf-8"?>
<!-- Generator: Adobe Illustrator 21.0.0, SVG Export Plug-In . SVG Version: 6.00 Build 0)  -->
<svg version="1.1" id="图层_1" xmlns="http://www.w3.org/2000/svg" xmlns:xlink="http://www.w3.org/1999/xlink" x="0px" y="0px"
	 viewBox="0 0 128 128" style="enable-background:new 0 0 128 128;" xml:space="preserve">
<path d="M102.7,54L74,25.3l10.9-10.9l28.7,28.7C113.6,43.1,102.7,54,102.7,54z M43.3,113.5L14.5,84.7l0,0l52.1-52.1l28.7,28.7
	L43.3,113.5L43.3,113.5z M14.4,113.6V99.3l14.3,14.3L14.4,113.6L14.4,113.6z M121,35.8L92.2,7c-1.9-2-4.6-3.1-7.4-3
	c-2.8,0-5.4,1.1-7.3,3.1L7.2,77.4c-2.3,2.3-3.4,5.6-2.9,8.8C4.2,86.7,4,87.1,4,87.6v26.1c0,5.7,4.6,10.4,10.4,10.4h26.1
	c0.5,0,0.9-0.1,1.3-0.3c0.5,0.1,1,0.1,1.5,0.1c2.7,0,5.4-1,7.4-3.1l70.3-70.3C125,46.4,125,39.9,121,35.8L121,35.8z"/>
</svg>
