<?xml version="1.0" encoding="utf-8"?>
<!-- Generator: Adobe Illustrator 21.0.0, SVG Export Plug-In . SVG Version: 6.00 Build 0)  -->
<svg version="1.1" id="图层_1" xmlns="http://www.w3.org/2000/svg" xmlns:xlink="http://www.w3.org/1999/xlink" x="0px" y="0px"
	 viewBox="0 0 128 128" style="enable-background:new 0 0 128 128;" xml:space="preserve">
<path d="M91.8,118.1l-24.2-8c-1.1-0.3-2.3-0.5-3.7-0.5c-1.4,0-2.5,0.3-3.7,0.5l-24.2,8v-16.3c-1.9-1.1-3.9-2.3-5.5-3.6v20.3
	c0,3,2.5,5.5,5.5,5.5c0.5,0,1.1,0,1.6-0.2l24.2-8c0.5-0.3,1.1-0.3,1.6-0.3s1.1,0,1.6,0.3l24.2,8c0.5,0.2,1.1,0.2,1.6,0.2
	c3,0,5.5-2.5,5.5-5.5V98.3c-1.6,1.4-3.7,2.5-5.5,3.6v16.4C91.2,118.1,91.8,118.1,91.8,118.1z M64,4C36.5,4,14,26.5,14,53.9
	s22.5,49.9,50,49.9s50-22.5,50-49.9S91.5,4,64,4z M64,98.3c-24.4,0-44.5-20-44.5-44.4S39.6,9.5,64,9.5s44.5,20,44.5,44.4
	S88.4,98.3,64,98.3z M64,15.1c-21.4,0-38.9,17.5-38.9,38.7c0,21.4,17.5,38.9,38.9,38.9s38.9-17.5,38.9-38.8
	C102.9,32.5,85.4,15.1,64,15.1z M64,87.1c-18.4,0-33.4-15-33.4-33.3s15-33.3,33.4-33.3s33.4,15,33.4,33.3S82.4,87.1,64,87.1z"/>
<path d="M68,39.5c-1.4-0.4-3.7-0.6-6.7-0.6H53v30h8.3c2.6,0,4.7-0.2,6.2-0.8c1.5-0.5,2.6-1.1,3.5-2c1.3-1.3,2.3-2.9,2.9-5
	c0.8-2.1,1-4.6,1-7.6c0-4.1-0.6-7.3-2-9.5C71.6,41.8,69.9,40.3,68,39.5z"/>
<path d="M64,15.3c-21.5,0-39,17.4-39,38.7s17.5,38.8,39,38.8s39-17.4,39-38.8S85.5,15.3,64,15.3z M79.4,61.9
	c-0.6,2.4-1.6,4.2-2.6,5.8c-1.1,1.5-2.3,2.8-3.7,3.6c-1.3,0.9-2.9,1.5-4.8,2c-1.9,0.5-4,0.6-6.4,0.6H47.6V34.3h13.6
	c3,0,5.4,0.3,7.1,0.6c2.3,0.5,4.2,1.5,5.8,2.9c2.1,1.8,3.7,4,4.7,6.8c1,2.8,1.5,5.9,1.5,9.4C80.4,56.9,80,59.4,79.4,61.9z"/>
</svg>
