<?xml version="1.0" encoding="utf-8"?>
<!-- Generator: Adobe Illustrator 21.0.0, SVG Export Plug-In . SVG Version: 6.00 Build 0)  -->
<svg version="1.1" id="图层_1" xmlns="http://www.w3.org/2000/svg" xmlns:xlink="http://www.w3.org/1999/xlink" x="0px" y="0px"
	 viewBox="0 0 128 128" style="enable-background:new 0 0 128 128;" xml:space="preserve">
<path d="M118.5,91.3h-16.4v-60c0-3-2.4-5.5-5.5-5.5h-60V9.5c0-3-2.4-5.5-5.5-5.5s-5.5,2.4-5.5,5.5v16.4H9.5c-3,0-5.5,2.4-5.5,5.5
	s2.4,5.5,5.5,5.5h16.4v60c0,3,2.4,5.5,5.5,5.5h60v16.4c0,3,2.4,5.5,5.5,5.5c3,0,5.5-2.4,5.5-5.5v-16.4h16.4c3,0,5.5-2.4,5.5-5.5
	C124,93.7,121.6,91.3,118.5,91.3z M36.7,91.3V36.7h54.5v54.5C91.3,91.3,36.7,91.3,36.7,91.3z"/>
</svg>
