<?xml version="1.0" encoding="utf-8"?>
<!-- Generator: Adobe Illustrator 21.0.0, SVG Export Plug-In . SVG Version: 6.00 Build 0)  -->
<svg version="1.1" id="图层_1" xmlns="http://www.w3.org/2000/svg" xmlns:xlink="http://www.w3.org/1999/xlink" x="0px" y="0px"
	 viewBox="0 0 128 128" style="enable-background:new 0 0 128 128;" xml:space="preserve">
<path d="M22.8,69.9c2.2-0.2,3.8-1.1,5.4-2.8c4.1-4.6,8.6-6.6,13.2-5.9c3.8,0.6,6.9,2.8,9.1,4.5c0.7,0.6,1.4,1,2,1.4
	c2.4,1.3,4.2,1.3,5.1,0.6c0.6-0.5,0.6-1.3,0.4-1.9c-0.5-1.7-4.3-9.5-6.3-13.1c-1.9-3.4-2.1-7.4-0.5-10.6c2.1-4.1,6.7-6.4,13.8-7.1
	h0.2c1.7-0.1,4.6-0.5,5.5-1.9c0.9-1.5,0.2-4.9-1.8-9c-1.7-2.7-2.1-5.8-1.3-8.9c0.3-1.1,0.7-2.2,1.4-3.3c-1.6-0.2-3.3-0.2-4.9-0.2
	c-7.1,0-14,1.4-20.4,4.2C37.4,18.3,31.8,22.1,27,27c-4.8,4.8-8.6,10.5-11.3,16.7C13,50.2,11.5,57,11.5,64.1c0,1.4,0.1,2.6,0.2,3.9
	C16.2,69.6,20,70.2,22.8,69.9z M101.3,92.4c-1.5,2.6-3.3,5.7-6.6,7.8c-3.6,2.2-8.3,2.7-14.7,1.7c-7.1-1.2-13.4,0.3-16.2,3.8
	c-2.6,3.3-1.6,8.1-0.2,11.8H64c7.1,0,14-1.4,20.4-4.2c6.2-2.6,11.8-6.4,16.7-11.3c4.8-4.8,8.6-10.5,11.3-16.7
	c0.2-0.3,0.2-0.6,0.4-0.9c-3,0.3-5.4,1-7,2.3C103.8,88.2,102.6,90.2,101.3,92.4z M112.4,43.6c-2.6-6.2-6.4-11.8-11.3-16.7
	c-4.8-4.8-10.5-8.6-16.7-11.3c-2.3-1-4.6-1.8-7-2.4c-1.3,1-2.2,2.3-2.6,3.7c-0.3,1.1-0.2,2.2,0.5,3.2l0.1,0.2l0.1,0.2
	c3.4,6.8,3.9,12.3,1.6,16.2c-2,3.4-5.9,5.4-11.5,5.6c-4.2,0.4-7,1.5-7.8,3.1c-0.6,1-0.2,2.5,0.3,3.4c1.7,3,6.2,11.9,7,14.7
	c1.1,3.8,0,7.5-2.9,9.8c-3.4,2.7-8.6,2.8-13.4,0.1c-1-0.5-1.8-1.2-2.8-1.9c-4.6-3.4-7.4-5-12.2,0.4c-2.7,3-6,4.8-10,5.3
	c-0.8,0.1-1.6,0.2-2.5,0.2c-2.5,0-5.3-0.4-8.3-1.3c0.6,2.8,1.5,5.5,2.7,8.2c2.6,6.2,6.4,11.8,11.3,16.7c4.8,4.8,10.5,8.6,16.7,11.3
	c3.8,1.7,7.9,2.8,12,3.4c-0.6-2.4-1-4.6-0.9-6.8c0.2-3.4,1.2-6.4,3.2-9c2.3-3,5.9-5.1,10.3-6.2c3.9-1,8.4-1,13-0.3
	c4.5,0.7,7.7,0.5,9.6-0.6c1.7-1,2.7-2.8,4-5c2.8-5,6.7-11.7,20.4-11.9c0.9-3.8,1.4-7.8,1.4-11.9C116.5,56.9,115.1,50,112.4,43.6
	L112.4,43.6z M64,4C30.9,4,4,30.9,4,64s26.9,60,60,60s60-26.9,60-60S97.1,4,64,4z M64,114c-27.6,0-50-22.4-50-50s22.4-50,50-50
	s50,22.4,50,50S91.6,114,64,114z"/>
</svg>
