<?xml version="1.0" encoding="utf-8"?>
<!-- Generator: Adobe Illustrator 21.0.0, SVG Export Plug-In . SVG Version: 6.00 Build 0)  -->
<svg version="1.1" id="图层_1" xmlns="http://www.w3.org/2000/svg" xmlns:xlink="http://www.w3.org/1999/xlink" x="0px" y="0px"
	 viewBox="0 0 128 128" style="enable-background:new 0 0 128 128;" xml:space="preserve">
<path d="M85.5,78.5c2,2,2,5.1,0,7.1s-5.1,2-7.1,0L63,70.1L47.5,85.5c-1.9,2-5.1,2-7,0c0,0,0,0,0,0c-2-2-2-5.1,0-7.1L55.9,63
	L40.5,47.5c-1.9-2-1.9-5.2,0.1-7.1c1.9-1.9,5-1.9,6.9,0L63,55.9l15.5-15.5c2-1.9,5.2-1.9,7.1,0.1c1.9,1.9,1.9,5,0,6.9L70.1,63
	C70.1,63,85.5,78.5,85.5,78.5z M64,4C30.9,4,4,30.9,4,64c0,33.1,26.9,60,60,60c33.1,0,60-26.9,60-60C124,30.9,97.1,4,64,4z"/>
</svg>
