<?xml version="1.0" encoding="utf-8"?>
<!-- Generator: Adobe Illustrator 21.0.0, SVG Export Plug-In . SVG Version: 6.00 Build 0)  -->
<svg version="1.1" id="图层_1" xmlns="http://www.w3.org/2000/svg" xmlns:xlink="http://www.w3.org/1999/xlink" x="0px" y="0px"
	 viewBox="0 0 128 128" style="enable-background:new 0 0 128 128;" xml:space="preserve">
<path d="M113,74.2c-6,0.9-11.3,4.5-14.3,9.7c-3.1,5.2-3.5,11.5-1.3,17.2c-5.1,4.6-11.2,8-17.7,10.2c-3.8-4.7-9.5-7.5-15.6-7.5
	s-11.8,2.7-15.6,7.5c-6.5-2.1-12.6-5.6-17.7-10.2c2.2-5.6,1.7-11.9-1.3-17.2c-3-5.3-8.3-8.8-14.3-9.7c-1.4-6.7-1.4-13.6,0-20.3
	c6-0.9,11.3-4.5,14.3-9.7C32.6,39,33,32.6,30.8,27c5.1-4.6,11.2-8,17.7-10.2c3.8,4.7,9.5,7.5,15.6,7.5c6.2,0,11.9-2.8,15.6-7.5
	c6.5,2.1,12.6,5.6,17.7,10.2c-2.2,5.6-1.7,12,1.3,17.2S107,53,113,53.9C114.4,60.5,114.4,67.5,113,74.2 M121.7,47.7
	c-0.6-2.3-2.8-3.8-5.1-3.6c-3.8,0.3-7.4-1.7-9.3-5s-1.8-7.3,0.3-10.5c1.3-1.9,1.1-4.5-0.6-6.2c-7.8-8-17.6-13.6-28.4-16.3
	C76.4,5.6,74,6.7,73,8.8c-1.7,3.4-5.2,5.5-9,5.5c-3.8,0-7.3-2.1-9-5.5c-1-2.1-3.4-3.2-5.7-2.6c-10.8,2.7-20.6,8.3-28.4,16.3
	c-1.6,1.7-1.9,4.3-0.6,6.2c2.1,3.1,2.2,7.2,0.3,10.5c-1.9,3.3-5.5,5.2-9.3,5c-2.4-0.2-4.5,1.3-5.1,3.6C4.8,53,4,58.5,4,64
	s0.8,11,2.3,16.3c0.6,2.3,2.8,3.8,5.1,3.6c3.8-0.2,7.4,1.7,9.3,5c1.9,3.3,1.8,7.3-0.3,10.5c-1.3,1.9-1.1,4.5,0.6,6.2
	c7.8,8,17.6,13.6,28.4,16.3c2.3,0.6,4.7-0.5,5.7-2.6c1.7-3.4,5.2-5.5,9-5.5s7.3,2.1,9,5.5c1,2.1,3.4,3.2,5.7,2.6
	c10.8-2.7,20.6-8.4,28.4-16.3c1.6-1.7,1.9-4.3,0.6-6.2c-2.1-3.1-2.2-7.2-0.3-10.5c1.9-3.3,5.5-5.2,9.3-5c2.3,0.1,4.5-1.4,5.1-3.6
	C123.2,75,124,69.5,124,64S123.2,53,121.7,47.7 M64,78.9c-8.3,0-15-6.7-15-14.9s6.7-14.9,15-14.9S79,55.8,79,64S72.3,78.9,64,78.9
	 M64,39.2c-13.8,0-25,11.1-25,24.9C39,77.8,50.2,89,64,89s25-11.3,25-25S77.8,39.2,64,39.2"/>
</svg>
