<?xml version="1.0" encoding="utf-8"?>
<!-- Generator: Adobe Illustrator 21.0.0, SVG Export Plug-In . SVG Version: 6.00 Build 0)  -->
<svg version="1.1" id="图层_1" xmlns="http://www.w3.org/2000/svg" xmlns:xlink="http://www.w3.org/1999/xlink" x="0px" y="0px"
	 viewBox="0 0 128 128" style="enable-background:new 0 0 128 128;" xml:space="preserve">
<path d="M94,103.9c-8.6,6.5-19.1,10.1-30,10.1s-21.4-3.5-30-10.1C21.9,94.8,14,80.3,14,64c0-27.6,22.4-50,50-50s50,22.4,50,50
	C114,80.3,106.1,94.8,94,103.9 M64,4C30.9,4,4,30.9,4,64c0,22.1,12.1,41.5,30,51.9c9.1,5.3,19.5,8.1,30,8.1s20.9-2.8,30-8.1
	c17.9-10.4,30-29.8,30-51.9C124,30.9,97.1,4,64,4 M91.8,86.1v0.2c2.1,0.2,3.1,1.4,3.1,3.1c0,1.9-1.3,2.9-3.5,3.1H76.3
	c-3.4,0-6.8-0.4-9.9-1.3s-5.7-2.3-7.9-4.4c-1.5,3-3,5.4-4.4,6.9c-1.8,1.5-3.5,1.6-5,0.4c-1.5-1.3-1.6-2.9-0.4-5.1
	c3.1-4.1,5.1-9,6.1-14.8c0.7-2.6,2.1-3.6,4.1-3.2c2,0.4,3,1.8,2.9,4.3c-0.4,1.8-0.6,3.5-1,5.2c2,1.9,4.2,3.4,6.9,4.3v-15H53.6
	c-1.9-0.4-2.9-1.6-2.8-3.5c-1.1,0.8-2.3,1.5-3.6,2.3v18.9c0,3.3-1.5,5.1-4.5,5.8c-2.5,0.1-4.8,0-6.8-0.6c-1.8-0.8-2.6-1.9-2.6-3.5
	c0-1.6,1-2.6,2.9-3.1c0.9,0,1.8,0.1,2.8,0.3c0.9,0,1.4-0.4,1.5-1.1V71.4c-0.9,0.4-1.9,0.8-3,1.1c-2,0.4-3.4-0.4-4-2.1
	c-0.6-1.9,0-3.2,1.9-4.1c1.8-0.8,3.5-1.5,5.1-2.3V50.3h-4.4c-1.8-0.3-2.6-1.4-2.6-3.3c0-2,0.9-3.1,2.6-3.4h4.1v-8.2
	c0.3-1.8,1.4-2.6,3.5-2.6s3.2,0.9,3.5,2.6v8.2h2.9c1.8,0.3,2.8,1.4,2.8,3.4c0,2-0.9,3-2.8,3.3h-2.9v9.9c0.4,0,0.9-0.3,1.5-0.6
	c1.6-0.7,2.8-0.6,3.6,0.3c0.9,0.9,1.1,2,1.1,3.2h37.2c1.8,0.4,2.8,1.5,2.8,3.5s-0.9,3.1-2.8,3.4H75.4v4.5h14.4
	c1.8,0.3,2.7,1.4,2.7,3.1c0,1.8-0.9,2.8-2.7,3H75.4v5.7h16.5v-0.1H91.8z M87,35.3v0.3c2.5,0,3.8,1.3,3.8,3.6v17.4
	c0,2.5-1.1,3.8-3.6,3.6H57.9c-2.6,0.1-3.9-1.1-3.8-3.6V39c-0.1-2.5,1.1-3.6,3.8-3.6h29.3v-0.1H87z M83.4,45l0.1-0.8
	c0-1.4-0.6-2.1-2-2.1H63.3c-1.5,0-2.1,0.8-2,2.1v1h22.1V45z M61.3,50.7v0.1c-0.1,2,0.5,2.9,2,2.8h18.3c1.4,0.1,2-0.6,2-2.1v-1H61.3
	V50.7z"/>
</svg>
