<?xml version="1.0" encoding="utf-8"?>
<!-- Generator: Adobe Illustrator 21.0.0, SVG Export Plug-In . SVG Version: 6.00 Build 0)  -->
<svg version="1.1" id="图层_1" xmlns="http://www.w3.org/2000/svg" xmlns:xlink="http://www.w3.org/1999/xlink" x="0px" y="0px"
	 viewBox="0 0 128 128" style="enable-background:new 0 0 128 128;" xml:space="preserve">
<path d="M59.3,66.5V35.7c0-2.7,2.2-4.9,4.9-4.9c2.7,0,4.9,2.2,4.9,4.9v28.7l15.1,15.1c1.9,2,1.8,5.1-0.1,7c-1.9,1.9-5,1.9-6.9,0
	L60.7,70C59.8,69.1,59.3,67.9,59.3,66.5 M64.2,11c-30,0-54.4,24.4-54.4,54.4c0,15.8,6.8,29.9,17.5,39.9c-0.8,0.2-1.5,0.6-2,1.2
	l-9.1,9.1c-1.9,1.9-1.9,5.1,0,7c1.9,1.9,5.1,1.9,7,0l9.1-9.1c0.8-0.8,1.3-1.9,1.4-3.1c9,6.2,19.7,9.5,30.6,9.5c11,0,21.3-3.3,29.9-9
	c0.2,1,0.6,1.9,1.3,2.6l9.1,9.1c1.9,1.9,5,1.9,7,0c0,0,0,0,0,0c1.9-1.9,1.9-5.1,0-7l-9.1-9.1c-0.4-0.4-0.9-0.7-1.4-1
	c10.9-10,17.7-24.2,17.7-40.1C118.7,35.4,94.2,11,64.2,11 M13.3,28.5l14-14c1.9-2,1.8-5.1-0.2-7c-1.9-1.8-4.9-1.8-6.8,0l-14,14
	c-1.9,1.9-1.9,5.1,0,7C8.2,30.4,11.3,30.4,13.3,28.5 M121.7,19.4l-14-14c-1.9-1.9-5.1-1.9-7,0c-1.9,1.9-1.9,5.1,0,7l0,0l14,14
	c1.9,1.9,5,1.9,7,0c0,0,0,0,0,0C123.7,24.5,123.7,21.4,121.7,19.4C121.7,19.5,121.7,19.4,121.7,19.4"/>
</svg>
