<?xml version="1.0" encoding="utf-8"?>
<!-- Generator: Adobe Illustrator 21.0.0, SVG Export Plug-In . SVG Version: 6.00 Build 0)  -->
<svg version="1.1" id="图层_1" xmlns="http://www.w3.org/2000/svg" xmlns:xlink="http://www.w3.org/1999/xlink" x="0px" y="0px"
	 viewBox="0 0 128 128" style="enable-background:new 0 0 128 128;" xml:space="preserve">
<path d="M64,4C30.9,4,4,30.9,4,64s26.9,60,60,60s60-26.9,60-60S97.3,4,64,4z M100.1,56.9c-1.1,0.3-2.9,0.9-4.8,2l-4.8,2.9
	c-12.1,8-29,23.9-33.9,32.7C48.6,84.4,36,73.9,27.9,71l19.3-9.4l8.5,16.5c0,0,11.6-17,26.3-30.9l5-4.5c4.4-3.8,8.9-6.9,13.5-9.3
	C99.8,41.5,96.5,48.5,100.1,56.9L100.1,56.9z"/>
</svg>
