<?xml version="1.0" encoding="utf-8"?>
<!-- Generator: Adobe Illustrator 21.0.0, SVG Export Plug-In . SVG Version: 6.00 Build 0)  -->
<svg version="1.1" id="图层_1" xmlns="http://www.w3.org/2000/svg" xmlns:xlink="http://www.w3.org/1999/xlink" x="0px" y="0px"
	 viewBox="0 0 128 128" style="enable-background:new 0 0 128 128;" xml:space="preserve">
<path d="M65,110.3c-3.9-9-8.3-24.7,0.5-37.1c0.2-0.2,0.3-0.3,0.5-0.4C72.3,68.1,76.3,60.9,77,53c0.1-0.9,0.2-1.7,0.2-2.6V34
	c0-15.2-11.8-27.5-26.4-27.5S24.5,18.8,24.5,34v16.4c0,9.4,4.5,17.7,11.5,22.7c-8.5,2-16.7,4.8-24.7,8.3C7.1,83.1,4,87.9,4,92.6
	v17.8c0,0.6,0.1,1.1,0.3,1.6c1.3,4.1,5,6.9,9.1,6.9h48.4c1.1,0,2.2-0.5,3.1-1.2c1-0.9,1.7-2.2,1.7-3.8c0-0.1-0.1-0.3-0.1-0.5
	C66.1,112.3,65.6,111.3,65,110.3 M104.7,94.8h-6.1v6.7c0,1.9-1.5,3.5-3.4,3.5c-1.9,0-3.4-1.6-3.4-3.5c0,0,0,0,0,0v-6.7h-6.3
	c-1.9,0-3.4-1.6-3.4-3.5c0,0,0,0,0,0c0-1.9,1.5-3.5,3.4-3.5h6.3v-6.3c0-1.9,1.5-3.5,3.4-3.5c1.9,0,3.4,1.6,3.4,3.5v6.3h6.1
	c1.9,0,3.4,1.6,3.4,3.5C108.1,93.3,106.6,94.8,104.7,94.8 M102.2,62.4c-2.3-0.6-4.6-0.9-7-0.9c-15.9,0-28.8,13.5-28.8,30
	c0,16.5,12.9,30,28.8,30c2.4,0,4.8-0.3,7-0.9c12.5-3.3,21.8-15,21.8-29.1S114.7,65.7,102.2,62.4"/>
</svg>
