<?xml version="1.0" encoding="utf-8"?>
<!-- Generator: Adobe Illustrator 21.0.0, SVG Export Plug-In . SVG Version: 6.00 Build 0)  -->
<svg version="1.1" id="图层_1" xmlns="http://www.w3.org/2000/svg" xmlns:xlink="http://www.w3.org/1999/xlink" x="0px" y="0px"
	 viewBox="0 0 128 128" style="enable-background:new 0 0 128 128;" xml:space="preserve">
<path d="M30.4,54.4c-4,0-7.2-3.2-7.2-7.2c0-4,3.2-7.2,7.2-7.2l0,0c4,0,7.2,3.2,7.2,7.2S34.4,54.4,30.4,54.4 M121.5,35.9
	c-1.6-0.8-3.5-0.7-4.9,0.3l-13.7,9.3V30.6c0-5.3-4.3-9.6-9.6-9.6H13.6C8.3,21,4,25.3,4,30.6v66.9c0,5.3,4.3,9.6,9.6,9.6h79.6
	c5.3,0,9.6-4.3,9.6-9.6v-6.4l0.1-3.8l13.7,9.3c2.2,1.5,5.2,0.9,6.7-1.2c0.5-0.8,0.8-1.7,0.8-2.7V40.1C124,38.3,123,36.7,121.5,35.9"
	/>
</svg>
