<?xml version="1.0" encoding="utf-8"?>
<!-- Generator: Adobe Illustrator 21.0.0, SVG Export Plug-In . SVG Version: 6.00 Build 0)  -->
<svg version="1.1" id="图层_1" xmlns="http://www.w3.org/2000/svg" xmlns:xlink="http://www.w3.org/1999/xlink" x="0px" y="0px"
	 viewBox="0 0 128 128" style="enable-background:new 0 0 128 128;" xml:space="preserve">
<path d="M64,113.1c-10.6-12.8-35.6-46.6-35.6-63.3c0-19.6,16-35.6,35.6-35.6s35.6,16,35.6,35.6C99.6,66.4,74.6,100.3,64,113.1 M64,4
	C38.8,4,18.1,24.6,18.1,49.9c0,23.6,34.6,65.8,38.8,70.6c1.8,2.1,4.4,3.5,7.1,3.5s5.4-1.3,7.1-3.5c4-4.8,38.8-47,38.8-70.6
	C109.9,24.6,89.3,4,64,4 M64,60c-5.6,0-10.3-4.6-10.3-10.3S58.4,39.5,64,39.5s10.3,4.6,10.3,10.3S69.6,60,64,60 M64,29.5
	c-11.3,0-20.4,9.1-20.4,20.4S52.8,70.3,64,70.3s20.4-9.1,20.4-20.4S75.3,29.5,64,29.5"/>
</svg>
