<?xml version="1.0" encoding="utf-8"?>
<!-- Generator: Adobe Illustrator 21.0.0, SVG Export Plug-In . SVG Version: 6.00 Build 0)  -->
<svg version="1.1" id="图层_1" xmlns="http://www.w3.org/2000/svg" xmlns:xlink="http://www.w3.org/1999/xlink" x="0px" y="0px"
	 viewBox="0 0 128 128" style="enable-background:new 0 0 128 128;" xml:space="preserve">
<path d="M44.8,34.8c0-11.2,9.1-20.3,20.3-20.3c11.2,0,20.3,9.1,20.3,20.3V51H44.8C44.8,51,44.8,34.8,44.8,34.8z M69.2,97.9
	c0,2.9-2.3,5.2-5.2,5.2c-2.9,0-5.2-2.3-5.2-5.2V77c0-2.9,2.3-5.2,5.2-5.2c2.9,0,5.2,2.3,5.2,5.2V97.9z M111,51H95.8V34.8
	C95.8,17.8,82.1,4,65.1,4C48.2,4,34.4,17.8,34.4,34.8V51H17c-5.8,0-10.4,4.7-10.4,10.5v52.1c0,5.8,4.6,10.4,10.4,10.4h94
	c5.8,0,10.4-4.7,10.4-10.4V61.4C121.4,55.7,116.8,51,111,51z"/>
</svg>
