<?xml version="1.0" encoding="utf-8"?>
<!-- Generator: Adobe Illustrator 21.0.0, SVG Export Plug-In . SVG Version: 6.00 Build 0)  -->
<svg version="1.1" id="图层_1" xmlns="http://www.w3.org/2000/svg" xmlns:xlink="http://www.w3.org/1999/xlink" x="0px" y="0px"
	 viewBox="0 0 128 128" style="enable-background:new 0 0 128 128;" xml:space="preserve">
<path d="M72.6,66.5c-1.7,3-4.9,5-8.6,5c-3.6,0-6.8-1.9-8.6-5H72.6z M44,26.5h40v-10H44V26.5z M114,26.5H94V13.2
	c0-3.2-2.6-6.7-10-6.7H44c-7.4,0-10,3.4-10,6.7v13.3H14c-5.5,0-10,4.5-10,10v20.2h120V36.5C124,31,119.5,26.5,114,26.5z M114,66.3
	c-0.4,0.1-0.8,0.2-1.2,0.2H83.3c-2.2,8.6-10,15-19.3,15c-9.3,0-17-6.4-19.3-15H4v45c0,5.5,4.5,10,10,10h100c5.5,0,10-4.5,10-10v-45
	h-10V66.3z"/>
</svg>
