<?xml version="1.0" encoding="utf-8"?>
<!-- Generator: Adobe Illustrator 21.0.0, SVG Export Plug-In . SVG Version: 6.00 Build 0)  -->
<svg version="1.1" id="图层_1" xmlns="http://www.w3.org/2000/svg" xmlns:xlink="http://www.w3.org/1999/xlink" x="0px" y="0px"
	 viewBox="0 0 128 128" style="enable-background:new 0 0 128 128;" xml:space="preserve">
<path d="M69.5,113.1l-54.5,0l0-16.4l0-27.3l0-10.9l0-27.3l0-16.4h98.2l0,0l0,98.2L69.5,113.1z M113.1,4H14.9C8.9,4,4,8.9,4,14.9
	v98.3c0,6,4.9,10.9,10.9,10.9h98.3c6,0,10.9-4.9,10.9-10.8V14.9C124,8.8,119.1,4,113.1,4z M92.7,31.3H54.6c-3,0-5.5,2.4-5.5,5.5
	c0,3,2.4,5.5,5.5,5.5h38.2c3,0,5.5-2.4,5.5-5.5C98.2,33.7,95.8,31.3,92.7,31.3 M92.7,58.5H54.6c-3,0-5.5,2.4-5.5,5.5
	c0,3,2.4,5.5,5.5,5.5h38.2c3,0,5.5-2.4,5.5-5.5C98.2,61,95.8,58.5,92.7,58.5 M92.7,85.8H54.6c-3,0-5.5,2.4-5.5,5.5s2.4,5.5,5.5,5.5
	h38.2c3,0,5.5-2.4,5.5-5.5S95.8,85.8,92.7,85.8 M36.7,31.3c-3,0-5.5,2.4-5.5,5.5c0,3,2.4,5.5,5.5,5.5c3,0,5.5-2.4,5.5-5.5
	C42.2,33.7,39.7,31.3,36.7,31.3 M36.7,58.5c-3,0-5.5,2.4-5.5,5.5c0,3,2.4,5.5,5.5,5.5c3,0,5.5-2.4,5.5-5.5
	C42.2,61,39.7,58.5,36.7,58.5 M36.7,85.8c-3,0-5.5,2.4-5.5,5.5s2.4,5.5,5.5,5.5c3,0,5.5-2.4,5.5-5.5S39.7,85.8,36.7,85.8"/>
</svg>
