<?xml version="1.0" encoding="utf-8"?>
<!-- Generator: Adobe Illustrator 21.0.0, SVG Export Plug-In . SVG Version: 6.00 Build 0)  -->
<svg version="1.1" id="图层_1" xmlns="http://www.w3.org/2000/svg" xmlns:xlink="http://www.w3.org/1999/xlink" x="0px" y="0px"
	 viewBox="0 0 128 128" style="enable-background:new 0 0 128 128;" xml:space="preserve">
<path d="M63.3,53.6h18.3c1.4,0.1,2-0.6,2-2.1v-1H61.3v0.4C61.1,52.9,61.8,53.8,63.3,53.6z M61.3,45.1h22.1v-0.3l0.1-0.7
	c0-1.4-0.6-2.1-2-2.1H63.3c-1.5,0-2.1,0.8-2,2.1C61.3,44.1,61.3,45.1,61.3,45.1z M64,4C30.9,4,4,30.9,4,64s26.9,60,60,60
	s60-26.9,60-60S97.1,4,64,4z M54,39c-0.1-2.5,1.1-3.6,3.8-3.6H87c2.5,0,3.8,1.3,3.8,3.6v17.4c0,2.5-1.1,3.8-3.6,3.6H57.9
	c-2.6,0.1-3.9-1.1-3.8-3.6V39H54z M91.4,92.8H76.3c-3.4,0-6.8-0.4-9.9-1.3s-5.7-2.3-7.9-4.4c-1.5,3-3,5.4-4.4,6.9
	c-1.8,1.5-3.5,1.6-5,0.4c-1.5-1.3-1.6-2.9-0.4-5.1c3.1-4.1,5.1-9,6.1-14.8c0.7-2.6,2.1-3.6,4.1-3.3c2,0.4,3,1.8,2.9,4.3
	c-0.4,1.8-0.6,3.5-1,5.2c2,1.9,4.2,3.4,6.9,4.3V70H53.6c-1.9-0.4-2.9-1.6-2.8-3.5c-1.1,0.8-2.3,1.5-3.6,2.3v18.9
	c0,3.3-1.5,5.1-4.5,5.8c-2.5,0.1-4.8,0-6.8-0.6c-1.8-0.8-2.6-1.9-2.6-3.5c0-1.6,1-2.6,2.9-3.1c0.9,0,1.8,0.1,2.8,0.2
	c0.9,0,1.4-0.4,1.5-1.1V71.5c-0.9,0.4-1.9,0.8-3,1.1c-2,0.4-3.4-0.4-4-2.1c-0.6-1.9,0-3.3,1.9-4.1c1.8-0.8,3.5-1.5,5.1-2.3V50.3
	h-4.4c-1.8-0.3-2.6-1.4-2.6-3.3c0-2,0.9-3.1,2.6-3.4h4.1v-8.2c0.3-1.8,1.4-2.6,3.5-2.6s3.2,0.9,3.5,2.6v8.2h2.9
	c1.8,0.3,2.8,1.4,2.8,3.4c0,2-0.9,3-2.8,3.3h-2.9v9.9c0.4,0,0.9-0.3,1.5-0.6c1.6-0.7,2.8-0.6,3.6,0.3c0.9,0.9,1.1,2,1.1,3.2h37.2
	c1.8,0.4,2.8,1.5,2.8,3.5s-0.9,3.1-2.8,3.4H75.4v4.5h14.4c1.8,0.3,2.7,1.4,2.7,3.1c0,1.8-0.9,2.8-2.7,3H75.4v5.7h16.5
	c2.1,0.3,3.1,1.4,3.1,3.1C94.9,91.4,93.6,92.4,91.4,92.8z"/>
</svg>
