<?xml version="1.0" encoding="utf-8"?>
<!-- Generator: Adobe Illustrator 21.0.0, SVG Export Plug-In . SVG Version: 6.00 Build 0)  -->
<svg version="1.1" id="图层_1" xmlns="http://www.w3.org/2000/svg" xmlns:xlink="http://www.w3.org/1999/xlink" x="0px" y="0px"
	 viewBox="0 0 128 128" style="enable-background:new 0 0 128 128;" xml:space="preserve">
<path d="M94,110.7H34v8.3c0,2.8-2.2,5-5,5s-5-2.2-5-5v-8.3H14c-5.5,0-10-4.5-10-10v-50c0-5.5,4.5-10,10-10h16.7c5.5,0,10,4.5,10,10
	v20h46.7v-20c0-5.5,4.5-10,10-10H114c5.5,0,10,4.5,10,10v50c0,5.5-4.5,10-10,10h-10v8.3c0,2.8-2.2,5-5,5s-5-2.2-5-5V110.7z
	 M114,100.7v-50H97.3v30H30.7v-30H14v50H114z M110.7,40.7H17.3V14c0-5.5,4.5-10,10-10l0,0h73.3c5.5,0,10,4.5,10,10V40.7z
	 M100.7,50.7H27.3H100.7z M27.3,14v26.7h73.3V14H27.3z"/>
</svg>
