<?xml version="1.0" encoding="utf-8"?>
<!-- Generator: Adobe Illustrator 21.0.0, SVG Export Plug-In . SVG Version: 6.00 Build 0)  -->
<svg version="1.1" id="图层_1" xmlns="http://www.w3.org/2000/svg" xmlns:xlink="http://www.w3.org/1999/xlink" x="0px" y="0px"
	 viewBox="0 0 128 128" style="enable-background:new 0 0 128 128;" xml:space="preserve">
<path d="M17,113.6V61.4l0,0l94,0l0,52.2L17,113.6z M44.8,34.8c0-11.2,9.1-20.3,20.3-20.3c11.2,0,20.3,9.1,20.3,20.3V51H44.8
	C44.8,51,44.8,34.8,44.8,34.8z M111,51H95.8V34.8C95.8,17.8,82.1,4,65.1,4C48.2,4,34.4,17.8,34.4,34.8V51H17
	c-5.8,0-10.4,4.7-10.4,10.5v52.1c0,5.8,4.6,10.4,10.4,10.4h94c5.8,0,10.4-4.7,10.4-10.4V61.4C121.4,55.7,116.8,51,111,51z M64,71.8
	c-2.9,0-5.2,2.3-5.2,5.2v20.9c0,2.9,2.3,5.2,5.2,5.2c2.9,0,5.2-2.3,5.2-5.2V77C69.2,74.2,66.9,71.8,64,71.8"/>
</svg>
