<?xml version="1.0" encoding="utf-8"?>
<!-- Generator: Adobe Illustrator 21.0.0, SVG Export Plug-In . SVG Version: 6.00 Build 0)  -->
<svg version="1.1" id="图层_1" xmlns="http://www.w3.org/2000/svg" xmlns:xlink="http://www.w3.org/1999/xlink" x="0px" y="0px"
	 viewBox="0 0 128 128" style="enable-background:new 0 0 128 128;" xml:space="preserve">
<path d="M112.9,70.1c2.4-2.4,3.3-5.4,2.4-8.2c-0.9-2.8-3.4-4.6-6.7-5.1L85,53.4c-1.1-0.2-3-1.5-3.5-2.6L71,29.3
	c-1.5-3.1-4.1-4.9-7-4.9s-5.5,1.8-7,4.9L46.5,50.8c-0.5,1-2.4,2.4-3.5,2.6l-23.5,3.4c-3.4,0.5-5.8,2.4-6.7,5.1
	c-0.9,2.8,0,5.8,2.4,8.1l17,16.7c0.8,0.8,1.5,3.1,1.4,4.2l-4,23.6c-0.5,2.7,0.1,5.1,1.6,6.9c1.3,1.6,3.3,2.5,5.4,2.5
	c1.4,0,2.9-0.4,4.3-1.1l21.1-11.2c0.7-0.4,3.5-0.4,4.3,0l21.1,11.2c3.6,1.9,7.5,1.3,9.7-1.3c1.5-1.8,2.1-4.2,1.6-6.9l-4-23.6
	c-0.2-1.2,0.5-3.4,1.4-4.2L112.9,70.1L112.9,70.1z M30.2,43.4c2.9,0,5.2-2.3,5.2-5.2V10.6c0-2.9-2.3-5.2-5.2-5.2S25,7.7,25,10.6
	v27.5C25,41,27.3,43.4,30.2,43.4 M51,27.7c2.9,0,5.2-2.3,5.2-5.2V10.6c0-2.9-2.3-5.2-5.2-5.2c-2.9,0-5.2,2.3-5.2,5.2v11.9
	C45.8,25.4,48.2,27.7,51,27.7 M77.1,27.7c2.9,0,5.2-2.3,5.2-5.2V10.6c0-2.9-2.3-5.2-5.2-5.2s-5.2,2.3-5.2,5.2v11.9
	C71.9,25.4,74.3,27.7,77.1,27.7 M98,41.9c2.9,0,5.2-2.3,5.2-5.2V9.2c0-2.9-2.3-5.2-5.2-5.2s-5.2,2.3-5.2,5.2v27.5
	C92.8,39.6,95.1,41.9,98,41.9"/>
</svg>
