<?xml version="1.0" encoding="utf-8"?>
<!-- Generator: Adobe Illustrator 21.0.0, SVG Export Plug-In . SVG Version: 6.00 Build 0)  -->
<svg version="1.1" id="图层_1" xmlns="http://www.w3.org/2000/svg" xmlns:xlink="http://www.w3.org/1999/xlink" x="0px" y="0px"
	 viewBox="0 0 128 128" style="enable-background:new 0 0 128 128;" xml:space="preserve">
<path d="M94,103.9c-8.6,6.5-19.2,10.1-30,10.1c-10.8,0-21.4-3.5-30-10.1C21.9,94.8,14,80.3,14,64c0-27.6,22.4-50,50-50
	s50,22.4,50,50C114,80.3,106.1,94.8,94,103.9 M64,4C30.9,4,4,30.9,4,64c0,22.2,12.1,41.5,30,51.9c9.1,5.3,19.5,8.1,30,8.1h0
	c10.5,0,20.9-2.8,30-8.1c17.9-10.4,30-29.7,30-51.9C124,30.9,97.1,4,64,4 M84,47.1c0-10-9-18.1-20-18.1c-11,0-20,8.1-20,18.1v2.4
	c0,2.8,2.2,5,5,5s5-2.2,5-5v-2.4c0-4.5,4.5-8.1,10-8.1c5.5,0,10,3.6,10,8.1v7.7c0,0.2-0.1,4.9-6.2,9.2c-1.6,1.1-3.3,2-5,2.8
	c-2.2,0.5-3.7,2.5-3.8,4.8v5.8c0,2.8,2.2,5,5,5c2.8,0,5-2.2,5-5v-2.4c6.6-3.2,10.3-7.3,12.3-10.9c2.9-5.1,2.7-9.3,2.6-9.5L84,47.1
	L84,47.1z M64,89c-2.8,0-5,2.2-5,5s2.2,5,5,5c2.8,0,5-2.2,5-5S66.8,89,64,89"/>
</svg>
