<?xml version="1.0" encoding="utf-8"?>
<!-- Generator: Adobe Illustrator 21.0.0, SVG Export Plug-In . SVG Version: 6.00 Build 0)  -->
<svg version="1.1" id="图层_1" xmlns="http://www.w3.org/2000/svg" xmlns:xlink="http://www.w3.org/1999/xlink" x="0px" y="0px"
	 viewBox="0 0 128 128" style="enable-background:new 0 0 128 128;" xml:space="preserve">
<path d="M79.3,52.3c0,0.2-0.1,1.3-1.5,6.7l-3.6,13.5c-1.1,4-3.6,7.6-7.4,10.8c-4,3.4-8.1,5.2-12.1,5.2c-3.5,0-6.2-1.2-8.3-3.8
	c-2-2.2-3-5.5-3-9.7c0-9.8,2.8-18.1,8.3-24.5l0,0c5.1-6.3,10.9-9.3,17.6-9.3c3.1,0,5.5,1.2,7.3,3.8C78.4,47.3,79.3,49.7,79.3,52.3
	 M123.8,92.1c-0.3-0.6-0.9-0.9-1.6-0.9h-8.6c-0.6,0-1.1,0.3-1.5,0.8c-4.4,6.2-10.3,11.2-17.6,15c-8.4,4.2-18.4,6.3-29.6,6.3
	c-14.6,0-26.6-4.2-35.5-12.6c-9-8.6-13.6-20.8-13.6-36.1c0-14.3,4.7-26.2,14.1-35.5C39.3,19.7,51.1,15,65.2,15
	c13.2,0,23.9,3.9,31.9,11.6c7.5,7.5,11.3,16.9,11.3,28c0,9.4-2.9,17.8-8.5,24.9c-4.8,5.9-9.5,8.8-14,8.8c-2.8,0-3-1.1-3-2.4
	c0-2.3,0.5-5.1,1.7-8.4l11.2-42.4c0.3-1-0.3-1.9-1.3-2.2c-0.1,0-0.3-0.1-0.5-0.1h-7.8c-0.8,0-1.5,0.5-1.7,1.3l-1.2,4.4
	c-3.1-5.7-8.2-8.6-15-8.6c-9.8,0-18.3,4.4-25.5,12.9c-7.5,8.6-11.4,19.4-11.4,32c0,7,2.1,12.8,6.2,17.4c4.1,4.6,9.7,7,16.6,7
	c7.3,0,13.8-3,19.4-8.8c1.9,6.9,7.1,8.5,11.4,8.5c8.2,0,16-4.4,23.1-13.2C115.4,76.5,119,66,119,54.6c0-14.2-4.7-26.1-13.9-35.4
	C95.3,9.4,82,4.4,65.6,4.4C47.9,4.4,33,10.3,21.4,22C9.8,33.4,4,47.6,4,64.3c0,17.8,5.7,32.3,16.9,43.2c11.2,10.7,26,16.1,44.1,16.1
	c12.8,0,24.6-2.7,34.9-8c10.1-5.1,18.1-12.4,23.8-21.7C124.1,93.4,124.1,92.7,123.8,92.1"/>
</svg>
