<?xml version="1.0" encoding="utf-8"?>
<!-- Generator: Adobe Illustrator 21.0.0, SVG Export Plug-In . SVG Version: 6.00 Build 0)  -->
<svg version="1.1" id="图层_1" xmlns="http://www.w3.org/2000/svg" xmlns:xlink="http://www.w3.org/1999/xlink" x="0px" y="0px"
	 viewBox="0 0 128 128" style="enable-background:new 0 0 128 128;" xml:space="preserve">
<path d="M112.9,81.9c-0.6-0.3-9.5-4.2-20.9-7.4c-3.9-1.1-7.8-2.1-11.8-2.9c5.8-5,9.6-12.3,9.6-20.6v-20C89.8,16.1,77.7,4,62.7,4
	C47.8,4,35.7,16.1,35.7,31.1v20c0,8.5,4,16,10.2,21c-4.1,0.9-8.1,1.9-11.8,3c-6.4,1.9-12.6,4.2-18.7,6.8C10.6,83.7,7,89.1,7,94.2
	v21.4l0.3,0.8C8.8,121,13,124,17.6,124h92.8c5.3,0,9.8-4,10.5-9.2l0.1-20.5C121,89.1,117.4,83.8,112.9,81.9"/>
</svg>
