<?xml version="1.0" encoding="utf-8"?>
<!-- Generator: Adobe Illustrator 21.0.0, SVG Export Plug-In . SVG Version: 6.00 Build 0)  -->
<svg version="1.1" id="图层_1" xmlns="http://www.w3.org/2000/svg" xmlns:xlink="http://www.w3.org/1999/xlink" x="0px" y="0px"
	 viewBox="0 0 128 128" style="enable-background:new 0 0 128 128;" xml:space="preserve">
<path d="M123.1,104.8c-1,3.6-6.2,19.1-28,19.1c-1.5,0-24.6,2.5-59.6-31.2C0.8,59.3,4,38,4.1,33.3v-0.4c0.6-6.4,2.4-12.2,4.4-15.6
	c3.7-6.4,11-10.7,14.9-12.1s6.9-2.4,9.9,2.9l11.9,19.4c1.1,1.9,2.1,8.2,0.2,10.1c-0.9,0.9-3.4,3.2-5.2,4.6c-1.9,1.4-3.6,2.9-5.2,4.5
	c-1.6,1.6-2.4,2.9-2.4,3.9c-0.1,2.9,4.7,13.9,18.1,27.2c12.6,12.7,23.6,17.4,27.1,18.1c1,0.2,2.4-0.7,3.9-2.4
	c1.6-1.6,3.1-3.4,4.5-5.2c1.4-1.9,3-3.6,4.6-5.2c1.7-1.6,5.7-1.5,7.7-0.4L120.2,95C123.5,96.7,125.1,97.8,123.1,104.8
	C123.1,104.8,124.7,99.2,123.1,104.8z"/>
</svg>
