<?xml version="1.0" encoding="utf-8"?>
<!-- Generator: Adobe Illustrator 21.0.0, SVG Export Plug-In . SVG Version: 6.00 Build 0)  -->
<svg version="1.1" id="图层_1" xmlns="http://www.w3.org/2000/svg" xmlns:xlink="http://www.w3.org/1999/xlink" x="0px" y="0px"
	 viewBox="0 0 128 128" style="enable-background:new 0 0 128 128;" xml:space="preserve">
<path d="M121,35.8L92.2,7c-4.1-4-10.7-4-14.7,0l-11,11l7.3,7.3l0.2,0h0L102.7,54l4.9,4.9l2.4,2.4l10.9-10.9
	C125,46.4,125,39.9,121,35.8 M31,115.8l-2.2-2.2L14.4,99.2l-2.3-2.3l-6.6-7.1L4,88.2v25.4c0,5.7,4.6,10.4,10.4,10.4h25.1l-1.9-1.8
	L31,115.8L31,115.8z M66.6,32.6l-7.4-7.3L7.2,77.4l7.4,7.4l28.7,28.7l7.4,7.3l51.9-51.9l-7.1-7.6L66.6,32.6z"/>
</svg>
