<?xml version="1.0" encoding="utf-8"?>
<!-- Generator: Adobe Illustrator 21.0.0, SVG Export Plug-In . SVG Version: 6.00 Build 0)  -->
<svg version="1.1" id="图层_1" xmlns="http://www.w3.org/2000/svg" xmlns:xlink="http://www.w3.org/1999/xlink" x="0px" y="0px"
	 viewBox="0 0 128 128" style="enable-background:new 0 0 128 128;" xml:space="preserve">
<path d="M90.9,67.6H69v21.9c0,2.8-2.2,5-5,5c-2.8,0-5-2.2-5-5V67.6H37.1c-2.8,0-5-2.2-5-5s2.2-5,5-5H59V35.7c0-2.8,2.2-5,5-5
	c2.8,0,5,2.2,5,5v21.9h21.9c2.8,0,5,2.2,5,5S93.6,67.6,90.9,67.6 M64,4C30.9,4,4,30.9,4,64c0,33.1,26.9,60,60,60s60-26.9,60-60
	C124,30.9,97.1,4,64,4"/>
</svg>
