<?xml version="1.0" encoding="utf-8"?>
<!-- Generator: Adobe Illustrator 21.0.0, SVG Export Plug-In . SVG Version: 6.00 Build 0)  -->
<svg version="1.1" id="图层_1" xmlns="http://www.w3.org/2000/svg" xmlns:xlink="http://www.w3.org/1999/xlink" x="0px" y="0px"
	 viewBox="0 0 128 128" style="enable-background:new 0 0 128 128;" xml:space="preserve">
<path d="M69.1,75.1V64.3h16.1c2.7,0,4.9-2.1,4.9-4.7c0-2.6-2.2-4.7-4.9-4.7H71.1l0,0l14-13.4c1.9-1.8,1.9-4.8,0-6.7
	c-1.9-1.8-5-1.8-6.9,0l-14,13.4l0,0l0,0l-14-13.4c-1.9-1.8-5-1.8-6.9,0c-1.9,1.8-1.9,4.8,0,6.7l14,13.4l0,0H43.1
	c-2.7,0-4.9,2.1-4.9,4.7s2.2,4.7,4.9,4.7h16.1v10.7H43.1c-2.7,0-4.9,2.1-4.9,4.7s2.2,4.7,4.9,4.7h16.1v4c0,2.6,2.2,4.7,4.9,4.7
	s4.9-2.1,4.9-4.7v-4h16.1c2.7,0,4.9-2.1,4.9-4.7s-2.2-4.7-4.9-4.7L69.1,75.1L69.1,75.1z M24.4,15.6l27.5-9.8
	c6.7-2.4,17.5-2.4,24.2,0l27.5,9.8c6.7,2.4,12.1,10.1,12.1,17.3v40.5C115.7,105.2,64,124,64,124s-51.7-18.8-51.7-50.6V32.9
	C12.3,25.6,17.7,18,24.4,15.6z"/>
</svg>
