<?xml version="1.0" encoding="utf-8"?>
<!-- Generator: Adobe Illustrator 21.0.0, SVG Export Plug-In . SVG Version: 6.00 Build 0)  -->
<svg version="1.1" id="图层_1" xmlns="http://www.w3.org/2000/svg" xmlns:xlink="http://www.w3.org/1999/xlink" x="0px" y="0px"
	 viewBox="0 0 128 128" style="enable-background:new 0 0 128 128;" xml:space="preserve">
<path d="M77.9,31.3H20.7l17.2-17.1c2.1-2.1,2.1-5.5,0-7.6c-2.1-2.1-5.5-2.1-7.7,0l0,0L7.1,29.5c-2,2-3.1,4.7-3.1,7.6
	c0,2.9,1.1,5.6,3.1,7.6l23.1,23c2.1,2.1,5.5,2.1,7.6,0c0,0,0,0,0,0c2.1-2.1,2.1-5.5,0-7.6c0,0,0,0,0,0l-18.1-18h58.1
	c19.5,0,35.3,15.7,35.3,35.1s-15.8,35.1-35.3,35.1H40c-3,0-5.4,2.4-5.4,5.4s2.4,5.4,5.4,5.4h37.8c25.4,0,46.1-20.6,46.1-45.9
	S103.3,31.3,77.9,31.3"/>
</svg>
