<?xml version="1.0" encoding="utf-8"?>
<!-- Generator: Adobe Illustrator 21.0.0, SVG Export Plug-In . SVG Version: 6.00 Build 0)  -->
<svg version="1.1" id="图层_1" xmlns="http://www.w3.org/2000/svg" xmlns:xlink="http://www.w3.org/1999/xlink" x="0px" y="0px"
	 viewBox="0 0 128 128" style="enable-background:new 0 0 128 128;" xml:space="preserve">
<path d="M43.6,70.4V58.9c0-11.3,9.1-20.4,20.4-20.4c11.3,0,20.4,9.2,20.4,20.4v11.5c0,11.3-9.1,20.4-20.4,20.4
	C52.8,90.8,43.6,81.6,43.6,70.4 M122.6,57.5c-0.3-0.8-4.3-9.6-12.6-18.7C100.6,28.6,85.8,18,64,18s-36.6,10.6-46,20.7
	C9.8,47.9,5.8,56.6,5.6,57.2c-2,4-2.1,9.7-0.3,13.2c0.1,0.2,3.9,9.7,12.8,19.4c9.3,10,24,20.1,46,20.1c21.9,0,36.7-10.2,46-20.1
	c8.9-9.6,12.7-19.1,12.7-19.1C124.5,66.7,124.4,60.9,122.6,57.5"/>
</svg>
