<?xml version="1.0" encoding="utf-8"?>
<!-- Generator: Adobe Illustrator 21.0.0, SVG Export Plug-In . SVG Version: 6.00 Build 0)  -->
<svg version="1.1" id="图层_1" xmlns="http://www.w3.org/2000/svg" xmlns:xlink="http://www.w3.org/1999/xlink" x="0px" y="0px"
	 viewBox="0 0 128 128" style="enable-background:new 0 0 128 128;" xml:space="preserve">
<path d="M46.4,4c-6,0-7.7,0.5-12.2,1.9c-4.5,1.4-3.3,3-1,5.3c2.3,2.4,13.6,14.1,13.6,14.1c1.9,2,1.8,5.1-0.1,7L32.5,45.9
	c-2,1.9-5.1,1.8-7-0.1c0,0-11.7-12.2-13.4-13.9c-1.7-1.7-4.3-3.8-5.7-0.1C5,35.5,4.2,39,4.2,45.2c0,22.8,18.9,41.2,42.2,41.2
	c23.3,0,42.2-18.4,42.2-41.2C88.7,22.5,69.7,4,46.4,4z M98,78.4c2.4,2.4,22.9,22.9,22.9,22.9s3.1,2.9,3,5.6c-0.1,2.8-3,5.3-3,5.3
	l-10.8,10c0,0-1.8,1.8-5.1,1.8c-3.2,0-6.2-2.9-6.2-2.9S77.6,99.8,75.3,97.5c-0.8-0.7-1-3.1,0.6-3.9c1.6-1,7.1-4.1,10.6-7.6
	c2.9-2.9,4.5-5.3,6.3-7.7C94.1,76.1,96.1,76.5,98,78.4z"/>
</svg>
