<?xml version="1.0" standalone="no"?><!DOCTYPE svg PUBLIC "-//W3C//DTD SVG 1.1//EN" "http://www.w3.org/Graphics/SVG/1.1/DTD/svg11.dtd"><svg class="icon" width="128px" height="128.00px" viewBox="0 0 1024 1024" version="1.1" xmlns="http://www.w3.org/2000/svg"><path fill="#bfbfbf" d="M411.2 566.4H316.8c-7.2 0-13.6 6.4-13.6 13.6 0 7.2 6.4 13.6 13.6 13.6h94.4c7.2 0 13.6-6.4 13.6-13.6 0-7.2-6.4-13.6-13.6-13.6zM316.8 459.2h148c7.2 0 13.6-6.4 13.6-13.6S472 432 464.8 432H316.8c-7.2 0-13.6 6.4-13.6 13.6 0.8 8 6.4 13.6 13.6 13.6zM532 499.2H316.8c-7.2 0-13.6 6.4-13.6 13.6 0 7.2 6.4 13.6 13.6 13.6h215.2c7.2 0 13.6-6.4 13.6-13.6 0-7.2-6.4-13.6-13.6-13.6zM814.4 768h-74.4c4-8.8 7.2-16.8 7.2-27.2V352c0-29.6-24-53.6-53.6-53.6H371.2c-29.6 0-53.6 24-53.6 53.6v12.8h-40c-29.6 0-53.6 24-53.6 53.6V808c0 9.6 2.4 19.2 7.2 27.2h-60.8c-7.2 0-13.6 6.4-13.6 13.6 0 7.2 6.4 13.6 13.6 13.6H653.6c7.2 0 13.6-6.4 13.6-13.6 0-7.2-6.4-13.6-13.6-13.6h-7.2c4-8.8 7.2-16.8 7.2-27.2v-12.8h161.6c7.2 0 13.6-6.4 13.6-13.6-0.8-7.2-7.2-13.6-14.4-13.6z m-188 40.8c0 14.4-11.2 27.2-26.4 27.2H276.8c-14.4 0-26.4-11.2-26.4-27.2V418.4c0-14.4 11.2-26.4 26.4-26.4h324.8c14.4 0 26.4 11.2 26.4 26.4v390.4h-1.6zM720 741.6c0 14.4-11.2 27.2-26.4 27.2h-40.8V420c0-29.6-24-53.6-53.6-53.6H344v-13.6c0-14.4 11.2-27.2 26.4-27.2h322.4c14.4 0 26.4 11.2 26.4 27.2v389.6h0.8zM108.8 694.4h13.6c3.2 0 6.4 3.2 6.4 6.4 0 4-3.2 6.4-6.4 6.4h-13.6v14.4c0 3.2-3.2 6.4-6.4 6.4s-6.4-3.2-6.4-6.4v-13.6h-14.4c-3.2 0-6.4-3.2-6.4-6.4 0-4 3.2-6.4 6.4-6.4h13.6v-13.6c0-3.2 3.2-6.4 6.4-6.4 4 0 6.4 3.2 6.4 6.4v12.8h0.8z m887.2-53.6v-13.6c0-3.2-3.2-6.4-6.4-6.4s-6.4 3.2-6.4 6.4v13.6h-13.6c-3.2 0-6.4 3.2-6.4 6.4s3.2 6.4 6.4 6.4h13.6v13.6c0 4 3.2 6.4 6.4 6.4s6.4-3.2 6.4-6.4v-13.6h13.6c4 0 6.4-3.2 6.4-6.4s-3.2-6.4-6.4-6.4h-13.6zM179.2 274.4h20c5.6 0 10.4 4 10.4 10.4 0 5.6-4 10.4-10.4 10.4h-20v20c0 5.6-4 10.4-10.4 10.4-5.6 0-10.4-4-10.4-10.4V296h-20c-5.6 0-10.4-4-10.4-10.4 0-5.6 4-10.4 10.4-10.4h20v-20c0-5.6 4-10.4 10.4-10.4 5.6 0 10.4 4 10.4 10.4v19.2zM21.6 848.8c0-7.2 6.4-13.6 13.6-13.6h80.8c7.2 0 13.6 6.4 13.6 13.6 0 7.2-6.4 13.6-13.6 13.6H35.2c-7.2 0-13.6-5.6-13.6-13.6zM48 499.2c-22.4 0-40-17.6-40-40s17.6-40 40-40 40 17.6 40 40-16.8 40-40 40z m0-20c11.2 0 20-9.6 20-20 0-11.2-9.6-20-20-20-11.2 0-20 9.6-20 20 0 12 9.6 20 20 20z m833.6-59.2c-22.4 0-40-17.6-40-40s17.6-40 40-40 40 17.6 40 40c0 20.8-17.6 40-40 40z m0-21.6c11.2 0 20-9.6 20-20 0-11.2-9.6-20-20-20-11.2 0-20 9.6-20 20 0 12 8.8 20 20 20zM811.2 468.8m-16.8 0a16.8 16.8 0 1 0 33.6 0 16.8 16.8 0 1 0-33.6 0ZM538.4 164.8m-16.8 0a16.8 16.8 0 1 0 33.6 0 16.8 16.8 0 1 0-33.6 0ZM320 111.2m-8 0a8 8 0 1 0 16 0 8 8 0 1 0-16 0ZM743.2 831.2m-11.2 0a11.2 11.2 0 1 0 22.4 0 11.2 11.2 0 1 0-22.4 0ZM835.2 921.6H121.6c-5.6 0-10.4-5.6-10.4-10.4v-2.4c0-5.6 4-10.4 10.4-10.4h714.4c6.4 0 10.4 5.6 10.4 10.4v2.4c-0.8 4.8-4.8 10.4-11.2 10.4zM515.2 684m-23.2 0a23.2 23.2 0 1 0 46.4 0 23.2 23.2 0 1 0-46.4 0ZM400 684m-23.2 0a23.2 23.2 0 1 0 46.4 0 23.2 23.2 0 1 0-46.4 0ZM523.2 800.8c-6.4 4-14.4 2.4-19.2-4-10.4-16.8-28-26.4-47.2-26.4s-36.8 9.6-47.2 26.4c-4 6.4-12.8 8.8-19.2 4s-8-12.8-4-19.2c16-24 42.4-39.2 70.4-39.2s54.4 14.4 70.4 39.2c4.8 6.4 2.4 15.2-4 19.2z" /></svg>