<?xml version="1.0" encoding="utf-8"?>
<!-- Generator: Adobe Illustrator 21.0.0, SVG Export Plug-In . SVG Version: 6.00 Build 0)  -->
<svg version="1.1" id="图层_1" xmlns="http://www.w3.org/2000/svg" xmlns:xlink="http://www.w3.org/1999/xlink" x="0px" y="0px"
	 viewBox="0 0 128 128" style="enable-background:new 0 0 128 128;" xml:space="preserve">
<path d="M119.2,32.5H100c-2.7,0-4.8,2.1-4.8,4.8c0,2.7,2.1,4.8,4.8,4.8h19.2c2.7,0,4.8-2.1,4.8-4.8C124,34.7,121.9,32.5,119.2,32.5
	 M119.2,51.7H100c-2.7,0-4.8,2.1-4.8,4.8c0,2.7,2.1,4.8,4.8,4.8h19.2c2.7,0,4.8-2.1,4.8-4.8C124,53.9,121.9,51.7,119.2,51.7
	 M100,22.9h19.2c2.7,0,4.8-2.1,4.8-4.8s-2.1-4.8-4.8-4.8H100c-2.7,0-4.8,2.1-4.8,4.8S97.3,22.9,100,22.9 M100,109.8H13.8
	c-0.1,0-0.1,0-0.2-0.1V91.9c0-0.9,0.9-2.2,1.8-2.6C15.6,89.2,38.9,79,56.8,79C74.6,79,98,89.2,98.3,89.4c0.8,0.3,1.7,1.7,1.7,2.6
	V109.8z M38.9,50.7V35c0-9.3,7.5-16.8,16.8-16.8c9.3,0,16.8,7.5,16.8,16.8v15.7c0,9.3-7.5,16.8-16.8,16.8
	C46.4,67.5,38.9,59.9,38.9,50.7z M102.1,80.6c-0.8-0.3-14.6-6.4-29.8-9.4c6.2-5,9.7-12.5,9.7-20.5V35C82,20.4,70.2,8.5,55.6,8.5
	c-14.5,0-26.4,11.8-26.4,26.4v15.7c0,8.5,4,16,10.3,20.9c-14.5,3.1-27.2,8.7-27.8,9C7.3,82.2,4,87.2,4,92v19.8l0.3,0.8
	c1.4,4.2,5.3,7,9.6,7h85.9c5,0,9.1-3.7,9.7-8.5l0.1-19C109.6,87.2,106.3,82.3,102.1,80.6z"/>
</svg>
