<?xml version="1.0" encoding="utf-8"?>
<!-- Generator: Adobe Illustrator 21.0.0, SVG Export Plug-In . SVG Version: 6.00 Build 0)  -->
<svg version="1.1" id="图层_1" xmlns="http://www.w3.org/2000/svg" xmlns:xlink="http://www.w3.org/1999/xlink" x="0px" y="0px"
	 viewBox="0 0 128 128" style="enable-background:new 0 0 128 128;" xml:space="preserve">
<path d="M95.3,81.5C89,92.3,77.5,99,65,99c-12.5,0-24-6.7-30.3-17.5c-1.4-2.4-0.6-5.4,1.8-6.8c2.4-1.4,5.4-0.6,6.8,1.8
	C47.8,84.2,56.1,89,65,89c8.9,0,17.2-4.8,21.7-12.5c1.5-2.3,4.5-3.1,6.9-1.6C95.8,76.3,96.6,79.2,95.3,81.5z M39,44c0-2.8,2.2-5,5-5
	s5,2.2,5,5v15c0,2.8-2.2,5-5,5s-5-2.2-5-5V44z M79,44c0-2.8,2.2-5,5-5s5,2.2,5,5v15c0,2.8-2.2,5-5,5s-5-2.2-5-5V44z M64,4
	C30.9,4,4,30.9,4,64c0,33.1,26.9,60,60,60c33.1,0,60-26.9,60-60C124,30.9,97.1,4,64,4z"/>
</svg>
