<?xml version="1.0" encoding="utf-8"?>
<!-- Generator: Adobe Illustrator 21.0.0, SVG Export Plug-In . SVG Version: 6.00 Build 0)  -->
<svg version="1.1" id="图层_1" xmlns="http://www.w3.org/2000/svg" xmlns:xlink="http://www.w3.org/1999/xlink" x="0px" y="0px"
	 viewBox="0 0 128 128" style="enable-background:new 0 0 128 128;" xml:space="preserve">
<path d="M109,93.9H54c-5.5,0-10-4.5-10-10v-40c0-5.5,4.5-10,10-10h60V14c0-5.5-4.5-10-10-10H14C8.5,4,4,8.5,4,14v100
	c0,5.5,4.5,10,10,10h90c5.5,0,10-4.5,10-10V93.9H109z M114,38.9H59c-5.5,0-10,4.5-10,10v30c0,5.5,4.5,10,10,10h55
	c5.5,0,10-4.5,10-10v-30C124,43.4,119.5,38.9,114,38.9z M86.5,70.3c-3.5,0-6.3-2.8-6.3-6.3c0-3.5,2.8-6.3,6.3-6.3s6.3,2.8,6.3,6.3
	S90,70.3,86.5,70.3z"/>
</svg>
