<?xml version="1.0" encoding="utf-8"?>
<!-- Generator: Adobe Illustrator 21.0.0, SVG Export Plug-In . SVG Version: 6.00 Build 0)  -->
<svg version="1.1" id="图层_1" xmlns="http://www.w3.org/2000/svg" xmlns:xlink="http://www.w3.org/1999/xlink" x="0px" y="0px"
	 viewBox="0 0 128 128" style="enable-background:new 0 0 128 128;" xml:space="preserve">
<path d="M64,114c-12.5,0-24.5-4.7-33.7-13.2c8.6-2.8,22.9-6.8,33.4-6.8c10.6,0,25.3,4.2,33.8,7C88.4,109.4,76.4,114,64,114 M64,79
	c-8.3,0-15-6.7-15-15V49c0-8.3,6.7-15,15-15c8.3,0,15,6.7,15,15v15C79,72.3,72.3,79,64,79 M64,14c27.6,0,50,22.4,50,50
	c0,10.3-3.2,20.4-9.2,28.9c-5.4-1.9-16.7-5.6-27.9-7.5C84.1,80.9,89,73.1,89,64V49c0-13.8-11.2-25-25-25c-13.8,0-25,11.2-25,25v15
	c0,9,4.8,16.9,12,21.3c-11,1.9-22.3,5.5-27.9,7.4C17.2,84.3,14,74.3,14,64C14,36.4,36.4,14,64,14 M64,4C30.9,4,4,30.9,4,64
	s26.9,60,60,60s60-26.9,60-60S97.1,4,64,4"/>
</svg>
