<?xml version="1.0" encoding="utf-8"?>
<!-- Generator: Adobe Illustrator 21.0.0, SVG Export Plug-In . SVG Version: 6.00 Build 0)  -->
<svg version="1.1" id="图层_1" xmlns="http://www.w3.org/2000/svg" xmlns:xlink="http://www.w3.org/1999/xlink" x="0px" y="0px"
	 viewBox="0 0 128 128" style="enable-background:new 0 0 128 128;" xml:space="preserve">
<path d="M49.6,64c0-7.9,6.4-14.3,14.3-14.3S78.3,56.1,78.3,64s-6.4,14.3-14.3,14.3S49.6,71.9,49.6,64 M87.8,64
	c0-13.2-10.7-23.9-23.9-23.9S40,50.8,40,64s10.7,23.9,23.9,23.9S87.8,77.2,87.8,64 M122.6,72.6c-1.7-1.6-4.2-1.8-6.1-0.4V21
	c0-5.3-4.2-9.6-9.5-9.6H20.9c-5.3,0-9.5,4.3-9.5,9.5v9.7c0,2.6,2.1,4.8,4.8,4.8s4.8-2.1,4.8-4.8L20.9,21l86.1,0V72
	c-1.8-1.1-4.2-0.9-5.8,0.7c-1.9,1.9-1.9,4.9,0,6.8c0,0,0,0,0,0l7.3,7.3c1.9,1.9,4.9,1.9,6.8,0c0,0,0,0,0,0l7.3-7.3
	C124.5,77.5,124.5,74.5,122.6,72.6C122.6,72.6,122.6,72.6,122.6,72.6 M111.7,92.7c-2.6,0-4.8,2.1-4.8,4.8l0,9.5l-86,0V56.6
	c0.7,0.5,1.6,0.8,2.5,0.8c2.6,0,4.8-2.1,4.8-4.8c0-1.3-0.5-2.5-1.4-3.4L19.5,42c-1.9-1.9-4.9-1.9-6.8,0l-7.3,7.3
	c-1.9,1.9-1.9,4.9,0,6.8c0,0,0,0,0,0c1.6,1.6,4.1,1.8,6,0.5V107c0,5.3,4.3,9.6,9.5,9.6H107c5.3,0,9.5-4.3,9.5-9.6v-9.6
	C116.5,94.8,114.4,92.7,111.7,92.7"/>
</svg>
