<?xml version="1.0" encoding="utf-8"?>
<!-- Generator: Adobe Illustrator 21.0.0, SVG Export Plug-In . SVG Version: 6.00 Build 0)  -->
<svg version="1.1" id="图层_1" xmlns="http://www.w3.org/2000/svg" xmlns:xlink="http://www.w3.org/1999/xlink" x="0px" y="0px"
	 viewBox="0 0 128 128" style="enable-background:new 0 0 128 128;" xml:space="preserve">
<path d="M96.3,59.5c-6,0-11.5,1.9-16,5.1l38.6,38c3.3-4.6,5.1-10.1,5.1-15.8C124,71.7,111.6,59.5,96.3,59.5 M68.6,86.7
	c0,15,12.4,27.3,27.7,27.3c6,0,11.5-1.9,16-5.1L73.8,71C70.4,75.5,68.6,81.1,68.6,86.7 M45.5,68.5H27.1c-2.5,0-4.6-2-4.6-4.5
	s2.1-4.5,4.6-4.5h18.5c2.5,0,4.6,2,4.6,4.5S48.1,68.5,45.5,68.5 M45.5,86.7H27.1c-2.5,0-4.6-2-4.6-4.5s2.1-4.5,4.6-4.5h18.5
	c2.5,0,4.6,2,4.6,4.5S48.1,86.7,45.5,86.7 M27.1,41.3H64c2.5,0,4.6,2,4.6,4.5s-2.1,4.5-4.6,4.5H27.1c-2.5,0-4.6-2-4.6-4.5
	S24.5,41.3,27.1,41.3 M96.4,50.2c6.7,0,13,1.8,18.4,4.8v-32c0-5-4.2-9.1-9.2-9.1H13.2C8.2,14,4,18,4,23.1v72.8c0,5,4.2,9.1,9.2,9.1
	h51c-3.3-5.5-5-11.8-5-18.2C59.3,66.6,75.9,50.2,96.4,50.2"/>
</svg>
