<?xml version="1.0" encoding="utf-8"?>
<!-- Generator: Adobe Illustrator 21.0.0, SVG Export Plug-In . SVG Version: 6.00 Build 0)  -->
<svg version="1.1" id="图层_1" xmlns="http://www.w3.org/2000/svg" xmlns:xlink="http://www.w3.org/1999/xlink" x="0px" y="0px"
	 viewBox="0 0 128 128" style="enable-background:new 0 0 128 128;" xml:space="preserve">
<path d="M118.5,74.9c-3,0-5.5,2.4-5.5,5.5l0,32.7l-98.2,0l0-98.2h32.8c3,0,5.5-2.4,5.5-5.5S50.6,4,47.6,4H14.9C8.9,4,4,8.9,4,14.9
	v98.3c0,6,4.9,10.9,10.9,10.9h98.2c6,0,10.9-4.9,10.9-10.9V80.4C124,77.4,121.5,74.9,118.5,74.9 M113.1,4H85.8c-3,0-5.5,2.4-5.5,5.5
	s2.4,5.5,5.5,5.5l19.6,0L60.1,60.1c-2.1,2.1-2.1,5.6,0,7.7s5.6,2.1,7.7,0l45.3-45.3v19.6c0,3,2.4,5.5,5.5,5.5s5.5-2.4,5.5-5.5V14.9
	C124,8.9,119.1,4,113.1,4"/>
</svg>
