<?xml version="1.0" encoding="utf-8"?>
<!-- Generator: Adobe Illustrator 21.0.0, SVG Export Plug-In . SVG Version: 6.00 Build 0)  -->
<svg version="1.1" id="图层_1" xmlns="http://www.w3.org/2000/svg" xmlns:xlink="http://www.w3.org/1999/xlink" x="0px" y="0px"
	 viewBox="0 0 128 128" style="enable-background:new 0 0 128 128;" xml:space="preserve">
<path d="M105.1,26.3c-2.4-1.6-5.7-0.9-7.2,1.6c0,0,0,0,0,0c-1.6,2.5-0.9,5.8,1.5,7.4c0.2,0.1,1.8,1.3,3.8,3.5
	c4.2,4.6,10.2,13.9,10.2,29.5c0,16.2-6.3,25.6-10.2,30c-1.8,1.9-3.1,2.9-3.2,3c-2.4,1.7-3.1,5-1.5,7.4c1,1.5,2.7,2.4,4.4,2.4
	c0.1,0,0.2,0,0.3,0c0.9,0,1.8-0.3,2.6-0.9c0.7-0.5,18.2-12.6,18.2-41.9C124,38.9,105.8,26.8,105.1,26.3 M88.6,42
	c-2.6-1.2-5.7-0.1-6.9,2.5c0,0,0,0,0,0c-1.3,2.6-0.2,5.8,2.4,7.1c0.3,0.2,8.2,4.3,8.2,16.2c0,12.7-7.4,16.9-7.6,17
	c-2.6,1.3-3.7,4.5-2.4,7.2c1.3,2.6,4.4,3.7,7.1,2.4c0,0,0,0,0,0c0.5-0.3,13.5-7.1,13.5-26.6C102.9,49,89.2,42.3,88.6,42 M71.2,6.6
	c-0.6-0.2-1.2-0.4-1.8-0.5c-1.8-0.3-4.3,0-7.1,2.5l-6,5.4l-2.8,2.5L36.1,32.4H15c-6.1,0-11,4.9-11,11v35.4c0,6.1,4.9,11,11,11h14.7
	l23.9,21.7l8.8,8c2.2,2,4.3,2.6,6,2.6c0.4,0,0.7-0.1,1.1-0.1c0.6-0.1,1.2-0.2,1.8-0.5c1.3-0.6,4.5-2.5,4.5-7.8V14.4
	c0-0.1,0-0.3,0-0.4C75.5,10.5,73.9,7.8,71.2,6.6"/>
</svg>
