<?xml version="1.0" encoding="utf-8"?>
<!-- Generator: Adobe Illustrator 21.0.0, SVG Export Plug-In . SVG Version: 6.00 Build 0)  -->
<svg version="1.1" id="图层_1" xmlns="http://www.w3.org/2000/svg" xmlns:xlink="http://www.w3.org/1999/xlink" x="0px" y="0px"
	 viewBox="0 0 128 128" style="enable-background:new 0 0 128 128;" xml:space="preserve">
<path d="M43.7,49.9c0-11.3,9.1-20.4,20.4-20.4s20.4,9.1,20.4,20.4s-9.1,20.4-20.4,20.4S43.7,61.1,43.7,49.9 M64.1,4
	C38.7,4,18.2,24.6,18.2,49.9c0,12.9,10.3,31,20.1,45.9c5.8,8.5,12,16.9,18.5,24.8c1.8,2.1,4.4,3.5,7.1,3.5c2.8,0,5.4-1.3,7.1-3.5
	c6.6-8,12.7-16.3,18.6-24.8c10-14.8,20.1-33,20.1-45.9C109.9,24.6,89.4,4,64.1,4"/>
</svg>
