<?xml version="1.0" encoding="utf-8"?>
<!-- Generator: Adobe Illustrator 21.0.0, SVG Export Plug-In . SVG Version: 6.00 Build 0)  -->
<svg version="1.1" id="图层_1" xmlns="http://www.w3.org/2000/svg" xmlns:xlink="http://www.w3.org/1999/xlink" x="0px" y="0px"
	 viewBox="0 0 128 128" style="enable-background:new 0 0 128 128;" xml:space="preserve">
<path d="M41.3,124c-7.9-16.7-3.8-26.3,2.5-35.1c6.7-10,8.4-19.7,8.4-19.7s5.4,6.7,3.3,17.6c9.2-10.5,10.9-27.2,9.6-33.4
	c20.9,14.6,30.1,46.8,18,70.2C147.5,86.8,99,32,90.7,26.2c2.9,6.3,3.3,16.7-2.5,21.7C78.6,11.1,54.7,4,54.7,4
	c2.9,18.8-10,39.3-22.6,54.8c-0.4-7.5-0.8-12.5-5-20.1c-0.8,13.8-11.3,24.7-14.2,38.5C9.1,96,15.8,109.4,41.3,124L41.3,124z"/>
</svg>
