<?xml version="1.0" encoding="utf-8"?>
<!-- Generator: Adobe Illustrator 21.0.0, SVG Export Plug-In . SVG Version: 6.00 Build 0)  -->
<svg version="1.1" id="图层_1" xmlns="http://www.w3.org/2000/svg" xmlns:xlink="http://www.w3.org/1999/xlink" x="0px" y="0px"
	 viewBox="0 0 128 128" style="enable-background:new 0 0 128 128;" xml:space="preserve">
<path d="M64,124c3.3,0,6-2.7,6-6V70h48c3.3,0,6-2.7,6-6c0-3.3-2.7-6-6-6H70V10c0-3.3-2.7-6-6-6c-3.3,0-6,2.7-6,6v48H10
	c-3.3,0-6,2.7-6,6c0,3.3,2.7,6,6,6h48v48C58,121.3,60.7,124,64,124"/>
</svg>
