<?xml version="1.0" encoding="utf-8"?>
<!-- Generator: Adobe Illustrator 21.0.0, SVG Export Plug-In . SVG Version: 6.00 Build 0)  -->
<svg version="1.1" id="图层_1" xmlns="http://www.w3.org/2000/svg" xmlns:xlink="http://www.w3.org/1999/xlink" x="0px" y="0px"
	 viewBox="0 0 128 128" style="enable-background:new 0 0 128 128;" xml:space="preserve">
<path d="M64,114c-27.6,0-50-22.4-50-50s22.4-50,50-50s50,22.4,50,50S91.6,114,64,114 M64,4C30.9,4,4,30.9,4,64s26.9,60,60,60
	s60-26.9,60-60S97.1,4,64,4 M57.3,40.3c-2.1-1.8-5.2-1.7-7.1,0.4s-1.7,5.2,0.4,7.1l20.9,18.8l-21,19.7c-2,1.9-2,5.1-0.1,7.1
	c1.9,1.9,4.9,2,6.9,0.2l25-23.4c2-1.9,2.1-5,0.2-7.1c-0.1-0.1-0.2-0.2-0.3-0.3L57.3,40.3L57.3,40.3z"/>
</svg>
