<?xml version="1.0" encoding="utf-8"?>
<!-- Generator: Adobe Illustrator 21.0.0, SVG Export Plug-In . SVG Version: 6.00 Build 0)  -->
<svg version="1.1" id="图层_1" xmlns="http://www.w3.org/2000/svg" xmlns:xlink="http://www.w3.org/1999/xlink" x="0px" y="0px"
	 viewBox="0 0 128 128" style="enable-background:new 0 0 128 128;" xml:space="preserve">
<path d="M76.7,59.5v32.6c0,2.7,2.2,5,5,5s5-2.2,5-5V59.5c0-2.7-2.2-5-5-5S76.7,56.8,76.7,59.5 M46.9,59.5v32.6c0,2.7,2.2,5,5,5
	s5-2.2,5-5V59.5c0-2.7-2.2-5-5-5S46.9,56.8,46.9,59.5 M43.7,29.4l-1.4-9.8L81.6,14l1.4,9.8C83,23.8,43.7,29.4,43.7,29.4z
	 M112.5,19.7l-19.6,2.8L91,9.4c-0.2-1.5-1-2.9-2.2-3.8c-2.5-1.9-6.4-1.7-8.5-1.4L40.9,9.7c-7.2,1-9.3,4.8-8.9,7.9l1.8,13.1
	l-19.6,2.8c-2.7,0.3-4.7,2.8-4.3,5.5c0.3,2.7,2.8,4.7,5.5,4.3c0.1,0,0.1,0,0.2,0l7.1-1c-0.4,0.7-0.6,1.5-0.6,2.3v69.4
	c0,5.5,4.4,9.9,9.9,9.9h69.4c5.5,0,9.9-4.4,9.9-9.9V44.6c0-2.7-2.2-5-5-5s-5,2.2-5,5v69.4l-69.4,0V44.6c0-1.3-0.5-2.5-1.4-3.4
	l83.2-11.7c2.7-0.4,4.6-2.9,4.2-5.6c-0.3-2.7-2.8-4.6-5.5-4.2C112.5,19.7,112.5,19.7,112.5,19.7L112.5,19.7z"/>
</svg>
