<?xml version="1.0" encoding="utf-8"?>
<!-- Generator: Adobe Illustrator 21.0.0, SVG Export Plug-In . SVG Version: 6.00 Build 0)  -->
<svg version="1.1" id="图层_1" xmlns="http://www.w3.org/2000/svg" xmlns:xlink="http://www.w3.org/1999/xlink" x="0px" y="0px"
	 viewBox="0 0 128 128" style="enable-background:new 0 0 128 128;" xml:space="preserve">
<path d="M82.6,78.9L56.7,97.9c-2.3,1.7-5.5,1.2-7.2-1.1c0,0,0,0,0,0c-1-1.4-1.2-3.1-0.6-4.7c-0.2-0.6-0.4-1.2-0.4-1.8V59.2
	c0-0.4,0.1-0.8,0.3-1.2c-0.4-1.5-0.2-3,0.7-4.3c1.6-2.3,4.9-2.9,7.2-1.3l25.9,18.1c2.3,1.6,2.9,4.9,1.3,7.2
	C83.5,78.1,83.1,78.5,82.6,78.9 M110.7,25.5H80.1l6.5-14.2c1.2-2.6,0.1-5.7-2.6-6.9c-2.6-1.2-5.7,0-6.9,2.6l-8.5,18.5H55.5L47,7
	c-1.2-2.6-4.3-3.7-6.9-2.6c-2.6,1.2-3.7,4.3-2.6,6.9l6.5,14.1H17.3C11.6,25.5,7,30.2,7,35.9v77.8c0,5.7,4.6,10.4,10.3,10.4h93.4
	c5.7,0,10.3-4.7,10.3-10.4V35.9C121,30.2,116.4,25.5,110.7,25.5"/>
</svg>
