<?xml version="1.0" encoding="utf-8"?>
<!-- Generator: Adobe Illustrator 21.0.0, SVG Export Plug-In . SVG Version: 6.00 Build 0)  -->
<svg version="1.1" id="图层_1" xmlns="http://www.w3.org/2000/svg" xmlns:xlink="http://www.w3.org/1999/xlink" x="0px" y="0px"
	 viewBox="0 0 128 128" style="enable-background:new 0 0 128 128;" xml:space="preserve">
<path d="M64.3,41.9c0-10.1,8.2-18.3,18.3-18.3s18.3,8.2,18.3,18.3s-8.2,18.3-18.3,18.3S64.3,52,64.3,41.9 M123.3,15.1
	c0-5.7-4.7-10.4-10.2-10.4h0C112.9,4.7,94.8,4,81.2,4C65.5,4,64.1,4.8,62.4,6.5L38.2,30.7L7,61.9C3,65.9,3,72.6,7.1,76.7l44.2,44.2
	c2,2,4.6,3.1,7.4,3.1c2.8,0,5.4-1.1,7.4-3l34.6-34.6l20.8-20.8C123.3,63.7,125,62,123.3,15.1"/>
</svg>
