<?xml version="1.0" encoding="utf-8"?>
<!-- Generator: Adobe Illustrator 21.0.0, SVG Export Plug-In . SVG Version: 6.00 Build 0)  -->
<svg version="1.1" id="图层_1" xmlns="http://www.w3.org/2000/svg" xmlns:xlink="http://www.w3.org/1999/xlink" x="0px" y="0px"
	 viewBox="0 0 128 128" style="enable-background:new 0 0 128 128;" xml:space="preserve">
<path d="M34.1,50.4V34c0-9.7,7.5-17.5,16.8-17.5S67.6,24.3,67.6,34v16.4c0,9.7-7.5,17.5-16.8,17.5S34.1,60,34.1,50.4 M61.7,108.9
	l-48.1-0.1V92.6c0-0.7,0.7-1.7,1.3-2C15.2,90.5,36,81,52,81h4.9c2.7,0,4.8-2.2,4.8-5c0-0.2-0.1-0.3-0.1-0.5
	c9.2-4.3,15.6-13.9,15.6-25.1V34c0-15.2-11.8-27.5-26.4-27.5C36.3,6.5,24.5,18.8,24.5,34v16.4c0,9.4,4.5,17.7,11.5,22.7
	c-8.5,2-16.7,4.8-24.7,8.3C7.1,83.1,4,87.9,4,92.6v17.8c0,0.6,0.1,1.1,0.3,1.6c1.3,4.1,5,6.9,9.1,6.9h48.4c2.7,0,4.8-2.2,4.8-5
	S64.4,108.9,61.7,108.9 M95.2,111.5c-10.6,0-19.2-9-19.2-20s8.6-20,19.2-20s19.2,9,19.2,20S105.8,111.5,95.2,111.5 M95.2,61.5
	c-15.9,0-28.8,13.5-28.8,30s12.9,30,28.8,30S124,108,124,91.5S111.1,61.5,95.2,61.5 M104.7,87.8h-6.1v-6.3c0-1.9-1.5-3.5-3.4-3.5
	c-1.9,0-3.4,1.6-3.4,3.5c0,0,0,0,0,0v6.3h-6.3c-1.9,0-3.4,1.6-3.4,3.5c0,0,0,0,0,0c0,1.9,1.5,3.5,3.4,3.5h6.3v6.7
	c0,1.9,1.5,3.5,3.4,3.5c1.9,0,3.4-1.6,3.4-3.5c0,0,0,0,0,0v-6.7h6.1c1.9,0,3.4-1.6,3.4-3.5c0,0,0,0,0,0
	C108.1,89.4,106.6,87.8,104.7,87.8"/>
</svg>
