<?xml version="1.0" encoding="utf-8"?>
<!-- Generator: Adobe Illustrator 21.0.0, SVG Export Plug-In . SVG Version: 6.00 Build 0)  -->
<svg version="1.1" id="图层_1" xmlns="http://www.w3.org/2000/svg" xmlns:xlink="http://www.w3.org/1999/xlink" x="0px" y="0px"
	 viewBox="0 0 128 128" style="enable-background:new 0 0 128 128;" xml:space="preserve">
<path d="M102.2,113.1c-6,0-10.9-4.9-10.9-10.9c0-6,4.9-10.9,10.9-10.9c6,0,10.9,4.9,10.9,10.9C113.1,108.2,108.2,113.1,102.2,113.1
	 M25.8,74.9c-6,0-10.9-4.9-10.9-10.9s4.9-10.9,10.9-10.9S36.7,58,36.7,64S31.8,74.9,25.8,74.9 M102.2,14.9c6,0,10.9,4.9,10.9,10.9
	s-4.9,10.9-10.9,10.9c-6,0-10.9-4.9-10.9-10.9S96.2,14.9,102.2,14.9 M102.2,80.4c-8.4,0-16.1,4.9-19.6,12.5l-34.9-20
	c-0.5-0.3-1.1-0.5-1.7-0.5c1.1-2.6,1.7-5.5,1.7-8.4c0-1.1-0.2-2.2-0.3-3.3c0.1-0.1,0.2-0.1,0.3-0.1L85,39.2
	c4.1,5.3,10.4,8.4,17.1,8.5c12,0,21.8-9.8,21.8-21.8S114.2,4,102.2,4s-21.8,9.8-21.8,21.8c0,1.1,0.2,2.2,0.3,3.3
	c-0.1,0-0.2,0-0.3,0.1L43,50.7c-4.1-5.3-10.4-8.4-17.1-8.5C13.8,42.2,4,52,4,64s9.8,21.8,21.8,21.8c5.3,0,10.5-2,14.4-5.6
	c0.5,0.9,1.1,1.6,2,2.1l38.2,21.8c0.1,0,0.1,0,0.2,0.1c1.1,11,10.3,19.7,21.6,19.7c12,0,21.8-9.8,21.8-21.8S114.2,80.4,102.2,80.4"
	/>
</svg>
