<?xml version="1.0" encoding="utf-8"?>
<!-- Generator: Adobe Illustrator 21.0.0, SVG Export Plug-In . SVG Version: 6.00 Build 0)  -->
<svg version="1.1" id="图层_1" xmlns="http://www.w3.org/2000/svg" xmlns:xlink="http://www.w3.org/1999/xlink" x="0px" y="0px"
	 viewBox="0 0 128 128" style="enable-background:new 0 0 128 128;" xml:space="preserve">
<path d="M123.3,117.9c1,1.6,1,3,0,4.3c-1,1.3-2.4,1.4-4,0.4c-3-2.6-5.6-5.5-8-8.9c-2,2.8-4.4,5.4-7,7.9c-1.6,1-2.9,0.9-3.9-0.4
	c-1-1.3-1-2.5-0.3-3.9c2.9-2.6,5.4-5.6,7.9-9.1c-1.6-3.2-2.9-7.1-3.8-11.8c-0.8-4.6-1.3-8.8-1.5-12.7c-1-0.6-1.4-1.5-1.4-2.5h-2.5
	v25.4h0.5c2-0.4,3.1,0.2,3.4,1.9c0.3,1.6-0.5,2.9-2.3,3.6c-0.6,0.1-1.1,0.4-1.6,0.5v8.4c-0.2,1.4-1.1,2-2.7,2c-1.6,0-2.6-0.6-2.9-2
	v-6.8c-5.1,1.4-10.2,2.6-15.4,3.8c-2,0.1-3.3-0.7-3.6-2.4c-0.4-1.6,0.2-2.7,1.8-3.3c1.1-0.1,2.4-0.4,3.6-0.7V81.3h-1.9
	c-1.5-0.2-2.3-1.3-2.3-3s0.8-2.7,2.3-3h23.1c1.5,0.2,2.1,1.3,2.3,3h15.1c2.4-0.1,3.5,1,3.5,3.4v2.1c-0.1,8.6-2.4,16.8-6.9,24.5
	C117.3,112.1,120.1,115.2,123.3,117.9z M93.1,86.6l0.1-5.4h-8v5.6h7.9V86.6z M93.1,97.4l0.1-5.5h-8v5.6L93.1,97.4z M93.1,108.1
	l0.1-5.1h-8v7.4c2.7-0.6,5.4-1.3,7.9-2.1C93.1,108.3,93.1,108.1,93.1,108.1z M108.5,84.2c0.1,3,0.4,6,0.9,9.3
	c0.5,3.2,1.3,6.1,2.3,8.5c2.5-5.5,3.8-11.1,3.9-17c0-0.6-0.4-1-1.1-1h-5.8L108.5,84.2z M21.5,66.5c0,2.7,2.2,5,5,5h40
	c2.7,0,5-2.3,5-5v-40c0-2.8-2.3-5-5-5c-2.7,0-5,2.2-5,5v35h-35C23.8,61.5,21.5,63.8,21.5,66.5z M69,113.8c-1.6,0.1-3.4,0.3-5,0.3
	c-10.9,0-21.4-3.5-30-10.1C21.9,94.8,14,80.3,14,64c0-27.6,22.4-50,50-50s50,22.4,50,50c0,2.5-0.3,5-0.6,7.5h10.1
	c0.3-2.5,0.5-5,0.5-7.5c0-33.1-26.9-60-60-60S4,30.9,4,64c0,22.1,12.1,41.5,30,51.9c9.1,5.2,19.5,8.1,30,8.1c1.6,0,3.4-0.1,5-0.3
	V113.8z"/>
</svg>
