<?xml version="1.0" encoding="utf-8"?>
<!-- Generator: Adobe Illustrator 21.0.0, SVG Export Plug-In . SVG Version: 6.00 Build 0)  -->
<svg version="1.1" id="图层_1" xmlns="http://www.w3.org/2000/svg" xmlns:xlink="http://www.w3.org/1999/xlink" x="0px" y="0px"
	 viewBox="0 0 128 128" style="enable-background:new 0 0 128 128;" xml:space="preserve">
<path d="M20,114V31.7l36.7,14.9c2.1,0.9,4.7,1.3,7.3,1.3c2.6,0,5.1-0.4,7.2-1.3L108,31.7l0,82.3L20,114L20,114z M108,14v6.7
	L66.8,37.4c-1.4,0.5-4.2,0.5-5.6,0L20,20.8V14l0,0L108,14z M108,4H20C13.9,4,9,8.5,9,14v100c0,5.5,4.9,10,11,10H108
	c6.1,0,11-4.5,11-10V14C119,8.5,114.1,4,108,4z M80.5,81c2.1,0,3.9-1.6,3.9-3.5c0-1.9-1.7-3.5-3.8-3.5c0,0,0,0,0,0H69.4l0,0l11-10
	c1.5-1.4,1.5-3.6,0-5s-3.9-1.4-5.4,0l0,0L64,69l0,0l0,0L53,59c-1.5-1.4-3.9-1.4-5.4,0s-1.5,3.6,0,5l11,10l0,0H47.5
	c-2.1,0-3.9,1.6-3.9,3.5c0,1.9,1.7,3.5,3.8,3.5c0,0,0,0,0,0h12.6v8H47.5c-2.1,0-3.9,1.6-3.9,3.5c0,1.9,1.7,3.5,3.8,3.5c0,0,0,0,0,0
	h12.6v3c0,1.9,1.7,3.5,3.8,3.5c2.1,0,3.9-1.6,3.9-3.5v-3h12.6c2.1,0,3.9-1.6,3.9-3.5c0-1.9-1.7-3.5-3.8-3.5c0,0,0,0,0,0H67.9v-8
	H80.5z"/>
</svg>
