<?xml version="1.0" encoding="utf-8"?>
<!-- Generator: Adobe Illustrator 21.0.0, SVG Export Plug-In . SVG Version: 6.00 Build 0)  -->
<svg version="1.1" id="图层_1" xmlns="http://www.w3.org/2000/svg" xmlns:xlink="http://www.w3.org/1999/xlink" x="0px" y="0px"
	 viewBox="0 0 128 128" style="enable-background:new 0 0 128 128;" xml:space="preserve">
<path d="M94,103.9c-8.6,6.5-19.1,10.1-30,10.1s-21.4-3.5-30-10.1C21.9,94.8,14,80.3,14,64c0-27.6,22.4-50,50-50s50,22.4,50,50
	C114,80.3,106.1,94.8,94,103.9 M64,4C30.9,4,4,30.9,4,64c0,22.1,12.1,41.5,30,51.9c9.1,5.3,19.5,8.1,30,8.1s20.9-2.8,30-8.1
	c17.9-10.4,30-29.8,30-51.9C124,30.9,97.1,4,64,4 M50.4,72.6l0.1-5.1c-2,0.1-3.9,0.3-5.9,0.3c-2.9,0-4.5-0.9-5.1-2.8
	c-0.6-1.9-0.1-3.9,1.5-6.2c2.8-3.5,5.9-7,9.5-10.5H37.4c-1.9-0.3-2.8-1.5-2.8-3.6s0.9-3.4,2.8-3.6h22.9c-0.8-0.8-1.4-1.8-1.8-3
	c-0.6-1.8-0.1-3.2,1.8-4.5s3.9-0.8,6,1.3c1.3,1.5,2.4,3.6,3.6,6.3h20.4c1.8,0.4,2.8,1.6,2.8,3.6s-0.9,3.4-2.8,3.6H60.4
	c-2.8,2.5-5.4,5.3-7.8,8.1c-2.1,2-2.6,3.3-1.4,3.6c8.4-0.1,16.9-0.6,25.6-1.5c-1.3-1.3-2.4-2.5-3.2-3.8c-0.9-1.8-0.6-3.4,0.7-4.9
	c1.4-1.5,3.4-1.3,5.8,0.5c3.6,3.5,6.9,7.9,9.6,13c1.1,2.5,0.8,4.5-1.1,5.9c-1.8,1.4-3.5,1-5.3-1.1c-0.5-0.7-1.1-1.8-1.9-3
	c-2.5,0.2-5.3,0.5-8.1,0.8v16.9c-0.3,2.9,0.9,4.1,3.6,3.8h4.9c1.6,0.1,2.6-0.1,3.1-0.8c0.5-0.6,0.8-1.9,0.8-3.6v-5
	c0.3-1.8,1.5-2.5,3.8-2.5c2.3,0,3.5,0.9,3.8,2.5v8.4c-0.2,5.6-3.6,8.4-9.8,8.2h-9.9c-2.1,0-4-0.5-5.5-1.6c-1.5-1.1-2.4-3.1-2.4-6
	V66.5c-2.6,0.1-5.3,0.3-7.6,0.4v7.5c-0.1,4.1-1.8,8.1-4.6,11.8c-3,3.8-6.4,6.6-10.4,8.6c-2.9,1-4.7,0.5-5.9-1.3
	c-1.1-1.8-0.5-3.4,1.8-5c3.4-1.8,6-3.9,8.1-6.4C49.2,79.6,50.4,76.5,50.4,72.6z"/>
</svg>
