<?xml version="1.0" encoding="utf-8"?>
<!-- Generator: Adobe Illustrator 21.0.0, SVG Export Plug-In . SVG Version: 6.00 Build 0)  -->
<svg version="1.1" id="图层_1" xmlns="http://www.w3.org/2000/svg" xmlns:xlink="http://www.w3.org/1999/xlink" x="0px" y="0px"
	 viewBox="0 0 128 128" style="enable-background:new 0 0 128 128;" xml:space="preserve">
<path d="M107.2,47.2h-9.6v-9.6C97.6,19.1,82.5,4,64,4S30.4,19.1,30.4,37.6v9.6h-9.6c-5.3,0-9.6,4.3-9.6,9.6v28.8
	c0,5.3,4.3,9.6,9.6,9.6h14.2c0,0,0.1,0,0.1,0s0.1,0,0.1,0H40V37.6c0-13.2,10.8-24,24-24c13.2,0,24,10.8,24,24v57.7
	c0,5.1-1.2,8.7-3.8,11.1c-2.5,2.2-6.4,3.4-11.7,3.6c-1.6-3.1-4.9-5.1-8.5-5.1c-5.3,0-9.6,4.3-9.6,9.6c0,5.3,4.3,9.6,9.6,9.6
	c3.4,0,6.4-1.8,8.1-4.5c8-0.2,14.1-2.2,18.5-6.1c4.7-4.2,7-10.3,7-18.2v0h9.6c5.3,0,9.6-4.3,9.6-9.6V56.8
	C116.8,51.5,112.5,47.2,107.2,47.2"/>
</svg>
