<?xml version="1.0" encoding="utf-8"?>
<!-- Generator: Adobe Illustrator 21.0.0, SVG Export Plug-In . SVG Version: 6.00 Build 0)  -->
<svg version="1.1" id="图层_1" xmlns="http://www.w3.org/2000/svg" xmlns:xlink="http://www.w3.org/1999/xlink" x="0px" y="0px"
	 viewBox="0 0 128 128" style="enable-background:new 0 0 128 128;" xml:space="preserve">
<path d="M65.1,87.5c14.4,0,26.2-11.7,26.2-26V30.1C91.3,15.7,79.6,4,65.1,4C50.7,4,39,15.7,39,30.1v31.4
	C39,75.8,50.7,87.5,65.1,87.5 M103.8,51c-2.9,0-5.2,2.3-5.2,5.2v4C98.5,79.1,83,94.5,64,94.5c-19,0-34.5-15.4-34.5-34.3v-4
	c0-2.9-2.3-5.2-5.2-5.2S19,53.3,19,56.2v4c0,22.8,17.3,41.7,39.5,44.4v14.2c0,2.9,2.3,5.2,5.2,5.2c2.9,0,5.2-2.3,5.2-5.2v-14.1
	c22.5-2.5,40-21.5,40-44.5v-4C109,53.3,106.7,51,103.8,51"/>
</svg>
