<?xml version="1.0" encoding="utf-8"?>
<!-- Generator: Adobe Illustrator 21.0.0, SVG Export Plug-In . SVG Version: 6.00 Build 0)  -->
<svg version="1.1" id="图层_1" xmlns="http://www.w3.org/2000/svg" xmlns:xlink="http://www.w3.org/1999/xlink" x="0px" y="0px"
	 viewBox="0 0 128 128" style="enable-background:new 0 0 128 128;" xml:space="preserve">
<path d="M64,114c-27.6,0-50-22.4-50-50s22.4-50,50-50s50,22.4,50,50S91.6,114,64,114 M64,4C30.9,4,4,30.9,4,64s26.9,60,60,60
	s60-26.9,60-60S97.1,4,64,4 M84.9,58h-40c-2.8,0-5,2.2-5,5c0,2.8,2.2,5,5,5h40c2.8,0,5-2.2,5-5C89.9,60.2,87.6,58,84.9,58"/>
</svg>
